SplineFontDB: 3.2
FontName: OpenTTDSerif
FullName: OpenTTD Serif
FamilyName: OpenTTD Serif
Weight: Regular
Copyright: Richard Wheeler (Zephyris)
UComments: "2023-12-11: Created with FontForge (http://fontforge.org)"
Version: 001.000
ItalicAngle: 0
UnderlinePosition: -120
UnderlineWidth: 60
Ascent: 1600
Descent: 400
InvalidEm: 0
LayerCount: 2
Layer: 0 0 "Back" 1
Layer: 1 0 "Fore" 0
XUID: [1021 686 -1269612197 6434]
StyleMap: 0x0000
FSType: 0
OS2Version: 4
OS2_WeightWidthSlopeOnly: 0
OS2_UseTypoMetrics: 1
CreationTime: 1702291130
ModificationTime: 1703715308
PfmFamily: 33
TTFWeight: 500
TTFWidth: 5
LineGap: 0
VLineGap: 0
OS2TypoAscent: 0
OS2TypoAOffset: 1
OS2TypoDescent: 0
OS2TypoDOffset: 1
OS2TypoLinegap: 0
OS2WinAscent: 0
OS2WinAOffset: 1
OS2WinDescent: 0
OS2WinDOffset: 1
HheadAscent: 0
HheadAOffset: 1
HheadDescent: 0
HheadDOffset: 1
OS2CapHeight: 800
OS2XHeight: 600
OS2Vendor: 'PfEd'
Lookup: 258 0 0 "'kern' Horizontal Kerning in Latin lookup 0" { "'kern' Horizontal Kerning in Latin lookup 0-1" [180,0,6] } ['kern' ('DFLT' <'dflt' > 'latn' <'dflt' > ) ]
MarkAttachClasses: 1
DEI: 91125
KernClass2: 7+ 7 "'kern' Horizontal Kerning in Latin lookup 0-1"
 0 
 1 T
 7 F V W Y
 1 f
 1 t
 41 a b c d e h i k l m n o p r s u v w x y z
 41 A B C D E G H I J K L M N O P Q R S U X Z
 33 a c d e g m n o q r s u v w x y z
 1 f
 1 t
 1 j
 5 V W Y
 1 T
 0 {} 0 {} 0 {} 0 {} 0 {} 0 {} 0 {} 0 {} -200 {} -100 {} -100 {} -200 {} 0 {} 0 {} 0 {} -100 {} 0 {} 0 {} -200 {} 0 {} 0 {} 0 {} -100 {} -100 {} 0 {} -200 {} 0 {} 0 {} 0 {} 0 {} -100 {} -100 {} -200 {} -100 {} -100 {} 0 {} 0 {} 0 {} 0 {} -200 {} -100 {} -200 {} 0 {} 0 {} 0 {} 0 {} -200 {} 0 {} 0 {}

StartChar: a
Encoding: 97 97 0
Width: 1500
VWidth: 1000
Flags: W
HStem: 0 100<493.658 795.507 1160.85 1302.9> 500 100<494.346 897.385> 900 100<382.768 833.44>
VStem: 100 300<181.399 410.54> 200 295<699.413 854.878> 900 300<224.585 493.814 572.297 755.848>
LayerCount: 2
Fore
SplineSet
600 1000 m 0xec
 900 1005 1200 895 1200 575 c 2
 1200 150 l 2
 1200 120 1220 100 1250 100 c 0
 1280 100 1400 260 1400 260 c 1
 1400 150 l 1
 1400 150 1334.18261719 0 1200 0 c 0
 1121.69433594 0 1018.12011719 91.689453125 955.404296875 203.935546875 c 1
 917.046875 127.53125 833.182617188 0 700 0 c 0
 307.244140625 -0 100 120 100 300 c 0xf4
 100 480 403.448242188 596.401367188 700 600 c 0
 772.325195312 600.877929688 844.486328125 586.947265625 900 572.296875 c 1
 900 725 l 2
 900 875 775 900 600 900 c 0
 502.028320312 900 434.125 889.73828125 375 875 c 1
 375 875 495 885 495 770 c 0
 495 720 462.784179688 670 345 670 c 0
 270 670 199.357421875 700.001953125 200 800 c 0
 200.635742188 898.944335938 375.03125 996.250976562 600 1000 c 0xec
700 500 m 0
 550 500 400 459.400390625 400 300 c 0
 400 140.599609375 550 100 700 100 c 0
 820 100 900 280 900 380 c 1
 900.330078125 379.50390625 l 1
 900.190429688 383.008789062 900 386.524414062 900 390 c 2
 900 490.505859375 l 1
 844.4609375 495.328125 772.418945312 500 700 500 c 0
EndSplineSet
EndChar

StartChar: y
Encoding: 121 121 1
Width: 1800
VWidth: 1000
Flags: W
HStem: -400 100<288.057 582.507> 900 100<100 300 600 800 1100 1350 1450 1700>
VStem: 100 300<-236.357 -79.5252>
LayerCount: 2
Fore
SplineSet
100 1000 m 1
 800 1000 l 1
 800 900 l 1
 600 900 l 1
 975 150 l 1
 1350 900 l 1
 1100 900 l 1
 1100 1000 l 1
 1700 1000 l 1
 1700 900 l 1
 1450 900 l 1
 950 -100 l 2
 900 -200 701.274414062 -400.450195312 400 -400 c 0
 150.000976562 -399.626953125 100 -271.430664062 100 -175 c 0
 100 -77.1708984375 175 -50 250 -50 c 0
 367.784179688 -50 400 -100 400 -150 c 0
 400 -265 280 -255 280 -255 c 1
 280 -255 299.860351562 -300.899414062 400 -300 c 0
 579.9921875 -298.3828125 825 -150 750 0 c 2
 300 900 l 1
 100 900 l 1
 100 1000 l 1
EndSplineSet
EndChar

StartChar: d
Encoding: 100 100 2
Width: 1600
VWidth: 1000
Flags: W
HStem: 0 100<561.456 889.95 1300 1500> 900 100<558.509 889.951> 1300 100<800 1000>
VStem: 100 300<286.94 717.505> 1000 300<200 800 900 1300>
LayerCount: 2
Fore
SplineSet
800 1400 m 1
 1300 1400 l 1
 1300 100 l 1
 1500 100 l 1
 1500 0 l 1
 1200 0 l 1
 1000 100 l 1
 1000 100 849.997070312 -0.9716796875 700 0 c 0
 307.247070312 2.5439453125 100 200 100 500 c 0
 100 800 300 1000 700 1000 c 0
 850 1000 1000 900 1000 900 c 1
 1000 1300 l 1
 800 1300 l 1
 800 1400 l 1
700 900 m 0
 550 900 400 765.666992188 400 500 c 0
 400 234.333007812 550 100 700 100 c 0
 850 100 1000 200 1000 200 c 1
 1000 800 l 1
 1000 800 850 900 700 900 c 0
EndSplineSet
EndChar

StartChar: b
Encoding: 98 98 3
Width: 1600
VWidth: 1200
Flags: W
HStem: 0 100<710.05 1038.54> 900 100<710.049 1041.49> 1300 100<100 300>
VStem: 300 300<200 800 900 1300> 1200 300<286.94 717.505>
LayerCount: 2
Fore
SplineSet
100 1400 m 1
 600 1400 l 1
 600 900 l 1
 600 900 750 1000 900 1000 c 0
 1300 1000 1500 800 1500 500 c 0
 1500 200 1292.75292969 2.5439453125 900 0 c 0
 750.002929688 -0.9716796875 600 100 600 100 c 1
 400 0 l 1
 300 0 l 1
 300 1300 l 1
 100 1300 l 1
 100 1400 l 1
900 900 m 0
 750 900 600 800 600 800 c 1
 600 200 l 1
 600 200 750 100 900 100 c 0
 1050 100 1200 234.333007812 1200 500 c 0
 1200 765.666992188 1050 900 900 900 c 0
EndSplineSet
EndChar

StartChar: c
Encoding: 99 99 4
Width: 1300
VWidth: 1200
Flags: W
HStem: 0 100<640 1063.43> 900 100<637.739 1017.25>
VStem: 100 300<328.106 672.259> 905 295<699.413 855.199>
LayerCount: 2
Fore
SplineSet
800 900 m 0
 650.01953125 902.434570312 400 765.666992188 400 500 c 0
 400 234.333007812 650 100 800 100 c 0
 1025 100 1200 200 1200 200 c 1
 1200 100 l 1
 1200 100 1025.05371094 -2.244140625 800 0 c 0
 407.2578125 3.916015625 100 200 100 500 c 0
 100 800 400 1000 800 1000 c 0
 1025 1000 1199.36425781 898.944335938 1200 800 c 0
 1200.64257812 700.001953125 1130 670 1055 670 c 0
 937.215820312 670 905 720 905 770 c 0
 905 885 1025 875 1025 875 c 1
 965.875 889.73828125 897.958984375 898.41015625 800 900 c 0
EndSplineSet
EndChar

StartChar: e
Encoding: 101 101 5
Width: 1400
VWidth: 1200
Flags: W
HStem: 0 100<545.009 1015.45> 500 100<404.543 1000> 900 100<541.14 886.612>
VStem: 100 300<320.734 500 600 681.473>
LayerCount: 2
Fore
SplineSet
750 1000 m 0
 1199.99902344 1000 1300 700 1300 500 c 1
 400 500 l 1
 400 200 500 100 750 100 c 0
 1100 100 1275 300 1275 300 c 1
 1275 200 l 1
 1275 200 1132.48632812 -3.5986328125 750 0 c 0
 400.015625 3.2919921875 100 200 100 500 c 0
 100 800 400 1000 750 1000 c 0
750 900 m 0
 530.200195312 900 426.42578125 822.560546875 404.54296875 600 c 1
 1000 600 l 1
 1000 600 1000 900 750 900 c 0
EndSplineSet
EndChar

StartChar: f
Encoding: 102 102 6
Width: 1200
VWidth: 1200
Flags: W
HStem: 0 100<100 300 600 800> 900 100<100 300 600 900> 1300 100<654.232 916.895>
VStem: 300 300<100 900 1000 1198.6> 800 300<1104.53 1258.72>
LayerCount: 2
Fore
SplineSet
800 1400 m 0
 1000 1400 1100 1296.43066406 1100 1200 c 0
 1100 1102.17089844 1025 1075 950 1075 c 0
 832.215820312 1075 800 1125 800 1175 c 0
 800 1290 920 1280 920 1280 c 1
 920 1280 900.139648438 1300.89941406 800 1300 c 0
 620.0078125 1298.3828125 600 1250 600 1000 c 1
 900 1000 l 1
 900 900 l 1
 600 900 l 1
 600 100 l 1
 800 100 l 1
 800 0 l 1
 100 0 l 1
 100 100 l 1
 300 100 l 1
 300 900 l 1
 100 900 l 1
 100 1000 l 1
 300 1000 l 1
 300 1300 498.725585938 1400 800 1400 c 0
EndSplineSet
EndChar

StartChar: g
Encoding: 103 103 7
Width: 1500
VWidth: 1200
Flags: W
HStem: -400 100<521.577 978.423> 100 100<572.242 985.237> 300 100<601.049 904.704> 900 100<594.848 905.394> 1000 120<1063.68 1296.84>
VStem: 100 300<-208.975 9.32889> 200 300<517.89 779.295> 300 250<191.263 313.251> 1000 300<520.491 806.331> 1100 300<-209.403 9.18907>
LayerCount: 2
Fore
SplineSet
1150 1120 m 0xea
 1230 1120 1300 1110 1300 1060 c 0
 1300 1010 1260 1000 1150 1000 c 0
 1101.11425781 1000 1075.95996094 980.245117188 1063.06445312 958.298828125 c 1
 1231.23632812 901.965820312 1300 792.032226562 1300 650 c 0
 1300 440 997.73046875 296.18359375 750 300 c 0
 700.764648438 300.758789062 649.412109375 306.951171875 598.669921875 317.70703125 c 1
 574.123046875 299.07421875 550 274.5546875 550 250 c 0xe980
 550 229.024414062 567.642578125 208.098632812 588.07421875 190.814453125 c 1
 640.201171875 196.643554688 694.338867188 200 750 200 c 0
 1100 200 1400 80 1400 -100 c 0
 1400 -280 1121.296875 -403.81640625 750 -400 c 0
 378.703125 -396.18359375 100 -280 100 -100 c 0xec40
 100 9.939453125 212.22265625 97.2978515625 379.087890625 148.80078125 c 1
 336.958007812 173.307617188 300 207.022460938 300 250 c 0xe9
 300 309.033203125 369.590820312 350.498046875 426.697265625 374.681640625 c 1
 297.319335938 435.61328125 200 530.889648438 200 650 c 0
 200 860 500 1000 750 1000 c 0xf2
 831.15625 1000 901.852539062 994.14453125 963.26171875 983.203125 c 1
 986.379882812 1032.640625 1042.33886719 1120 1150 1120 c 0xea
750 900 m 0xf280
 600 900 500 816.041992188 500 650 c 0
 500 483.958007812 600 400 750 400 c 0
 900 400 1000 483.958007812 1000 650 c 0
 1000 816.041992188 900 900 750 900 c 0xf280
750 100 m 0
 540 100 400 32.8330078125 400 -100 c 0
 400 -232.833007812 540 -300 750 -300 c 0
 960 -300 1100 -232.833007812 1100 -100 c 0xe440
 1100 32.8330078125 960 100 750 100 c 0
EndSplineSet
EndChar

StartChar: h
Encoding: 104 104 8
Width: 1700
VWidth: 1200
Flags: W
HStem: 0 100<100 300 600 800 1400 1600> 900 100<710.05 1009.47> 1300 100<100 300>
VStem: 300 300<100 800 900 1300> 1100 300<100 715.742>
LayerCount: 2
Fore
SplineSet
100 1400 m 1
 600 1400 l 1
 600 900 l 1
 600 900 750.002929688 1000.88085938 900 1000 c 0
 1206.44628906 998.201171875 1400 800 1400 500 c 2
 1400 100 l 1
 1600 100 l 1
 1600 0 l 1
 1100 0 l 1
 1100 500 l 2
 1100 765.666992188 1050 900 900 900 c 0
 750 900 600 800 600 800 c 1
 600 100 l 1
 800 100 l 1
 800 0 l 1
 100 0 l 1
 100 100 l 1
 300 100 l 1
 300 1300 l 1
 100 1300 l 1
 100 1400 l 1
EndSplineSet
EndChar

StartChar: j
Encoding: 106 106 10
Width: 1100
VWidth: 1200
Flags: W
HStem: -400 100<305.874 594.21> -20 20G<212.5 308.892> 900 100<500 700> 1090 220<709.714 989.673>
VStem: 100 300<-185.769 -29.5252> 670 360<1128.32 1268.87> 700 300<-170.028 900>
LayerCount: 2
Fore
SplineSet
500 1000 m 1xfa
 1000 1000 l 1
 1000 0 l 2
 1000 -300 701.186523438 -407.283203125 400 -400 c 0
 198.576171875 -395.12890625 100 -221.430664062 100 -125 c 0
 100 -27.1708984375 175 0 250 0 c 0
 367.784179688 0 400 -50 400 -100 c 0
 400 -215 280 -205 280 -205 c 1
 280 -205 299.860351562 -300.899414062 400 -300 c 0
 579.9921875 -298.3828125 700 -250 700 0 c 2
 700 900 l 1
 500 900 l 1
 500 1000 l 1xfa
EndSplineSet
Refer: 83 46 N 1 0 0 1 600 1100 2
EndChar

StartChar: k
Encoding: 107 107 11
Width: 1700
VWidth: 1200
Flags: W
HStem: 0 100<100 300 600 800 1000 1150 1450 1600> 900 100<800 1050 1250 1500> 1300 100<100 300>
VStem: 300 300<100 350 450 1300>
LayerCount: 2
Fore
SplineSet
100 1400 m 1
 600 1400 l 1
 600 450 l 1
 1050 900 l 1
 800 900 l 1
 800 1000 l 1
 1500 1000 l 1
 1500 900 l 1
 1250 900 l 1
 950 600 l 1
 1450 100 l 1
 1600 100 l 1
 1600 0 l 1
 1000 0 l 1
 1000 100 l 1
 1150 100 l 1
 750 500 l 1
 600 350 l 1
 600 100 l 1
 800 100 l 1
 800 0 l 1
 100 0 l 1
 100 100 l 1
 300 100 l 1
 300 1300 l 1
 100 1300 l 1
 100 1400 l 1
EndSplineSet
EndChar

StartChar: l
Encoding: 108 108 12
Width: 900
VWidth: 1200
Flags: W
HStem: 0 100<100 300 600 800> 1300 100<100 300>
VStem: 300 300<100 1300>
LayerCount: 2
Fore
SplineSet
600 1400 m 1
 600 100 l 1
 800 100 l 1
 800 0 l 1
 100 0 l 1
 100 100 l 1
 300 100 l 1
 300 1300 l 1
 100 1300 l 1
 100 1400 l 1
 600 1400 l 1
EndSplineSet
EndChar

StartChar: n
Encoding: 110 110 13
Width: 1700
VWidth: 1200
Flags: W
HStem: 0 100<100 300 600 800 1400 1600> 900 100<100 300 811.716 1063.16>
VStem: 300 300<100 600 730 900> 1100 300<100 832.134>
LayerCount: 2
Fore
SplineSet
100 1000 m 1
 600 1000 l 1
 600 730 l 1
 600 730 700 1000 960 1000 c 0
 1300 1000 1400.89941406 800.209960938 1400 720 c 2
 1400 100 l 1
 1600 100 l 1
 1600 0 l 1
 1100 0 l 1
 1100 700 l 2
 1100 800 1099.99804688 899.267578125 960 900 c 0
 716.747070312 901.272460938 600 600 600 600 c 1
 600 100 l 1
 800 100 l 1
 800 0 l 1
 100 0 l 1
 100 100 l 1
 300 100 l 1
 300 900 l 1
 100 900 l 1
 100 1000 l 1
EndSplineSet
EndChar

StartChar: m
Encoding: 109 109 14
Width: 2500
VWidth: 1200
Flags: W
HStem: 0 100<100 300 600 800 1400 1600 2200 2400> 900 100<100 300 811.716 1063.16 1611.72 1863.16>
VStem: 300 300<100 600 730 900> 1100 300<100 600 720 832.134> 1900 300<100 832.134>
CounterMasks: 1 38
LayerCount: 2
Fore
SplineSet
100 1000 m 1
 600 1000 l 1
 600 730 l 1
 600 730 700 1000 960 1000 c 0
 1300 1000 1400.89941406 800.209960938 1400 720 c 1
 1400 730 l 1
 1400 730 1500 1000 1760 1000 c 0
 2100 1000 2200.89941406 800.209960938 2200 720 c 2
 2200 100 l 1
 2400 100 l 1
 2400 0 l 1
 1900 0 l 1
 1900 700 l 2
 1900 800 1899.99804688 899.267578125 1760 900 c 0
 1516.74707031 901.272460938 1400 600 1400 600 c 1
 1400 100 l 1
 1600 100 l 1
 1600 0 l 1
 1100 0 l 1
 1100 700 l 2
 1100 800 1099.99804688 899.267578125 960 900 c 0
 716.747070312 901.272460938 600 600 600 600 c 1
 600 100 l 1
 800 100 l 1
 800 0 l 1
 100 0 l 1
 100 100 l 1
 300 100 l 1
 300 900 l 1
 100 900 l 1
 100 1000 l 1
EndSplineSet
EndChar

StartChar: o
Encoding: 111 111 15
Width: 1300
VWidth: 1200
Flags: W
HStem: 0 100<524.869 775.131> 900 100<523.926 776.074>
VStem: 100 300<263.472 736.764> 900 300<263.472 736.764>
LayerCount: 2
Fore
SplineSet
650 1000 m 0
 1050 1000 1200 800 1200 500 c 0
 1200 200 1042.75292969 2.5439453125 650 0 c 1
 257.247070312 2.5439453125 100 200 100 500 c 0
 100 800 250 1000 650 1000 c 0
650 900 m 0
 500 900 400 765.666992188 400 500 c 0
 400 234.333007812 500 100 650 100 c 0
 800 100 900 234.333007812 900 500 c 0
 900 765.666992188 800 900 650 900 c 0
EndSplineSet
EndChar

StartChar: p
Encoding: 112 112 16
Width: 1600
VWidth: 1200
Flags: W
HStem: -400 100<100 300 600 800> 0 100<710.05 1038.54> 900 100<100 300 710.049 1041.49>
VStem: 300 300<-300 100 200 800> 1200 300<286.94 717.505>
LayerCount: 2
Fore
SplineSet
100 1000 m 1
 600 1000 l 1
 600 900 l 1
 600 900 750 1000 900 1000 c 0
 1300 1000 1500 800 1500 500 c 0
 1500 200 1292.75292969 2.5439453125 900 0 c 0
 750.002929688 -0.9716796875 600 100 600 100 c 1
 600 -300 l 1
 800 -300 l 1
 800 -400 l 1
 100 -400 l 1
 100 -300 l 1
 300 -300 l 1
 300 900 l 1
 100 900 l 1
 100 1000 l 1
900 900 m 0
 750 900 600 800 600 800 c 1
 600 200 l 1
 600 200 750 100 900 100 c 0
 1050 100 1200 234.333007812 1200 500 c 0
 1200 765.666992188 1050 900 900 900 c 0
EndSplineSet
EndChar

StartChar: q
Encoding: 113 113 17
Width: 1600
VWidth: 1200
Flags: W
HStem: -400 100<800 1000 1300 1500> 0 100<561.456 889.95> 900 100<558.509 889.951>
VStem: 100 300<286.94 717.505> 1000 300<-300 100 200 800>
LayerCount: 2
Fore
SplineSet
700 1000 m 0
 850 1000 1000 900 1000 900 c 1
 1200 1000 l 1
 1300 1000 l 1
 1300 -300 l 1
 1500 -300 l 1
 1500 -400 l 1
 800 -400 l 1
 800 -300 l 1
 1000 -300 l 1
 1000 100 l 1
 1000 100 849.997070312 -0.9716796875 700 0 c 0
 307.247070312 2.5439453125 100 200 100 500 c 0
 100 800 300 1000 700 1000 c 0
700 900 m 0
 550 900 400 765.666992188 400 500 c 0
 400 234.333007812 550 100 700 100 c 0
 850 100 1000 200 1000 200 c 1
 1000 800 l 1
 1000 800 850 900 700 900 c 0
EndSplineSet
EndChar

StartChar: r
Encoding: 114 114 18
Width: 1300
VWidth: 1200
Flags: W
HStem: 0 100<100 300 600 800> 880 120<779.141 1011.94> 900 100<100 300>
VStem: 300 300<100 653.856 864.287 900> 900 300<684.525 840.822>
LayerCount: 2
Fore
SplineSet
100 1000 m 1xb8
 600 1000 l 1xb8
 600 864.287109375 l 1
 667.415039062 940.34375 765.45703125 1000.20117188 900 1000 c 0
 1149.99902344 999.626953125 1200 876.430664062 1200 780 c 0
 1200 682.170898438 1125 655 1050 655 c 0
 932.215820312 655 900 705 900 755 c 0
 900 870 1020 860 1020 860 c 1
 1020 860 1000.13964844 880.899414062 900 880 c 0xd8
 720.0078125 878.3828125 598.201171875 619.370117188 600 460 c 2
 600 100 l 1
 800 100 l 1
 800 0 l 1
 100 0 l 1
 100 100 l 1
 300 100 l 1
 300 900 l 1
 100 900 l 1
 100 1000 l 1xb8
EndSplineSet
EndChar

StartChar: t
Encoding: 116 116 19
Width: 1000
VWidth: 1200
Flags: W
HStem: 0 100<620.816 822.863> 900.15 99.8496<100 300 600 900>
VStem: 300 300<118.816 900 1000 1050>
LayerCount: 2
Fore
SplineSet
300 1000 m 1
 300 1050 l 1
 550 1300 l 1
 600 1300 l 1
 600 1000 l 1
 900 1000 l 1
 900 900 l 1
 600 900.150390625 l 1
 600 300 l 2
 600 200 598.977539062 97.4560546875 700 100 c 0
 799.96875 102.517578125 900 200 900 200 c 1
 900 100 l 1
 900 100 800 0 700 0 c 0
 400 0 300 0 300 300 c 2
 300 900 l 1
 100 900 l 1
 100 1000 l 1
 300 1000 l 1
EndSplineSet
EndChar

StartChar: s
Encoding: 115 115 20
Width: 1200
VWidth: 1200
Flags: W
HStem: -10 110<427.108 776.684> 900 100<420.016 785.165>
VStem: 100 300<650.148 814.56> 100 100<0 180 264.633 400> 800 300<187.68 341.555> 900 102.132<900 1000.35>
LayerCount: 2
Fore
SplineSet
200 400 m 1xd8
 200 300 l 1
 245.106445312 264.171875 412.05859375 98.994140625 600 100 c 0
 768.154296875 100.899414062 800 128.34375 800 200 c 0xd8
 800 350 803.334960938 349.681640625 450 450 c 0
 244.88671875 508.235351562 100 542.356445312 100 700 c 0
 100 843.3125 310 1000 600 1000 c 0
 820 1000 900 900 900 900 c 1
 900 1000.35253906 l 1
 1002.13183594 1000.35253906 l 1
 1002.13183594 713.727539062 l 1
 950 714.404296875 l 1
 912.411132812 750.232421875 820 900 600 900 c 0
 420 900 400 855.426757812 400 800 c 0xe4
 400 640 402.30859375 641.465820312 710 560 c 0
 962.203125 493.225585938 1100 450 1100 300 c 0
 1100 150 860 -10 600 -10 c 0
 400 -10 200 180 200 180 c 1
 200 0 l 1
 100 0 l 1
 100 400 l 1
 200 400 l 1xd8
EndSplineSet
EndChar

StartChar: u
Encoding: 117 117 21
Width: 1700
VWidth: 1200
Flags: W
HStem: 0 100<690.532 989.95 1400 1600> 900 100<100 300 900 1100>
VStem: 300 300<284.258 900> 1100 300<200 900>
LayerCount: 2
Fore
SplineSet
100 1000 m 1
 600 1000 l 1
 600 500 l 2
 600 234.333007812 650 100 800 100 c 0
 950 100 1100 200 1100 200 c 1
 1100 900 l 1
 900 900 l 1
 900 1000 l 1
 1400 1000 l 1
 1400 100 l 1
 1600 100 l 1
 1600 0 l 1
 1300 0 l 1
 1100 100 l 1
 1100 100 949.997070312 -0.880859375 800 0 c 0
 493.553710938 1.798828125 300 200 300 500 c 2
 300 900 l 1
 100 900 l 1
 100 1000 l 1
EndSplineSet
EndChar

StartChar: v
Encoding: 118 118 22
Width: 1600
VWidth: 1200
Flags: W
HStem: 0 21G<740 910> 900 100<100 300 600 700 1100 1200 1350 1500>
LayerCount: 2
Fore
SplineSet
100 1000 m 1
 700 1000 l 1
 700 900 l 1
 600 900 l 1
 900 300 l 1
 1200 900 l 1
 1100 900 l 1
 1100 1000 l 1
 1500 1000 l 1
 1500 900 l 1
 1350 900 l 1
 900 0 l 1
 750 0 l 1
 300 900 l 1
 100 900 l 1
 100 1000 l 1
EndSplineSet
EndChar

StartChar: w
Encoding: 119 119 23
Width: 2400
VWidth: 1200
Flags: W
HStem: 0 21G<640 810 1490 1660> 900 100<100 200 500 700 1000 1100 1350 1400 1700 1950 2100 2300>
LayerCount: 2
Fore
SplineSet
100 1000 m 1
 700 1000 l 1
 700 900 l 1
 500 900 l 1
 800 300 l 1
 1100 900 l 1
 1000 900 l 1
 1000 1000 l 1
 1400 1000 l 1
 1400 900 l 1
 1350 900 l 1
 1650 300 l 1
 1950 900 l 1
 1700 900 l 1
 1700 1000 l 1
 2300 1000 l 1
 2300 900 l 1
 2100 900 l 1
 1650 0 l 1
 1500 0 l 1
 1150 700 l 1
 800 0 l 1
 650 0 l 1
 200 900 l 1
 100 900 l 1
 100 1000 l 1
EndSplineSet
EndChar

StartChar: x
Encoding: 120 120 24
Width: 1600
VWidth: 1200
Flags: W
HStem: 0 100<100 250 350 600 900 1050 1350 1500> 900 100<100 250 550 700 1000 1150 1250 1400>
LayerCount: 2
Fore
SplineSet
100 1000 m 1
 700 1000 l 1
 700 900 l 1
 550 900 l 1
 850 600 l 1
 1150 900 l 1
 1000 900 l 1
 1000 1000 l 1
 1400 1000 l 1
 1400 900 l 1
 1250 900 l 1
 900 550 l 1
 1350 100 l 1
 1500 100 l 1
 1500 0 l 1
 900 0 l 1
 900 100 l 1
 1050 100 l 1
 700 450 l 1
 350 100 l 1
 600 100 l 1
 600 0 l 1
 100 0 l 1
 100 100 l 1
 250 100 l 1
 650 500 l 1
 250 900 l 1
 100 900 l 1
 100 1000 l 1
EndSplineSet
EndChar

StartChar: z
Encoding: 122 122 25
Width: 1400
VWidth: 1200
Flags: W
HStem: 0 100<450 1071.88> 900 100<428.125 950>
LayerCount: 2
Fore
SplineSet
100 50 m 1
 950 900 l 1
 550 900 l 2
 450 900 350 800 250 700 c 1
 200 700 l 1
 200 1000 l 1
 1300 1000 l 1
 1300 950 l 1
 450 100 l 1
 950 100 l 2
 1050 100 1150 200 1250 300 c 1
 1300 300 l 1
 1300 0 l 1
 100 0 l 1
 100 50 l 1
EndSplineSet
EndChar

StartChar: grave
Encoding: 96 96 30
Width: 700
VWidth: 1200
Flags: W
HStem: 1300 300
VStem: 100 500
LayerCount: 2
Fore
SplineSet
100 1600 m 1
 350 1600 l 1
 600 1350 l 1
 600 1300 l 1
 450 1300 l 1
 100 1550 l 1
 100 1600 l 1
EndSplineSet
EndChar

StartChar: asciicircum
Encoding: 94 94 34
Width: 1100
VWidth: 1200
Flags: W
HStem: 1200 400
LayerCount: 2
Fore
SplineSet
100 1250 m 1
 450 1600 l 1
 650 1600 l 1
 1000 1250 l 1
 1000 1200 l 1
 850 1200 l 1
 550 1500 l 1
 250 1200 l 1
 100 1200 l 1
 100 1250 l 1
EndSplineSet
EndChar

StartChar: dotlessi
Encoding: 305 305 40
Width: 900
VWidth: 1200
Flags: W
HStem: 0 100<100 300 600 800> 900 100<100 300>
VStem: 300 300<100 900>
LayerCount: 2
Fore
SplineSet
600 1000 m 5
 600 100 l 5
 800 100 l 5
 800 0 l 5
 100 0 l 5
 100 100 l 5
 300 100 l 5
 300 900 l 5
 100 900 l 5
 100 1000 l 5
 600 1000 l 5
EndSplineSet
EndChar

StartChar: A
Encoding: 65 65 44
Width: 2200
VWidth: 1200
Flags: W
HStem: 0 100<100 350 500 800 1300 1550 1900 2100> 500 100<750 1300> 1380 20G<990 1260>
LayerCount: 2
Fore
SplineSet
750 600 m 1
 1300 600 l 1
 1025 1150 l 1
 750 600 l 1
1000 1400 m 1
 1250 1400 l 1
 1900 100 l 1
 2100 100 l 1
 2100 0 l 1
 1300 0 l 1
 1300 100 l 1
 1550 100 l 1
 1350 500 l 1
 700 500 l 1
 500 100 l 1
 800 100 l 1
 800 0 l 1
 100 0 l 1
 100 100 l 1
 350 100 l 1
 1000 1400 l 1
EndSplineSet
EndChar

StartChar: B
Encoding: 66 66 45
Width: 1700
VWidth: 1200
Flags: W
HStem: 0 100<100 300 600 1201.76> 700 100<600 1105.6> 1300 100<100 300 600 1104.77>
VStem: 300 300<100 700 800 1300> 1200 300<905.233 1176.92> 1300 300<228.911 573.317>
LayerCount: 2
Fore
SplineSet
100 1400 m 1xf4
 1000 1400 l 2
 1250 1400 1500 1230 1500 1040 c 0xf8
 1500 850 1270 750 1270 750 c 1
 1270 750 1600 720 1600 400 c 0
 1600 80 1249.77441406 0 1100 0 c 2
 100 0 l 1
 100 100 l 1
 300 100 l 1
 300 1300 l 1
 100 1300 l 1
 100 1400 l 1xf4
600 1300 m 1
 600 800 l 1
 1000 800 l 2
 1120 800 1200 940 1200 1050 c 0
 1200 1160 1120 1300 1000 1300 c 2
 600 1300 l 1
600 700 m 1
 600 100 l 1
 1100 100 l 2
 1220 100 1300 230 1300 400 c 0xf4
 1300 570 1220 700 1100 700 c 2
 600 700 l 1
EndSplineSet
EndChar

StartChar: P
Encoding: 80 80 46
Width: 1600
VWidth: 1200
Flags: W
HStem: 0 100<100 300 600 900> 600 100<600 1103.79> 1300 100<100 300 600 1103.79>
VStem: 300 300<100 600 700 1300> 1200 300<828.914 1163.44>
LayerCount: 2
Fore
SplineSet
1000 600 m 2
 600 600 l 1
 600 100 l 1
 900 100 l 1
 900 0 l 1
 100 0 l 1
 100 100 l 1
 300 100 l 1
 300 1300 l 1
 100 1300 l 1
 100 1400 l 1
 1000 1400 l 2
 1250 1400 1504.49804688 1249.265625 1500 990 c 0
 1495.50195312 730.734375 1250 600 1000 600 c 2
600 1300 m 1
 600 700 l 1
 1000 700 l 2
 1120 700 1200 840 1200 1000 c 0
 1200 1160 1120 1300 1000 1300 c 2
 600 1300 l 1
EndSplineSet
EndChar

StartChar: O
Encoding: 79 79 47
Width: 1800
VWidth: 1200
Flags: W
HStem: -10 110<733.277 1066.72> 1300 110<736.533 1063.47>
VStem: 100 400<490.753 909.169> 1300 400<490.753 909.324>
LayerCount: 2
Fore
SplineSet
900 1410 m 0
 1349.625 1411.57421875 1700 1050 1700 700 c 0
 1700 350 1350 -10 900 -10 c 0
 450 -10 100 350 100 700 c 0
 100 1050 450.375 1408.42578125 900 1410 c 0
900 1300 m 0
 600 1300 500 1000 500 700 c 0
 500 400 598.3515625 100 900 100 c 0
 1201.6484375 100 1300 400 1300 700 c 0
 1300 1000 1200 1300 900 1300 c 0
EndSplineSet
EndChar

StartChar: T
Encoding: 84 84 48
Width: 1500
VWidth: 1200
Flags: W
HStem: 0 100<300 600 900 1200> 1000 21G<100 250 1250 1400> 1300 100<466.406 600 900 1033.59>
VStem: 600 300<100 1300>
LayerCount: 2
Fore
SplineSet
100 1400 m 1
 1400 1400 l 1
 1400 1000 l 1
 1350 1000 l 1
 1150 1200 1000 1300 900 1300 c 1
 900 100 l 1
 1200 100 l 1
 1200 0 l 1
 300 0 l 1
 300 100 l 1
 600 100 l 1
 600 1300 l 1
 500 1300 350 1200 150 1000 c 1
 100 1000 l 1
 100 1400 l 1
EndSplineSet
EndChar

StartChar: D
Encoding: 68 68 49
Width: 1900
VWidth: 1200
Flags: W
HStem: 0 100<100 300 600 1156.75> 1300 100<100 300 600 1156.75>
VStem: 300 300<100 1300> 1400 400<476.832 923.168>
LayerCount: 2
Fore
SplineSet
100 0 m 1
 100 100 l 1
 300 100 l 1
 300 1300 l 1
 100 1300 l 1
 100 1400 l 1
 1000 1400 l 2
 1500 1400 1800 1050 1800 700 c 0
 1800 350 1500 0 1000 0 c 2
 100 0 l 1
1000 100 m 2
 1301.64941406 100 1400 400 1400 700 c 0
 1400 1000 1300 1300 1000 1300 c 2
 600 1300 l 1
 600 100 l 1
 1000 100 l 2
EndSplineSet
EndChar

StartChar: C
Encoding: 67 67 50
Width: 1600
VWidth: 1200
Flags: W
HStem: -10 110<745.285 1203.21> 1000 21G<1375 1500> 1300 100<732.04 1147.42>
VStem: 100 400<485.7 914.51> 1400 100<1220 1400>
LayerCount: 2
Fore
SplineSet
1500 230 m 1
 1450 170 1300 -10 900 -10 c 0
 600 -10 100 250 100 700 c 0
 100 1150 600 1410 900 1410 c 0
 1200 1410 1400 1220 1400 1220 c 1
 1400 1400 l 1
 1500 1400 l 1
 1500 1000 l 1
 1450 1000 l 1
 1300 1150 1202.00878906 1297.30175781 950 1300 c 0
 600.020507812 1303.74804688 500 1050 500 700 c 0
 500 350 600 100 950 100 c 0
 1300 100 1450 280 1500 330 c 1
 1500 230 l 1
EndSplineSet
EndChar

StartChar: E
Encoding: 69 69 51
Width: 1600
VWidth: 1200
Flags: W
HStem: 0 100<100 300 600 1133.59> 700 100<600 871.875> 980 20G<1000 1100> 1000 21G<1350 1500> 1300 100<100 300 600 1133.59>
VStem: 300 300<100 700 800 1300>
LayerCount: 2
Fore
SplineSet
1100 1000 m 1xec
 1100 500 l 1
 1050 500 l 1
 950 600 850 700 750 700 c 2
 600 700 l 1
 600 100 l 1
 1000 100 l 2
 1100 100 1250 200 1450 400 c 1
 1500 400 l 1
 1500 0 l 1
 100 0 l 1
 100 100 l 1
 300 100 l 1
 300 1300 l 1
 100 1300 l 1
 100 1400 l 1
 1500 1400 l 1
 1500 1000 l 1
 1450 1000 l 1xdc
 1250 1200 1100 1300 1000 1300 c 2
 600 1300 l 1
 600 800 l 1
 750 800 l 2
 850 800 950 900 1050 1000 c 1
 1100 1000 l 1xec
EndSplineSet
EndChar

StartChar: F
Encoding: 70 70 52
Width: 1600
VWidth: 1200
Flags: W
HStem: 0 100<100 300 600 900> 700 100<600 871.875> 980 20G<1000 1100> 1000 21G<1350 1500> 1300 100<100 300 600 1133.59>
VStem: 300 300<100 700 800 1300>
LayerCount: 2
Fore
SplineSet
1100 1000 m 1xec
 1100 500 l 1
 1050 500 l 1
 950 600 850 700 750 700 c 2
 600 700 l 1
 600 100 l 1
 900 100 l 1
 900 0 l 1
 100 0 l 1
 100 100 l 1
 300 100 l 1
 300 1300 l 1
 100 1300 l 1
 100 1400 l 1
 1500 1400 l 1
 1500 1000 l 1
 1450 1000 l 1xdc
 1250 1200 1100 1300 1000 1300 c 2
 600 1300 l 1
 600 800 l 1
 750 800 l 2
 850 800 950 900 1050 1000 c 1
 1100 1000 l 1xec
EndSplineSet
EndChar

StartChar: G
Encoding: 71 71 53
Width: 2000
VWidth: 1200
Flags: W
HStem: -10 110<745.285 1178.94> 0 21G<1540 1600> 500 100<1000 1300 1600 1900> 1000 21G<1475 1600> 1300 100<732.039 1212.87>
VStem: 100 400<485.7 914.503> 1300 300<172.556 500> 1500 100<1220 1400>
LayerCount: 2
Fore
SplineSet
900 1410 m 0xbe
 1300 1410 1500 1220 1500 1220 c 1
 1500 1400 l 1
 1600 1400 l 1
 1600 1000 l 1xbd
 1550 1000 l 1
 1400 1150 1297.36132812 1296.40136719 950 1300 c 0
 600.01953125 1303.625 500 1050 500 700 c 0
 500 350 600 100 950 100 c 0
 1170 100 1270.45898438 181.272460938 1300 200 c 1
 1300 500 l 1
 1000 500 l 1
 1000 600 l 1
 1900 600 l 1
 1900 500 l 1
 1600 500 l 1xbe
 1600 0 l 1x7d
 1300 100 l 1
 1270 80 1170 -10 900 -10 c 0
 600 -10 100 250.000976562 100 700 c 0
 100 1150 600 1410 900 1410 c 0xbe
EndSplineSet
EndChar

StartChar: H
Encoding: 72 72 54
Width: 1900
VWidth: 1200
Flags: W
HStem: 0 100<100 300 600 800 1100 1300 1600 1800> 700 100<600 1300> 1300 100<100 300 600 800 1100 1300 1600 1800>
VStem: 300 300<100 700 800 1300> 1300 300<100 700 800 1300>
LayerCount: 2
Fore
SplineSet
100 1400 m 1
 800 1400 l 1
 800 1300 l 1
 600 1300 l 1
 600 800 l 1
 1300 800 l 1
 1300 1300 l 1
 1100 1300 l 1
 1100 1400 l 1
 1800 1400 l 1
 1800 1300 l 1
 1600 1300 l 1
 1600 100 l 1
 1800 100 l 1
 1800 0 l 1
 1100 0 l 1
 1100 100 l 1
 1300 100 l 1
 1300 700 l 1
 600 700 l 1
 600 100 l 1
 800 100 l 1
 800 0 l 1
 100 0 l 1
 100 100 l 1
 300 100 l 1
 300 1300 l 1
 100 1300 l 1
 100 1400 l 1
EndSplineSet
EndChar

StartChar: I
Encoding: 73 73 55
Width: 1100
VWidth: 1200
Flags: W
HStem: 0 100<100 400 700 1000> 1300 100<100 400 700 1000>
VStem: 400 300<100 1300>
LayerCount: 2
Fore
SplineSet
100 1400 m 1
 1000 1400 l 1
 1000 1300 l 1
 700 1300 l 1
 700 100 l 1
 1000 100 l 1
 1000 0 l 1
 100 0 l 1
 100 100 l 1
 400 100 l 1
 400 1300 l 1
 100 1300 l 1
 100 1400 l 1
EndSplineSet
EndChar

StartChar: J
Encoding: 74 74 56
Width: 1500
VWidth: 1200
Flags: W
HStem: -10 110<312.266 721.5> 280 240<292.477 488.024> 1300 100<500 800 1100 1400>
VStem: 800 300<221.743 1300>
LayerCount: 2
Fore
SplineSet
1100 350 m 2
 1100 140 800 -10 550 -10 c 0
 300 -10 97.22265625 110.020507812 100 300 c 0
 101.908203125 430.546875 270 520 350 520 c 0
 450 520 520 480 520 400 c 0
 520 350 475 280 400 280 c 0
 325 280 290 310 275 350 c 1
 210 280 180 100 550 100 c 0
 780 100 800 225 800 350 c 2
 800 1300 l 1
 500 1300 l 1
 500 1400 l 1
 1400 1400 l 1
 1400 1300 l 1
 1100 1300 l 1
 1100 350 l 2
EndSplineSet
EndChar

StartChar: K
Encoding: 75 75 57
Width: 2000
VWidth: 1200
Flags: W
HStem: 0 100<100 300 600 800 1100 1350 1750 1900> 1300 100<100 300 600 800 1200 1350 1550 1700>
VStem: 300 300<100 350 550 1300>
LayerCount: 2
Fore
SplineSet
100 1400 m 1
 800 1400 l 1
 800 1300 l 1
 600 1300 l 1
 600 550 l 1
 1350 1300 l 1
 1200 1300 l 1
 1200 1400 l 1
 1700 1400 l 1
 1700 1300 l 1
 1550 1300 l 1
 1050 800 l 1
 1750 100 l 1
 1900 100 l 1
 1900 0 l 1
 1100 0 l 1
 1100 100 l 1
 1350 100 l 1
 850 600 l 1
 600 350 l 1
 600 100 l 1
 800 100 l 1
 800 0 l 1
 100 0 l 1
 100 100 l 1
 300 100 l 1
 300 1300 l 1
 100 1300 l 1
 100 1400 l 1
EndSplineSet
EndChar

StartChar: L
Encoding: 76 76 58
Width: 1600
VWidth: 1200
Flags: W
HStem: 0 100<100 300 600 1133.59> 1300 100<100 300 600 900>
VStem: 300 300<100 1300>
LayerCount: 2
Fore
SplineSet
600 100 m 1
 1000 100 l 2
 1100 100 1250 200 1450 400 c 1
 1500 400 l 1
 1500 0 l 1
 100 0 l 1
 100 100 l 1
 300 100 l 1
 300 1300 l 1
 100 1300 l 1
 100 1400 l 1
 900 1400 l 1
 900 1300 l 1
 600 1300 l 1
 600 100 l 1
EndSplineSet
EndChar

StartChar: M
Encoding: 77 77 59
Width: 2100
VWidth: 1200
Flags: W
HStem: 0 100<100 300 500 700 1300 1500 1800 2000> 1300 100<100 300 1800 2000>
VStem: 300 200<100 1000> 1500 300<100 1000>
LayerCount: 2
Fore
SplineSet
100 1400 m 1
 600 1400 l 1
 1075 450 l 1
 1550 1400 l 1
 2000 1400 l 1
 2000 1300 l 1
 1800 1300 l 1
 1800 100 l 1
 2000 100 l 1
 2000 0 l 1
 1300 0 l 1
 1300 100 l 1
 1500 100 l 1
 1500 1000 l 1
 1100 200 l 1
 900 200 l 1
 500 1000 l 1
 500 100 l 1
 700 100 l 1
 700 0 l 1
 100 0 l 1
 100 100 l 1
 300 100 l 1
 300 1300 l 1
 100 1300 l 1
 100 1400 l 1
EndSplineSet
EndChar

StartChar: N
Encoding: 78 78 60
Width: 2000
VWidth: 1200
Flags: W
HStem: 0 100<100 300 500 700> 1300 100<100 300 1300 1500 1700 1900>
VStem: 300 200<100 1050> 1500 200<450 1300>
LayerCount: 2
Fore
SplineSet
100 1400 m 1
 550 1400 l 1
 1500 450 l 1
 1500 1300 l 1
 1300 1300 l 1
 1300 1400 l 1
 1900 1400 l 1
 1900 1300 l 1
 1700 1300 l 1
 1700 0 l 1
 1550 0 l 1
 500 1050 l 1
 500 100 l 1
 700 100 l 1
 700 0 l 1
 100 0 l 1
 100 100 l 1
 300 100 l 1
 300 1300 l 1
 100 1300 l 1
 100 1400 l 1
EndSplineSet
EndChar

StartChar: Q
Encoding: 81 81 61
Width: 1800
VWidth: 1200
Flags: W
HStem: -200 100<1255.84 1572.72> -10 110<731.149 998.417> 300 100<720.647 970.705> 1300 110<737.567 1062.43>
VStem: 100 400<485.919 909.024> 1300 400<486.193 909.468>
LayerCount: 2
Fore
SplineSet
900 1410 m 0
 1346.02636719 1414.49804688 1700 1049.99902344 1700 700 c 0
 1700 433.985351562 1497.71484375 162.3671875 1203.11132812 47.248046875 c 1
 1213.95214844 -37.3310546875 1258.23535156 -100 1400 -100 c 0
 1595.36035156 -100 1700 30 1700 30 c 1
 1700 -70 l 1
 1700 -70 1600 -200 1350 -200 c 0
 1083.29101562 -200 1019.96386719 -110.251953125 1004.859375 -3.1640625 c 1
 970.587890625 -7.4990234375 935.651367188 -10 900 -10 c 0
 450 -10 100 350.000976562 100 700 c 0
 100 1049.99902344 453.973632812 1405.50195312 900 1410 c 0
900 1300 m 0
 600.000976562 1300 500 999.999023438 500 700 c 0
 500 531.463867188 531.05078125 362.939453125 611.73828125 247.59375 c 1
 641.252929688 290.1875 728.767578125 400 850 400 c 0
 998.091796875 400 1127.93945312 363.524414062 1178.0234375 233.80078125 c 1
 1266.2734375 349.2421875 1300 524.568359375 1300 700 c 0
 1300 999.999023438 1199.99902344 1300 900 1300 c 0
850 300 m 0
 765.205078125 300 696.426757812 245.6875 652.62109375 198.45703125 c 1
 712.991210938 137.247070312 793.866210938 100 900 100 c 0
 936.16796875 100 969.3359375 104.418945312 999.83984375 112.52734375 c 1
 998.19921875 261.819335938 966.715820312 300 850 300 c 0
EndSplineSet
EndChar

StartChar: R
Encoding: 82 82 62
Width: 1800
VWidth: 1200
Flags: W
HStem: 0 100<100 300 600 900 1542.81 1700> 600 100<600 1103.79> 1300 100<100 300 600 1103.79>
VStem: 300 300<100 600 700 1300> 1200 300<141.864 481.086 825.507 1163.44>
LayerCount: 2
Fore
SplineSet
100 1400 m 1
 1000 1400 l 2
 1250 1400 1504.49804688 1249.26464844 1500 990 c 0
 1497.11816406 823.891601562 1395.1171875 710.828125 1256.578125 650.818359375 c 1
 1383.76953125 598.749023438 1500 495.912109375 1500 300 c 0
 1500 100 1600 100 1700 100 c 1
 1700 0 l 1
 1400 0 l 2
 1310 0 1198.84667969 100.00390625 1200 300 c 0
 1200.89941406 455.921875 1150 600 1000 600 c 2
 600 600 l 1
 600 100 l 1
 900 100 l 1
 900 0 l 1
 100 0 l 1
 100 100 l 1
 300 100 l 1
 300 1300 l 1
 100 1300 l 1
 100 1400 l 1
600 1300 m 1
 600 700 l 1
 1000 700 l 2
 1120 700 1200 840 1200 1000 c 0
 1200 1160 1120 1300 1000 1300 c 2
 600 1300 l 1
EndSplineSet
EndChar

StartChar: S
Encoding: 83 83 63
Width: 1500
VWidth: 1200
Flags: W
HStem: -10 110<537.866 999.214> 1000 21G<1225 1300> 1300 110<392.963 945.187>
VStem: 100 200<951.32 1193.3> 100 100<0 200 316.911 500> 1200 200<294.627 575.206> 1200 100<1250 1400>
LayerCount: 2
Fore
SplineSet
200 500 m 1xec
 200 350 l 1
 260 300 500 100 750 100 c 0
 1000 100 1200 220 1200 320 c 0xec
 1200 460 1030 560 560 700 c 0
 287.161132812 781.271484375 100 830 100 1050 c 0
 100 1250 320 1410 700 1410 c 0
 1020 1410 1200 1250 1200 1250 c 1
 1200 1400 l 1
 1300 1400 l 1
 1300 1000 l 1
 1250 1000 l 1
 1200 1050 1090 1300 700 1300 c 0
 400 1300 300 1227.3515625 300 1150 c 0xf2
 300 1070 440.029296875 979.793945312 750 900 c 0
 1087.0390625 813.237304688 1400 720 1400 450 c 0
 1400 210 1099.98828125 -7.0927734375 750 -10 c 0
 479.310546875 -12.2490234375 200 200 200 200 c 1
 200 0 l 1
 100 0 l 1
 100 500 l 1
 200 500 l 1xec
EndSplineSet
EndChar

StartChar: U
Encoding: 85 85 64
Width: 1900
VWidth: 1200
Flags: W
HStem: 0 100<741.602 1250.07> 1300 100<100 300 600 800 1200 1400 1600 1800>
VStem: 300 300<218.662 1300> 1400 200<219.143 1300>
LayerCount: 2
Fore
SplineSet
100 1400 m 1
 800 1400 l 1
 800 1300 l 1
 600 1300 l 1
 600 350 l 2
 600 210 700 100 1000 100 c 0
 1300 100 1400 210 1400 350 c 2
 1400 1300 l 1
 1200 1300 l 1
 1200 1400 l 1
 1800 1400 l 1
 1800 1300 l 1
 1600 1300 l 1
 1600 350 l 2
 1600 150 1350.88574219 1.908203125 950 0 c 0
 550.004882812 -1.904296875 300 150 300 350 c 2
 300 1300 l 1
 100 1300 l 1
 100 1400 l 1
EndSplineSet
EndChar

StartChar: V
Encoding: 86 86 65
Width: 2000
VWidth: 1200
Flags: W
HStem: 0 21G<940 1060> 1300 100<100 300 650 900 1300 1550 1700 1900>
LayerCount: 2
Fore
SplineSet
100 1400 m 1
 900 1400 l 1
 900 1300 l 1
 650 1300 l 1
 1100 400 l 1
 1550 1300 l 1
 1300 1300 l 1
 1300 1400 l 1
 1900 1400 l 1
 1900 1300 l 1
 1700 1300 l 1
 1050 0 l 1
 950 0 l 1
 300 1300 l 1
 100 1300 l 1
 100 1400 l 1
EndSplineSet
EndChar

StartChar: W
Encoding: 87 87 66
Width: 2700
VWidth: 1200
Flags: W
HStem: 0 21G<890 1060 1690 1860> 1300 100<100 250 600 700 900 1050 1400 1600 2100 2350 2500 2600>
LayerCount: 2
Fore
SplineSet
100 1400 m 1
 700 1400 l 1
 700 1300 l 1
 600 1300 l 1
 1075 350 l 1
 1300 800 l 1
 1050 1300 l 1
 900 1300 l 1
 900 1400 l 1
 1600 1400 l 1
 1600 1300 l 1
 1400 1300 l 1
 1875 350 l 1
 2350 1300 l 1
 2100 1300 l 1
 2100 1400 l 1
 2600 1400 l 1
 2600 1300 l 1
 2500 1300 l 1
 1850 0 l 1
 1700 0 l 1
 1375 650 l 1
 1050 0 l 1
 900 0 l 1
 250 1300 l 1
 100 1300 l 1
 100 1400 l 1
EndSplineSet
EndChar

StartChar: X
Encoding: 88 88 67
Width: 1900
VWidth: 1200
Flags: W
HStem: 0 100<100 250 450 700 1200 1350 1750 1800> 1300 100<100 250 650 800 1300 1450 1650 1800>
LayerCount: 2
Fore
SplineSet
100 1400 m 1
 800 1400 l 1
 800 1300 l 1
 650 1300 l 1
 1050 900 l 1
 1450 1300 l 1
 1300 1300 l 1
 1300 1400 l 1
 1800 1400 l 1
 1800 1300 l 1
 1650 1300 l 1
 1100 750 l 1
 1750 100 l 1
 1800 100 l 1
 1800 0 l 1
 1200 0 l 1
 1200 100 l 1
 1350 100 l 1
 900 550 l 1
 450 100 l 1
 700 100 l 1
 700 0 l 1
 100 0 l 1
 100 100 l 1
 250 100 l 1
 850 700 l 1
 250 1300 l 1
 100 1300 l 1
 100 1400 l 1
EndSplineSet
EndChar

StartChar: Y
Encoding: 89 89 68
Width: 1600
VWidth: 1200
Flags: W
HStem: 0 100<400 600 900 1100> 1300 100<100 250 550 700 1000 1150 1300 1500>
VStem: 600 300<100 500>
LayerCount: 2
Fore
SplineSet
100 1400 m 1
 700 1400 l 1
 700 1300 l 1
 550 1300 l 1
 850 700 l 1
 1150 1300 l 1
 1000 1300 l 1
 1000 1400 l 1
 1500 1400 l 1
 1500 1300 l 1
 1300 1300 l 1
 900 500 l 1
 900 100 l 1
 1100 100 l 1
 1100 0 l 1
 400 0 l 1
 400 100 l 1
 600 100 l 1
 600 600 l 1
 250 1300 l 1
 100 1300 l 1
 100 1400 l 1
EndSplineSet
EndChar

StartChar: Z
Encoding: 90 90 69
Width: 1600
VWidth: 1200
InSpiro: 1
Flags: W
HStem: 0 100<350 1133.59> 1000 21G<100 250> 1300 100<466.406 1150>
LayerCount: 2
Fore
SplineSet
100 1400 m 1
 1500 1400 l 1
 1500 1250 l 1
 350 100 l 1
 1000 100 l 2
 1100 100 1250 200 1450 400 c 1
 1500 400 l 1
 1500 0 l 1
 100 0 l 1
 100 250 l 1
 1150 1300 l 1
 600 1300 l 2
 500 1300 350 1200 150 1000 c 1
 100 1000 l 1
 100 1400 l 1
  Spiro
    100 1400 v
    1500 1400 v
    1500 1250 v
    350 100 v
    1000 100 ]
    1187.5 175 o
    1450 400 v
    1500 400 v
    1500 0 v
    100 0 v
    100 250 v
    1150 1300 v
    600 1300 ]
    412.5 1225 o
    150 1000 v
    100 1000 v
    0 0 z
  EndSpiro
EndSplineSet
EndChar

StartChar: exclam
Encoding: 33 33 70
Width: 530
VWidth: 1200
Flags: W
HStem: -10 220<109.714 389.673> 1380 20G<200 300>
VStem: 70 360<28.3186 168.867> 100 300<619.034 1363.54>
LayerCount: 2
Fore
SplineSet
250 1400 m 0xd0
 350 1400 400 1350 400 1250 c 0
 400 700 300 300 300 300 c 1
 200 300 l 1
 200 300 101.798828125 702.548828125 100 1250 c 0
 99.7041015625 1339.99902344 150 1400 250 1400 c 0xd0
EndSplineSet
Refer: 83 46 N 1 0 0 1 0 0 2
EndChar

StartChar: dollar
Encoding: 36 36 72
Width: 1500
VWidth: 1200
Flags: W
HStem: -7.9707 109.674<800 1001.41> 0 21G<100 200> 8.28516 113.938<488.302 600> 1000 21G<1227.28 1300> 1296.89 108.729<387.708 600 800 952.581>
VStem: 100 200<951.902 1193.49> 100 100<0 200 315.477 500> 600 200<-200 -5.37597 122.223 622.594 943.721 1294.04 1401.46 1600> 1200 200<294.168 567.684> 1200 100<1250 1400>
LayerCount: 2
Fore
SplineSet
600 1600 m 1x3d
 800 1600 l 1
 800 1404.35742188 l 1
 1057.0546875 1376.50976562 1200 1250 1200 1250 c 1
 1200 1400 l 1
 1300 1400 l 1
 1300 1000 l 1x3d40
 1250 1000 l 1
 1204.56835938 1045.43164062 1109.54589844 1255.94335938 800 1294.0390625 c 1
 800 886.69921875 l 1
 1117.1640625 803.262695312 1400 706.466796875 1400 450 c 0
 1400 221.524414062 1128.06347656 13.958984375 800 -7.970703125 c 1x9980
 800 -200 l 1
 600 -200 l 1
 600 8.28515625 l 1x3980
 385.125 59.3740234375 200 200 200 200 c 1
 200 0 l 1
 100 0 l 1
 100 500 l 1
 200 500 l 1
 200 350 l 1x5b80
 247.77734375 310.185546875 409.791015625 175.54296875 600 122.22265625 c 1
 600 687.806640625 l 1
 586.637695312 691.874023438 573.881835938 695.865234375 560 700 c 0
 287.161132812 781.271484375 100 830 100 1050 c 0
 100 1231.65429688 281.975585938 1379.87597656 600 1405.61914062 c 1
 600 1600 l 1x3d
600 1296.890625 m 1
 377.439453125 1282.33105469 300 1218.0078125 300 1150 c 0
 300 1084.31347656 394.633789062 1011.75585938 600 943.720703125 c 1
 600 1296.890625 l 1
800 622.59375 m 1
 800 101.703125 l 1
 1026.11425781 116.256835938 1200 226.772460938 1200 320 c 0x9980
 1200 432.8828125 1089.19238281 519.78515625 800 622.59375 c 1
EndSplineSet
EndChar

StartChar: numbersign
Encoding: 35 35 73
Width: 1600
VWidth: 1200
Flags: W
HStem: 0 21G<110 250 600 760> 300 200<100 250 500 750 1000 1200> 900 200<400 550 800 1050 1300 1500> 1380 20G<790 950 1290 1450>
LayerCount: 2
Fore
SplineSet
800 1400 m 1
 950 1400 l 1
 800 1100 l 1
 1150 1100 l 1
 1300 1400 l 1
 1450 1400 l 1
 1300 1100 l 1
 1500 1100 l 1
 1500 900 l 1
 1200 900 l 1
 1000 500 l 1
 1200 500 l 1
 1200 300 l 1
 900 300 l 1
 750 0 l 1
 600 0 l 1
 750 300 l 1
 400 300 l 1
 250 0 l 1
 100 0 l 1
 250 300 l 1
 100 300 l 1
 100 500 l 1
 350 500 l 1
 550 900 l 1
 400 900 l 1
 400 1100 l 1
 650 1100 l 1
 800 1400 l 1
700 900 m 1
 500 500 l 1
 850 500 l 1
 1050 900 l 1
 700 900 l 1
EndSplineSet
EndChar

StartChar: ampersand
Encoding: 38 38 75
Width: 2000
VWidth: 1200
Flags: W
HStem: 0 200<1407.03 1662.4> 0 100<623.49 1027.88> 700 100<1200 1450 1750 1900> 1300 100<688.754 914.708>
VStem: 100 400<216.985 469.683> 300 300<1002.5 1199.34> 1000 200<993.055 1212.66>
LayerCount: 2
Fore
SplineSet
750 1400 m 0x76
 1050 1400 1200 1250 1200 1100 c 0
 1200 984.25 1049.80957031 873.829101562 888.646484375 761.353515625 c 1
 1250 400 l 2
 1267.47363281 382.526367188 1283.16796875 365.258789062 1298.38867188 348.318359375 c 1
 1298.921875 348.853515625 1299.46679688 349.466796875 1300 350 c 2
 1550 600 l 1
 1450 700 l 1
 1200 700 l 1
 1200 800 l 1
 1900 800 l 1
 1900 700 l 1
 1750 700 l 1
 1346.16796875 296.16796875 l 1
 1399.37890625 240.788085938 1454.3671875 200 1550 200 c 0
 1700 200 1900 325 1900 325 c 1
 1900 225 l 1
 1900 225 1700 0 1500 0 c 0xb6
 1394.11425781 0 1274.37792969 56.1787109375 1170.14257812 123.77734375 c 1
 1085.85058594 56.8095703125 965.3046875 0 750 0 c 0
 350 0 100 150 100 350 c 0x7a
 100 536.741210938 296.32421875 646.997070312 505.484375 742.22265625 c 1
 410.826171875 829.052734375 300 921.021484375 300 1050 c 0
 300 1275 550 1400 750 1400 c 0x76
800 1300 m 0
 700 1300 600 1200 600 1100 c 0
 600 1022.33398438 690.400390625 944.66796875 777.6640625 867.001953125 c 1
 905.205078125 932.068359375 1000 1002.89746094 1000 1100 c 0
 1000 1200 900 1300 800 1300 c 0
658.162109375 591.837890625 m 1
 566.389648438 514.499023438 500 434.622070312 500 350 c 0
 500 200 600 100 850 100 c 0x7a
 959.2421875 100 1039.83398438 128.6484375 1104.30859375 169.244140625 c 1
 1040.01953125 216.489257812 985.470703125 264.530273438 950 300 c 2
 658.162109375 591.837890625 l 1
EndSplineSet
EndChar

StartChar: quotesingle
Encoding: 39 39 76
Width: 500
VWidth: 1200
Flags: W
HStem: 900 510<110 250>
VStem: 200 200<1085.49 1180>
LayerCount: 2
Fore
SplineSet
110 980 m 1
 110 980 200 1020 200 1180 c 1
 126.069335938 1183.59863281 80 1210 80 1290 c 0
 80 1370 154.873046875 1410 250 1410 c 0
 345.126953125 1410 400 1350 400 1200 c 0
 400 1070 200 900 110 900 c 1
 110 980 l 1
EndSplineSet
EndChar

StartChar: parenleft
Encoding: 40 40 77
Width: 1000
VWidth: 1200
Flags: W
HStem: -400 100<724.655 900> 1300 100<724.655 900>
VStem: 100 300<146.49 814.009>
LayerCount: 2
Fore
SplineSet
800 -400 m 2
 600 -400 100 -300 100 500 c 0
 100 1193.78417969 600 1400 800 1400 c 2
 900 1400 l 1
 900 1300 l 1
 700 1300 392.3671875 1146.79785156 400 500 c 0
 407.6328125 -146.797851562 700 -300 900 -300 c 1
 900 -400 l 1
 800 -400 l 2
EndSplineSet
EndChar

StartChar: parenright
Encoding: 41 41 78
Width: 1000
VWidth: 1200
Flags: W
HStem: -400 100<100 275.345> 1300 100<100 275.345>
VStem: 600 300<146.49 814.009>
LayerCount: 2
Fore
SplineSet
200 -400 m 6
 100 -400 l 5
 100 -300 l 5
 300 -300 592.3671875 -146.797851562 600 500 c 4
 607.6328125 1146.79785156 300 1300 100 1300 c 5
 100 1400 l 5
 200 1400 l 6
 400 1400 900 1193.78417969 900 500 c 4
 900 -300 400 -400 200 -400 c 6
EndSplineSet
EndChar

StartChar: asterisk
Encoding: 42 42 79
Width: 1200
VWidth: 1200
Flags: W
HStem: 1000 100<100 450 750 1100> 1380 20G<250 370 830 950>
LayerCount: 2
Fore
SplineSet
250 1400 m 1
 350 1400 l 1
 600 1150 l 1
 850 1400 l 1
 950 1400 l 1
 950 1300 l 1
 750 1100 l 1
 1100 1100 l 1
 1100 1000 l 1
 750 1000 l 1
 950 800 l 1
 950 700 l 1
 850 700 l 1
 600 950 l 1
 350 700 l 1
 250 700 l 1
 250 800 l 1
 450 1000 l 1
 100 1000 l 1
 100 1100 l 1
 450 1100 l 1
 250 1300 l 1
 250 1400 l 1
EndSplineSet
EndChar

StartChar: plus
Encoding: 43 43 80
Width: 1100
VWidth: 1200
Flags: W
HStem: 400 200<100 450 650 1000>
VStem: 450 200<50 400 600 950>
LayerCount: 2
Fore
SplineSet
450 950 m 1
 650 950 l 1
 650 600 l 1
 1000 600 l 1
 1000 400 l 1
 650 400 l 1
 650 50 l 1
 450 50 l 1
 450 400 l 1
 100 400 l 1
 100 600 l 1
 450 600 l 1
 450 950 l 1
EndSplineSet
EndChar

StartChar: comma
Encoding: 44 44 81
Width: 600
VWidth: 1200
Flags: W
HStem: -10 220<110.541 298.148>
VStem: 300 200<-114.508 -10>
LayerCount: 2
Fore
SplineSet
100 -220 m 1
 100 -220 300 -170 300 -10 c 1
 118.123046875 -10 70 40 70 100 c 0
 70 160 154.873046875 210 250 210 c 0
 345.126953125 210 500 150 500 0 c 0
 500 -130 300 -300 100 -300 c 1
 100 -220 l 1
EndSplineSet
EndChar

StartChar: hyphen
Encoding: 45 45 82
Width: 1100
VWidth: 1200
Flags: W
HStem: 400 200<100 1000>
LayerCount: 2
Fore
SplineSet
100 400 m 1
 100 600 l 1
 1000 600 l 1
 1000 400 l 1
 100 400 l 1
EndSplineSet
EndChar

StartChar: period
Encoding: 46 46 83
Width: 500
VWidth: 1200
Flags: W
HStem: -10 220<109.714 389.673>
VStem: 70 360<28.3186 168.867>
LayerCount: 2
Fore
SplineSet
70 100 m 0
 70 160 154.873046875 210 250 210 c 0
 345.126953125 210 430 158.095703125 430 100 c 0
 430 41.904296875 360 -10 250 -10 c 0
 140 -10 70 40 70 100 c 0
EndSplineSet
EndChar

StartChar: slash
Encoding: 47 47 84
Width: 1000
VWidth: 1200
Flags: W
HStem: 0 21G<100 260> 1380 20G<790 950>
LayerCount: 2
Fore
SplineSet
250 0 m 1
 100 0 l 1
 800 1400 l 1
 950 1400 l 1
 250 0 l 1
EndSplineSet
EndChar

StartChar: zero
Encoding: 48 48 85
Width: 1600
VWidth: 1200
Flags: W
HStem: -10 110<522.708 1077.29> 1300 110<524.379 1075.62>
VStem: 90 310<411.19 988.747> 1200 310<411.19 988.873>
LayerCount: 2
Fore
SplineSet
1200 1050 m 2
 1200 1250 1049.41503906 1300 800 1300 c 0
 550.584960938 1300 400 1250 400 1050 c 2
 400 350 l 2
 400 150 550 100 800 100 c 0
 1050 100 1200 150 1200 350 c 2
 1200 1050 l 2
800 1410 m 0
 1153.56640625 1410.63574219 1510 1250 1510 700 c 0
 1510 150 1150 -10 800 -10 c 0
 450 -10 90 150 90 700 c 0
 90 1250 446.43359375 1409.36425781 800 1410 c 0
EndSplineSet
EndChar

StartChar: one
Encoding: 49 49 86
Width: 1100
VWidth: 1200
Flags: W
HStem: 0 100<100 400 700 1000> 1100 100<100 318.994> 1380 20G<500 700>
VStem: 400 300<100 1100>
LayerCount: 2
Fore
SplineSet
1000 100 m 1
 1000 0 l 1
 100 0 l 1
 100 100 l 1
 400 100 l 1
 400 1100 l 1
 100 1100 l 1
 100 1200 l 1
 300 1200 450 1300 550 1400 c 1
 700 1400 l 1
 700 100 l 1
 1000 100 l 1
EndSplineSet
EndChar

StartChar: two
Encoding: 50 50 87
Width: 1400
VWidth: 1200
Flags: W
HStem: 0 200<250 1071.88> 875 250<295.022 474.956> 1300 110<431.755 886.262>
VStem: 100 175<1052.91 1174.04> 1000 310<922.279 1194.31>
LayerCount: 2
Fore
SplineSet
1250 400 m 1
 1300 400 l 1
 1300 0 l 1
 100 0 l 1
 100 250 l 1
 100 250 325 525 700 700 c 0
 902.62890625 794.560546875 1000 925 1000 1050 c 0
 1000 1175 929.999023438 1299.36328125 700 1300 c 0
 375.017578125 1300.89941406 275 1175 275 1050 c 1
 300 1100 325 1125 400 1125 c 0
 475 1125 525 1050 525 1000 c 0
 525 950 450 875 350 875 c 0
 250 875 100 947.826171875 100 1100 c 0
 100 1250 350 1410 700 1410 c 0
 1050 1410 1310 1280 1310 1050 c 0
 1310 850 1008.70214844 680.270507812 800 600 c 0
 475 475 250 200 250 200 c 1
 950 200 l 2
 1050 200 1150 300 1250 400 c 1
EndSplineSet
EndChar

StartChar: three
Encoding: 51 51 88
Width: 1500
VWidth: 1200
Flags: W
HStem: -10 110<430.777 966.015> 275 250<295.022 474.956> 700 100<600 867.065> 875 250<295.022 474.956> 1300 110<428.084 887.102>
VStem: 100 175<222.633 347.093 1052.91 1177.37> 1000 310<938.337 1183.26> 1100 300<303.473 525.366>
LayerCount: 2
Fore
SplineSet
700 1410 m 0xfe
 1050 1410 1310 1250 1310 1050 c 0xfe
 1310 940.483398438 1185.90722656 832.104492188 996.68359375 765.6171875 c 1
 1215.73242188 719.247070312 1400 622.375 1400 450 c 0
 1400 225 1100 -10 700 -10 c 0
 350 -10 100 150 100 300 c 0
 100 452.173828125 250 525 350 525 c 0
 450 525 525 450 525 400 c 0
 525 350 475 275 400 275 c 0
 325 275 300 300 275 350 c 1
 275 225 372.319335938 100 700 100 c 0
 975 100 1100 175 1100 350 c 2
 1100 425 l 2xfd
 1100 525 950 700 600 700 c 1
 600 800 l 1
 993.333007812 804.60546875 1000 925 1000 1050 c 0
 1000 1175 925 1300 700 1300 c 0
 370 1300 275 1175 275 1050 c 1
 300 1100 325 1125 400 1125 c 0
 475 1125 525 1050 525 1000 c 0
 525 950 450 875 350 875 c 0
 250 875 100 947.826171875 100 1100 c 0
 100 1250 340 1410 700 1410 c 0xfe
EndSplineSet
EndChar

StartChar: four
Encoding: 52 52 89
Width: 1600
VWidth: 1200
Flags: W
HStem: 0 100<600 900 1200 1400> 400 100<250 900 1200 1500> 1380 20G<1030 1200>
VStem: 900 300<100 400 500 1150>
LayerCount: 2
Fore
SplineSet
900 500 m 5
 900 1150 l 5
 250 500 l 5
 900 500 l 5
1400 0 m 5
 600 0 l 5
 600 100 l 5
 900 100 l 5
 900 400 l 5
 100 400 l 5
 100 450 l 5
 1050 1400 l 5
 1200 1400 l 5
 1200 500 l 5
 1500 500 l 5
 1500 400 l 5
 1200 400 l 5
 1200 100 l 5
 1400 100 l 5
 1400 0 l 5
EndSplineSet
EndChar

StartChar: five
Encoding: 53 53 90
Width: 1390
VWidth: 1200
Flags: W
HStem: -10 110<430.777 932.623> 275 250<295.022 474.956> 800 100<462.654 871.451> 1200 200<300 1050>
VStem: 100 175<222.633 347.093> 200 100<775 1200> 1000 300<275.198 604.572>
LayerCount: 2
Fore
SplineSet
1000 550 m 2xfa
 1000 650 953.567382812 800 650 800 c 0
 440 800 300 650 200 550 c 1
 200 1400 l 1
 1200 1400 l 1
 1200 1350 l 1
 1050 1200 l 1
 300 1200 l 1
 300 775 l 1xf6
 359.690429688 827.293945312 490 900 650 900 c 0
 930 900 1300 725 1300 450 c 0
 1300 225 1100 -10 700 -10 c 0
 350 -10 100 150 100 300 c 0
 100 452.173828125 250 525 350 525 c 0
 450 525 525 450 525 400 c 0
 525 350 475 275 400 275 c 0
 325 275 300 300 275 350 c 1
 275 225 372.319335938 100 700 100 c 0
 975 100 1000 175 1000 350 c 2
 1000 550 l 2xfa
EndSplineSet
EndChar

StartChar: six
Encoding: 54 54 91
Width: 1500
VWidth: 1200
Flags: W
HStem: -10 110<485.709 999.061> 800 100<605.441 1029.27> 1000 230<1022.22 1205.59> 1300 110<577.744 1126.81>
VStem: 90 310<372.614 988.271> 1100 300<305.854 589.196> 1225 125<1155 1235.87>
LayerCount: 2
Fore
SplineSet
400 750 m 1xfc
 500 850 600 900 800 900 c 0
 1153.56640625 900.635742188 1400.89941406 626.686523438 1400 450 c 0xfc
 1398.87988281 230.002929688 1100 -10 750 -10 c 0
 400 -10 90 100 90 700 c 0
 90 1300 516.43359375 1409.36425781 870 1410 c 0
 1110 1410 1350 1300 1350 1150 c 0xfa
 1350 1060 1250 1000 1150 1000 c 0
 1050 1000 980 1060 980 1130 c 0
 980 1180 1025 1230 1100 1230 c 0xfc
 1175 1230 1200 1205 1225 1155 c 1xfa
 1225 1280 1030 1300 870 1300 c 0
 595 1300 400 1225 400 1050 c 2
 400 350 l 2
 400 150 483.733398438 98.201171875 750 100 c 0
 1016.26660156 101.798828125 1100 150 1100 350 c 2
 1100 550 l 2
 1100 725 1075 800 800 800 c 0
 540 800 454.602539062 627.091796875 400 540 c 1
 400 750 l 1xfc
EndSplineSet
EndChar

StartChar: seven
Encoding: 55 55 92
Width: 1400
VWidth: 1200
Flags: W
HStem: 0 21G<525 700> 1000 21G<100 200> 1200 200<328.125 950>
VStem: 400 300<68.75 592.848>
LayerCount: 2
Fore
SplineSet
400 390 m 2
 397.301757812 700.734375 660 900 950 1200 c 1
 450 1200 l 2
 350 1200 250 1100 150 1000 c 1
 100 1000 l 1
 100 1400 l 1
 1300 1400 l 1
 1300 1350 l 1
 1100 1150 700 900 700 400 c 2
 700 0 l 1
 600 0 l 2
 450 0 400 100 400 250 c 0
 400 296.666992188 400 390 400 390 c 2
EndSplineSet
EndChar

StartChar: eight
Encoding: 56 56 93
Width: 1400
VWidth: 1200
Flags: W
HStem: -10 110<496.603 884.036> 1300 100<485.725 896.015>
VStem: 100 200<273.042 508.839> 200 200<970.699 1173.49> 1000 300<313.045 503.519> 1000 200<989.697 1209.25>
LayerCount: 2
Fore
SplineSet
700 1400 m 0xd0
 920 1400 1200 1275 1200 1100 c 0xd4
 1200 993.33984375 1086.05859375 911.999023438 939.423828125 837.923828125 c 1
 1130.95605469 737.978515625 1300 614.666015625 1300 450 c 0
 1300 230 960 -10 650 -10 c 0
 350 -10 100.411132812 160.000976562 100 400 c 0xe8
 99.6298828125 615.966796875 252.033203125 713.381835938 431.46484375 777.72265625 c 1
 301.19921875 831.088867188 200 901.397460938 200 1040 c 0
 200 1240 480 1400 700 1400 c 0xd0
700 1300 m 0
 540 1300 400 1240 400 1150 c 0
 400 1074.00097656 603.208007812 997.709960938 816.421875 898.1328125 c 1
 924.002929688 941.223632812 1000 998.491210938 1000 1100 c 0
 1000 1210 900 1300 700 1300 c 0
644.197265625 702.1328125 m 1
 459.650390625 616.936523438 300 526.20703125 300 400 c 0
 300 250 460 100 700 100 c 0
 920 100 1000 230 1000 350 c 0xe8
 1000 558.338867188 828.372070312 637.87890625 644.197265625 702.1328125 c 1
EndSplineSet
EndChar

StartChar: nine
Encoding: 57 57 94
Width: 1500
VWidth: 1200
Flags: W
HStem: -10 110<373.186 922.256> 170 230<294.409 477.778> 500 100<470.734 894.559> 1300 110<500.939 1014.29>
VStem: 100 300<810.804 1094.15> 150 125<164.132 245> 1100 310<411.729 1027.39>
LayerCount: 2
Fore
SplineSet
1100 650 m 1xfa
 1000 550 900 500 700 500 c 0
 346.43359375 499.364257812 99.1005859375 773.313476562 100 950 c 0xfa
 101.120117188 1169.99707031 400 1410 750 1410 c 0
 1100 1410 1410 1300 1410 700 c 0
 1410 100 983.56640625 -9.3642578125 630 -10 c 0
 390 -10 150 100 150 250 c 0xf6
 150 340 250 400 350 400 c 0
 450 400 520 340 520 270 c 0
 520 220 475 170 400 170 c 0xfa
 325 170 300 195 275 245 c 1xf6
 275 120 470 100 630 100 c 0
 905 100 1100 175 1100 350 c 2
 1100 1050 l 2
 1100 1250 1016.26660156 1301.79882812 750 1300 c 0
 483.733398438 1298.20117188 400 1250 400 1050 c 2
 400 850 l 2
 400 675 425 600 700 600 c 0
 960 600 1045.39746094 772.908203125 1100 860 c 1
 1100 650 l 1xfa
EndSplineSet
EndChar

StartChar: less
Encoding: 60 60 97
Width: 1100
VWidth: 1200
Flags: W
HStem: 0 21G<960 1000> 980 20G<960 1000>
LayerCount: 2
Fore
SplineSet
1000 1000 m 1
 1000 800 l 1
 400 500 l 1
 1000 200 l 1
 1000 0 l 1
 100 450 l 1
 100 550 l 1
 1000 1000 l 1
EndSplineSet
EndChar

StartChar: equal
Encoding: 61 61 98
Width: 1100
VWidth: 1200
Flags: W
HStem: 200 200<100 1000> 600 200<100 1000>
LayerCount: 2
Fore
SplineSet
100 600 m 1
 100 800 l 1
 1000 800 l 1
 1000 600 l 1
 100 600 l 1
100 200 m 1
 100 400 l 1
 1000 400 l 1
 1000 200 l 1
 100 200 l 1
EndSplineSet
EndChar

StartChar: greater
Encoding: 62 62 99
Width: 1100
VWidth: 1200
Flags: W
HStem: 0 21G<100 140> 980 20G<100 140>
LayerCount: 2
Fore
SplineSet
100 1000 m 1
 1000 550 l 1
 1000 450 l 1
 100 0 l 1
 100 200 l 1
 700 500 l 1
 100 800 l 1
 100 1000 l 1
EndSplineSet
EndChar

StartChar: question
Encoding: 63 63 100
Width: 1400
VWidth: 1200
Flags: W
HStem: -10 220<409.714 689.673> 875 250<295.022 474.956> 1300 110<428.084 887.102>
VStem: 100 175<1052.91 1177.37> 370 360<28.3186 168.867> 500 100<300 458.819> 1000 310<932.059 1183.26>
LayerCount: 2
Fore
SplineSet
600 300 m 1xf6
 500 300 l 1
 500 850 1000 759.520507812 1000 1050 c 0
 1000 1175 925 1300 700 1300 c 0
 370 1300 275 1175 275 1050 c 1
 300 1100 325 1125 400 1125 c 0
 475 1125 525 1050 525 1000 c 0
 525 950 450 875 350 875 c 0
 250 875 100 947.826171875 100 1100 c 0
 100 1250 340 1410 700 1410 c 0
 1050 1410 1310 1250 1310 1050 c 0
 1310 650 600 750 600 300 c 1xf6
EndSplineSet
Refer: 83 46 N 1 0 0 1 300 0 2
EndChar

StartChar: at
Encoding: 64 64 101
Width: 2000
VWidth: 1200
Flags: W
HStem: -410 110<752.573 1267.82> 0 100<859.549 1095.51 1460.85 1630.96> 900 100<827.591 1150.12> 1300 110<732.09 1267.98>
VStem: 100 200<226.841 772.874> 400 300<286.94 736.764> 1200 300<224.585 775.586> 1700 200<262.208 768.101>
LayerCount: 2
Fore
SplineSet
1000 1410 m 0
 1499.99902344 1410 1900 999.999023438 1900 500 c 0
 1899.5 295.509765625 1800 -0 1500 0 c 0
 1421.69433594 0 1318.12011719 91.689453125 1255.40429688 203.935546875 c 1
 1217.046875 127.53125 1133.18261719 0 1000 0 c 0
 607.247070312 2.5439453125 400 200 400 500 c 0
 400 800 550 1000 950 1000 c 1
 1250 1005 1500 895 1500 575 c 2
 1500 150 l 2
 1500 120 1520 100 1550 100 c 0
 1680 100 1700 300 1700 500 c 0
 1701.79882812 924.4375 1599.99902344 1300 1000 1300 c 0
 400.000976562 1300 300 900 300 500 c 0
 300 100 500.020507812 -304.517578125 1000 -300 c 0
 1422.3984375 -296.18359375 1600 -70 1600 -70 c 1
 1600 -170 l 1
 1600 -170 1380 -410 1000 -410 c 0
 500.000976562 -410 100 0.0009765625 100 500 c 0
 100 999.999023438 500.000976562 1410 1000 1410 c 0
950 900 m 0
 800 900 700 765.666992188 700 500 c 0
 700 234.333007812 850 100 1000 100 c 0
 1120 100 1200 280 1200 380 c 1
 1200.33007812 379.50390625 l 1
 1200.19042969 383.008789062 1200 386.524414062 1200 390 c 2
 1200 725 l 2
 1200 875 1125 900 950 900 c 0
EndSplineSet
EndChar

StartChar: bracketleft
Encoding: 91 91 102
Width: 600
VWidth: 1200
Flags: W
HStem: -400 100<300 500> 1300 100<300 500>
VStem: 100 200<-300 1300>
LayerCount: 2
Fore
SplineSet
100 1400 m 1
 500 1400 l 1
 500 1300 l 1
 300 1300 l 1
 300 -300 l 1
 500 -300 l 1
 500 -400 l 1
 100 -400 l 1
 100 1400 l 1
EndSplineSet
EndChar

StartChar: backslash
Encoding: 92 92 103
Width: 1000
VWidth: 1200
Flags: W
HStem: 0 21G<740 900> 1380 20G<50 210>
LayerCount: 2
Fore
SplineSet
750 0 m 1
 50 1400 l 1
 200 1400 l 1
 900 0 l 1
 750 0 l 1
EndSplineSet
EndChar

StartChar: bracketright
Encoding: 93 93 104
Width: 600
VWidth: 1200
Flags: W
HStem: -400 100<100 300> 1300 100<100 300>
VStem: 300 200<-300 1300>
LayerCount: 2
Fore
SplineSet
500 1400 m 1
 500 -400 l 1
 100 -400 l 1
 100 -300 l 1
 300 -300 l 1
 300 1300 l 1
 100 1300 l 1
 100 1400 l 1
 500 1400 l 1
EndSplineSet
EndChar

StartChar: underscore
Encoding: 95 95 105
Width: 1400
VWidth: 1200
Flags: W
HStem: -200 200<100 1300>
LayerCount: 2
Fore
SplineSet
100 -200 m 1
 100 0 l 1
 1300 0 l 1
 1300 -200 l 1
 100 -200 l 1
EndSplineSet
EndChar

StartChar: braceleft
Encoding: 123 123 106
Width: 800
VWidth: 1200
Flags: HW
HStem: -300 100<594.155 700> 1300 100<582.623 700>
VStem: 200 300<-79.266 229.89 868.507 1182.84> 400 200<330.134 453.839 646.161 769.866>
LayerCount: 2
Fore
SplineSet
600 1400 m 2
 700 1400 l 1
 700 1300 l 1
 585.868164062 1296.18359375 500 1223.66992188 500 1000 c 0
 500 850 550 850 550 750 c 0
 550 600 400 550 400 550 c 1
 400 550 550 500 550 350 c 0
 550 250 500 250 500 100 c 0
 500 -123.669921875 585.868164062 -196.18359375 700 -200 c 1
 700 -300 l 1
 600 -300 l 2
 477.708984375 -300 200 -199.999023438 200 100 c 0
 200 300 350 300 350 400 c 0
 350 500 100 500 100 500 c 1
 100 600 l 1
 100 600 350 600 350 700 c 0
 350 800 200 800 200 1000 c 0
 200 1299.99902344 477.708984375 1400 600 1400 c 2
EndSplineSet
EndChar

StartChar: bar
Encoding: 124 124 107
Width: 400
VWidth: 1200
Flags: W
HStem: 1380 20G<100 300>
VStem: 100 200<-400 1400>
LayerCount: 2
Fore
SplineSet
100 -400 m 1
 100 1400 l 1
 300 1400 l 1
 300 -400 l 1
 100 -400 l 1
EndSplineSet
EndChar

StartChar: braceright
Encoding: 125 125 108
Width: 800
VWidth: 1200
Flags: HW
HStem: -300 100<100 205.845> 1300 100<100 217.377>
VStem: 200 200<330.134 453.839 646.161 769.866> 300 300<-79.266 229.89 868.507 1182.84>
LayerCount: 2
Fore
SplineSet
200 1400 m 2
 322.291015625 1400 600 1299.99902344 600 1000 c 0
 600 800 450 800 450 700 c 0
 450 600 700 600 700 600 c 1
 700 500 l 1
 700 500 450 500 450 400 c 0
 450 300 600 300 600 100 c 0
 600 -199.999023438 322.291015625 -300 200 -300 c 2
 100 -300 l 1
 100 -200 l 1
 214.131835938 -196.18359375 300 -123.669921875 300 100 c 0
 300 250 250 250 250 350 c 0
 250 500 400 550 400 550 c 1
 400 550 250 600 250 750 c 0
 250 850 300 850 300 1000 c 0
 300 1223.66992188 214.131835938 1296.18359375 100 1300 c 1
 100 1400 l 1
 200 1400 l 2
EndSplineSet
EndChar

StartChar: asciitilde
Encoding: 126 126 109
Width: 1100
VWidth: 1200
Flags: W
HStem: 370 100<675.683 873.438> 530 100<225.156 426.049>
VStem: 100 80<370 481.99> 920 80<518.051 630>
LayerCount: 2
Fore
SplineSet
1000 630 m 1
 1000 430 950 370.366210938 750 370 c 0
 402.4296875 369.364257812 460 530 350 530 c 0
 240 530 180 470 180 370 c 1
 100 370 l 1
 100 570 150 630 350 630 c 0
 700 630 640 470 750 470 c 0
 860 470 920 530 920 630 c 1
 1000 630 l 1
EndSplineSet
EndChar

StartChar: exclamdown
Encoding: 161 161 110
Width: 500
VWidth: 1200
Flags: W
HStem: 790 220<109.714 389.673>
VStem: 70 360<828.319 968.867> 100 300<-363.539 380.966>
LayerCount: 2
Fore
SplineSet
250 -400 m 0xa0
 150 -400 100 -350 100 -250 c 0
 100 300 200 700 200 700 c 1
 300 700 l 1
 300 700 398.201171875 297.451171875 400 -250 c 0
 400.295898438 -340 350 -400 250 -400 c 0xa0
EndSplineSet
Refer: 83 46 S 1 0 0 1 0 800 2
EndChar

StartChar: cent
Encoding: 162 162 111
Width: 1300
VWidth: 1200
Flags: W
HStem: 0 100<800 1063.43> 900 100<800 1017.25>
VStem: 100 300<324.933 675.672> 600 200<-100 0 161.012 840.043 1000 1100> 905 295<699.413 855.199>
LayerCount: 2
Fore
SplineSet
600 1100 m 1
 800 1100 l 1
 800 1000 l 1
 1025 1000 1199.36425781 898.944335938 1200 800 c 0
 1200.64257812 700.001953125 1130 670 1055 670 c 0
 937.215820312 670 905 720 905 770 c 0
 905 885 1025 875 1025 875 c 1
 965.875 889.73828125 897.958984375 898.41015625 800 900 c 1
 800 100 l 1
 1025 100 1200 200 1200 200 c 1
 1200 100 l 1
 1200 100 1025.05371094 -2.244140625 800 0 c 1
 800 -100 l 1
 600 -100 l 1
 600 19.91796875 l 1
 307.815429688 77.0166015625 100 253.32421875 100 500 c 0
 100 747.401367188 304.119140625 926.668945312 600 981.96875 c 1
 600 1100 l 1
600 840.04296875 m 1
 493.252929688 776.290039062 400 662.225585938 400 500 c 0
 400 337.770507812 493.250976562 224.611328125 600 161.01171875 c 1
 600 840.04296875 l 1
EndSplineSet
EndChar

StartChar: sterling
Encoding: 163 163 112
Width: 1300
VWidth: 1200
Flags: W
HStem: 0 100<100 200 500 1200> 500 100<100 299.928 600 900> 1000 21G<971.109 1110> 1290 110<681.678 950.525>
VStem: 300.428 299.572<213.74 500 600 1049.82 1050 1193.28>
LayerCount: 2
Fore
SplineSet
800 1400 m 0
 1050 1400 1200 1325 1200 1150 c 0
 1200 1100 1170 1000 1050 1000 c 0
 892.21875 1000 920 1180 1000 1180 c 1
 1000 1220 930 1290 800 1290 c 0
 670 1290 600 1175 600 1050 c 2
 600 600 l 1
 900 600 l 1
 900 500 l 1
 600 500 l 1
 600 200 500 100 500 100 c 1
 1200 100 l 1
 1200 0 l 1
 100 0 l 1
 100 100 l 1
 200 100 l 1
 200 100 296.833984375 202.456054688 299.927734375 500 c 1
 100 500 l 1
 100 600 l 1
 300.427734375 600 l 1
 301.239257812 807.423828125 300 1050 300 1050 c 2
 300 1260 550 1400 800 1400 c 0
EndSplineSet
EndChar

StartChar: currency
Encoding: 164 164 113
Width: 1400
VWidth: 1200
Flags: W
HStem: 200 100<514.681 887.35> 1100 100<514.681 885.319>
VStem: 200 150<493.965 906.063> 1050 150<497.802 902.171>
LayerCount: 2
Fore
SplineSet
240.380859375 1301.04101562 m 1
 423.787109375 1117.6328125 l 1
 502.750976562 1169.70800781 597.571289062 1200 700 1200 c 0
 802.428710938 1200 897.249023438 1169.70800781 976.212890625 1117.6328125 c 1
 1159.61914062 1301.04101562 l 1
 1301.04101562 1159.61914062 l 1
 1117.6328125 976.212890625 l 1
 1169.70800781 897.249023438 1200 802.428710938 1200 700 c 0
 1200 597.571289062 1169.70800781 502.750976562 1117.6328125 423.787109375 c 1
 1301.04101562 240.380859375 l 1
 1159.61914062 98.958984375 l 1
 976.212890625 282.3671875 l 1
 897.249023438 230.291992188 802.428710938 200 700 200 c 0
 597.571289062 200 502.750976562 230.291992188 423.787109375 282.3671875 c 1
 240.380859375 98.958984375 l 1
 98.958984375 240.380859375 l 1
 282.3671875 423.787109375 l 1
 230.291992188 502.750976562 200 597.571289062 200 700 c 0
 200 802.428710938 230.291992188 897.249023438 282.3671875 976.212890625 c 1
 98.958984375 1159.61914062 l 1
 240.380859375 1301.04101562 l 1
700 1100 m 0
 426.537109375 1099.10058594 350 899.999023438 350 700 c 0
 350 500.000976562 425.002929688 301.12890625 700 300 c 0
 974.997070312 298.870117188 1050 500.000976562 1050 700 c 0
 1050 899.999023438 973.462890625 1100.89941406 700 1100 c 0
EndSplineSet
EndChar

StartChar: yen
Encoding: 165 165 114
Width: 1600
VWidth: 1200
Flags: W
HStem: 0 100<400 600 900 1100> 300 100<200 600 900 1300> 500 100<200 600 950 1300> 1300 100<100 250 550 700 1000 1150 1300 1500>
VStem: 600 300<100 300 400 500>
LayerCount: 2
Fore
SplineSet
100 1400 m 1
 700 1400 l 1
 700 1300 l 1
 550 1300 l 1
 850 700 l 1
 1150 1300 l 1
 1000 1300 l 1
 1000 1400 l 1
 1500 1400 l 1
 1500 1300 l 1
 1300 1300 l 1
 950 600 l 1
 1300 600 l 1
 1300 500 l 1
 900 500 l 1
 900 400 l 1
 1300 400 l 1
 1300 300 l 1
 900 300 l 1
 900 100 l 1
 1100 100 l 1
 1100 0 l 1
 400 0 l 1
 400 100 l 1
 600 100 l 1
 600 300 l 1
 200 300 l 1
 200 400 l 1
 600 400 l 1
 600 500 l 1
 200 500 l 1
 200 600 l 1
 600 600 l 1
 250 1300 l 1
 100 1300 l 1
 100 1400 l 1
EndSplineSet
EndChar

StartChar: brokenbar
Encoding: 166 166 115
Width: 400
VWidth: 1200
Flags: W
HStem: 1380 20G<100 300>
VStem: 100 200<-400 300 700 1400>
LayerCount: 2
Fore
SplineSet
100 1400 m 1
 300 1400 l 1
 300 700 l 1
 100 700 l 1
 100 1400 l 1
100 300 m 1
 300 300 l 1
 300 -400 l 1
 100 -400 l 1
 100 300 l 1
EndSplineSet
EndChar

StartChar: section
Encoding: 167 167 116
Width: 1300
VWidth: 1200
Flags: W
HStem: -400 110<449.475 718.154> -20 20G<290 428.891> 1000 21G<871.109 1010> 1290 110<581.846 850.525>
VStem: 100 300<421.918 546.046> 200 300<963.544 1190.35> 800 300<-190.35 36.4555> 900 300<453.954 578.082>
LayerCount: 2
Fore
SplineSet
700 1400 m 0xf4
 950 1400 1100 1325 1100 1150 c 0xf6
 1100 1100 1070 1000 950 1000 c 0
 792.21875 1000 820 1180 900 1180 c 1
 900 1220 830 1290 700 1290 c 0
 570 1290 501.27734375 1174.99316406 500 1050 c 0
 497.456054688 801.076171875 1202.46679688 899.989257812 1200 600 c 0xf5
 1198.36425781 401.0625 992.493164062 292.907226562 845.435546875 240.8046875 c 1
 983.424804688 177.24609375 1100 92.8193359375 1100 -50 c 0
 1100 -260 850 -400 600 -400 c 0
 350 -400 200 -325 200 -150 c 0xf6
 200 -100 230 0 350 0 c 0
 507.78125 0 480 -180 400 -180 c 1
 400 -220 470 -290 600 -290 c 0
 730 -290 798.72265625 -174.993164062 800 -50 c 0
 802.543945312 198.923828125 97.533203125 100.010742188 100 400 c 0xfa
 101.635742188 598.9375 307.506835938 707.092773438 454.564453125 759.1953125 c 1
 316.575195312 822.75390625 200 907.180664062 200 1050 c 0
 200 1260 450 1400 700 1400 c 0xf4
619.244140625 692.517578125 m 1
 530.381835938 677.813476562 400 633.666015625 400 500 c 0
 400 413.22265625 532.076171875 363.638671875 680.755859375 307.482421875 c 1
 769.6171875 322.186523438 900 366.333984375 900 500 c 0xf9
 900 586.77734375 767.923828125 636.361328125 619.244140625 692.517578125 c 1
EndSplineSet
EndChar

StartChar: dieresis
Encoding: 168 168 117
Width: 1100
VWidth: 1200
Flags: W
HStem: 1300 250<136.578 363.422 736.578 963.422>
VStem: 100 300<1336.61 1513.39> 700 300<1336.61 1513.39>
LayerCount: 2
Fore
SplineSet
100 1425 m 0
 100 1494.03515625 167.157226562 1550 250 1550 c 0
 332.842773438 1550 400 1494.03515625 400 1425 c 0
 400 1355.96484375 332.842773438 1300 250 1300 c 0
 167.157226562 1300 100 1355.96484375 100 1425 c 0
700 1425 m 0
 700 1494.03515625 767.157226562 1550 850 1550 c 0
 932.842773438 1550 1000 1494.03515625 1000 1425 c 0
 1000 1355.96484375 932.842773438 1300 850 1300 c 0
 767.157226562 1300 700 1355.96484375 700 1425 c 0
EndSplineSet
EndChar

StartChar: copyright
Encoding: 169 169 118
Width: 2000
VWidth: 1200
Flags: W
HStem: -410 110<731.275 1268.73> 0 100<907.776 1276.99> 900 100<903.41 1226.13> 1300 110<732.306 1267.69>
VStem: 100 200<227.269 772.76> 500 300<311.925 688.304> 1300 100<920 1000> 1700 200<226.984 772.987>
LayerCount: 2
Fore
SplineSet
1000 1410 m 0
 1499.99902344 1410 1900 999.999023438 1900 500 c 0
 1900 0.0009765625 1499.99902344 -410 1000 -410 c 0
 500.000976562 -410 100 0.0009765625 100 500 c 0
 100 999.999023438 500.000976562 1410 1000 1410 c 0
1000 1300 m 0
 453.07421875 1298.20117188 300 899.999023438 300 500 c 0
 300 100.000976562 450.004882812 -297.741210938 1000 -300 c 0
 1549.99511719 -302.258789062 1700 100.000976562 1700 500 c 0
 1700 899.999023438 1546.92578125 1301.79882812 1000 1300 c 0
1438.57128906 164.286132812 m 1
 1405.05078125 121.428710938 1304.49023438 0 1036.32617188 0 c 0
 835.204101562 0 500 178.571289062 500 500 c 0
 500 821.428710938 835.204101562 1000 1036.32617188 1000 c 0
 1210 1000 1300 920 1300 920 c 1
 1300 1000 l 1
 1400 1000 l 1
 1400 700 l 1
 1350 700 l 1
 1276.15429688 817.3203125 1238.94921875 898.072265625 1070 900 c 0
 835.37109375 902.676757812 800 750 800 500 c 0
 800 250 835.357421875 100 1070 100 c 0
 1304.64257812 100 1405.20410156 228.571289062 1438.72460938 264.28515625 c 1
 1438.57128906 164.286132812 l 1
EndSplineSet
EndChar

StartChar: ordfeminine
Encoding: 170 170 119
Width: 1110
VWidth: 1200
Flags: W
HStem: 700.049 124.951<841.998 966.169> 700.049 99.9512<388.37 626.78> 1300 100.049<366.3 646.688>
VStem: 100 200<890.254 1232.38> 700 200<870.836 1249.07>
LayerCount: 2
Fore
SplineSet
485 1400.04882812 m 0x78
 695 1403.54882812 900 1324 900 1100 c 2
 900 860 l 2
 900 839 914 825 935 825 c 0
 956 825 1010 932.048828125 1010 932.048828125 c 1
 1010 805.048828125 l 1
 1010 805.048828125 963.927734375 700.048828125 870 700.048828125 c 0xb8
 813.99609375 700.048828125 757.249023438 765.678710938 725.546875 845.671875 c 1
 691.260742188 793.719726562 616.20703125 700.048828125 520 700.048828125 c 0
 245.073242188 701.830078125 100 840.048828125 100 1050.04882812 c 0
 100 1260.04882812 205 1400.04882812 485 1400.04882812 c 0x78
480 1300 m 0
 375 1300 300 1235.96679688 300 1050 c 0
 300 864.033203125 415 800 520 800 c 0x78
 604 800 700 893 700 963 c 1
 700.322265625 962.416015625 l 1
 700.250976562 964.936523438 700 967.499023438 700 970 c 2
 700 1150 l 2
 700 1255 602.5 1300 480 1300 c 0
EndSplineSet
EndChar

StartChar: guillemotleft
Encoding: 171 171 120
Width: 1100
VWidth: 1200
Flags: W
LayerCount: 2
Fore
SplineSet
550 900 m 1
 550 800 l 1
 250 500 l 1
 550 200 l 1
 550 100 l 1
 450 100 l 1
 100 450 l 1
 100 550 l 1
 450 900 l 1
 550 900 l 1
1000 900 m 1
 1000 800 l 1
 700 500 l 1
 1000 200 l 1
 1000 100 l 1
 900 100 l 1
 550 450 l 1
 550 550 l 1
 900 900 l 1
 1000 900 l 1
EndSplineSet
EndChar

StartChar: logicalnot
Encoding: 172 172 121
Width: 1100
VWidth: 1200
Flags: W
HStem: 400 200<100 800>
VStem: 800 200<200 400>
LayerCount: 2
Fore
SplineSet
1000 600 m 1
 1000 200 l 1
 800 200 l 1
 800 400 l 1
 100 400 l 1
 100 600 l 1
 1000 600 l 1
EndSplineSet
EndChar

StartChar: registered
Encoding: 174 174 123
Width: 2000
VWidth: 1200
Flags: W
HStem: -410 110<731.275 1268.73> 0 100<500 600 800 1035 1456.95 1570> 400 100<800 1173.48> 900 100<500 600 800 1171.06> 1300 110<732.306 1267.69>
VStem: 100 200<227.269 772.76> 600 200<100 400 500 900> 1200 250<110.756 356.645 557.143 845.163> 1700 200<226.984 772.987>
LayerCount: 2
Fore
SplineSet
1000 1410 m 0
 1499.99902344 1410 1900 999.999023438 1900 500 c 0
 1900 0.0009765625 1499.99902344 -410 1000 -410 c 0
 500.000976562 -410 100 0.0009765625 100 500 c 0
 100 999.999023438 500.000976562 1410 1000 1410 c 0
1000 1300 m 0
 453.07421875 1298.20117188 300 899.999023438 300 500 c 0
 300 100.000976562 450.004882812 -297.741210938 1000 -300 c 0
 1549.99511719 -302.258789062 1700 100.000976562 1700 500 c 0
 1700 899.999023438 1546.92578125 1301.79882812 1000 1300 c 0
500 1000 m 1
 1100 1000 l 2
 1267.1875 1000 1453.0078125 885.189453125 1450 700 c 0
 1448.23730469 591.454101562 1386.19921875 507.352539062 1301.6328125 456.111328125 c 1
 1376.34082031 417.831054688 1439.31347656 347.561523438 1440 220 c 0
 1440.61523438 105.654296875 1503.125 100 1570 100 c 1
 1570 0 l 1
 1369.375 0 l 2
 1309.1875 0 1199.22851562 77.1455078125 1200 220 c 0
 1200.6015625 331.373046875 1200.3125 400 1100 400 c 2
 800 400 l 1
 800 100 l 1
 1035 100 l 1
 1035 0 l 1
 500 0 l 1
 500 100 l 1
 600 100 l 1
 600 900 l 1
 500 900 l 1
 500 1000 l 1
800 900 m 1
 800 500 l 1
 1100 500 l 1
 1101.875 500 l 2
 1182.125 500 1200 585.71484375 1200 700 c 0
 1200 814.28515625 1180.25 900 1100 900 c 2
 800 900 l 1
EndSplineSet
EndChar

StartChar: macron
Encoding: 175 175 124
Width: 1100
VWidth: 1200
Flags: W
HStem: 1400 100<100 1000>
LayerCount: 2
Fore
SplineSet
100 1500 m 1
 1000 1500 l 1
 1000 1400 l 1
 100 1400 l 1
 100 1500 l 1
EndSplineSet
EndChar

StartChar: degree
Encoding: 176 176 125
Width: 700
VWidth: 1200
Flags: W
HStem: 900 100<245.555 454.445> 1300 100<245.555 454.445>
VStem: 100 100<1045.56 1254.44> 500 100<1045.56 1254.44>
LayerCount: 2
Fore
SplineSet
500 1150 m 0
 500 1232.78710938 432.787109375 1300 350 1300 c 0
 267.212890625 1300 200 1232.78710938 200 1150 c 0
 200 1067.21289062 267.212890625 1000 350 1000 c 0
 432.787109375 1000 500 1067.21289062 500 1150 c 0
600 1150 m 0
 600 1012.02148438 487.978515625 900 350 900 c 0
 212.021484375 900 100 1012.02148438 100 1150 c 0
 100 1287.97851562 212.021484375 1400 350 1400 c 0
 487.978515625 1400 600 1287.97851562 600 1150 c 0
EndSplineSet
EndChar

StartChar: plusminus
Encoding: 177 177 126
Width: 1100
VWidth: 1200
Flags: W
HStem: 0 200<100 1000> 700 200<100 450 650 1000>
VStem: 450 200<350 700 900 1250>
LayerCount: 2
Fore
SplineSet
450 1250 m 1
 650 1250 l 1
 650 900 l 1
 1000 900 l 1
 1000 700 l 1
 650 700 l 1
 650 350 l 1
 450 350 l 1
 450 700 l 1
 100 700 l 1
 100 900 l 1
 450 900 l 1
 450 1250 l 1
100 200 m 1
 1000 200 l 1
 1000 0 l 1
 100 0 l 1
 100 200 l 1
EndSplineSet
EndChar

StartChar: uni00B2
Encoding: 178 178 127
Width: 800
VWidth: 1200
Flags: W
HStem: 700 200<580.469 700> 700 100<225 564.062> 1127.5 125<189.645 306.642> 1300 100<199.885 534.122>
VStem: 100 87.5<1216.45 1279.08> 550 150<1125.59 1280.64>
LayerCount: 2
Fore
SplineSet
625 900 m 1xbc
 700 900 l 1
 700 700 l 1xbc
 100 700 l 1
 100 825 l 1
 100 825 212.5 962.5 400 1050 c 0
 501.314453125 1097.28027344 550 1162.5 550 1225 c 0
 550 1260 515 1299.68164062 400 1300 c 0
 237.508789062 1300.45019531 187.5 1277.5 187.5 1215 c 1
 200 1240 212.5 1252.5 250 1252.5 c 0
 287.5 1252.5 312.5 1215 312.5 1190 c 0
 312.5 1165 275 1127.5 225 1127.5 c 0
 175 1127.5 100 1163.91308594 100 1240 c 0
 100 1315 225 1400 400 1400 c 0
 575 1400 700 1340 700 1225 c 0
 700 1125 554.3515625 990.134765625 450 950 c 0
 287.5 887.5 225 800 225 800 c 1
 475 800 l 2x7c
 525 800 575 850 625 900 c 1xbc
EndSplineSet
EndChar

StartChar: uni00B3
Encoding: 179 179 128
Width: 800
VWidth: 1200
Flags: W
HStem: 700 100<199.466 578.282> 847.5 125<189.645 306.642> 1020 100<350 536.752> 1127.5 125<189.645 306.642> 1300 100<201.047 541.548>
VStem: 100 87.5<820.924 883.546 1216.45 1279.08> 550 155<1140.77 1283.23> 600 150<826.585 973.661>
LayerCount: 2
Fore
SplineSet
400 1400 m 0xfe
 575 1400 705 1325 705 1225 c 0xfe
 705 1178.82226562 660.852539062 1124.70507812 590.28515625 1083.6640625 c 1
 680.383789062 1052.17480469 750 999.895507812 750 925 c 0
 750 812.5 600 700 400 700 c 0
 225 700 100 785 100 860 c 0
 100 936.086914062 175 972.5 225 972.5 c 0
 275 972.5 312.5 935 312.5 910 c 0
 312.5 885 287.5 847.5 250 847.5 c 0
 212.5 847.5 200 860 187.5 885 c 1
 187.5 822.5 236.16015625 800 400 800 c 0
 537.5 800 600 822.5 600 910 c 0xfd
 600 960 525 1020 350 1020 c 1
 350 1120 l 1
 546.666015625 1122.30273438 550 1162.5 550 1225 c 0
 550 1270 512.5 1300 400 1300 c 0
 235 1300 187.5 1277.5 187.5 1215 c 1
 200 1240 212.5 1252.5 250 1252.5 c 0
 287.5 1252.5 312.5 1215 312.5 1190 c 0
 312.5 1165 275 1127.5 225 1127.5 c 0
 175 1127.5 100 1163.91308594 100 1240 c 0
 100 1315 220 1400 400 1400 c 0xfe
EndSplineSet
EndChar

StartChar: acute
Encoding: 180 180 129
Width: 700
VWidth: 1200
Flags: W
HStem: 1300 300
VStem: 100 500
LayerCount: 2
Fore
SplineSet
600 1600 m 1
 600 1550 l 1
 250 1300 l 1
 100 1300 l 1
 100 1350 l 1
 350 1600 l 1
 600 1600 l 1
EndSplineSet
EndChar

StartChar: mu
Encoding: 181 181 130
Width: 1700
VWidth: 1200
Flags: W
HStem: 0 100<682.877 989.95 1400 1600> 900 100<100 300 900 1100>
VStem: 300 300<-300 34.0605 200.375 900> 1100 300<200 900>
LayerCount: 2
Fore
SplineSet
100 1000 m 1
 600 1000 l 1
 600 500 l 2
 600 234.333007812 650 100 800 100 c 0
 950 100 1100 200 1100 200 c 1
 1100 900 l 1
 900 900 l 1
 900 1000 l 1
 1400 1000 l 1
 1400 100 l 1
 1600 100 l 1
 1600 0 l 1
 1300 0 l 1
 1100 100 l 1
 1100 100 949.997070312 -0.880859375 800 0 c 0
 726.42578125 0.431640625 659.442382812 12.2958984375 600 34.060546875 c 1
 600 -400 l 1
 550 -400 l 1
 300 -300 l 1
 300 500 l 1
 300 900 l 1
 100 900 l 1
 100 1000 l 1
EndSplineSet
EndChar

StartChar: paragraph
Encoding: 182 182 131
Width: 1500
VWidth: 1200
Flags: W
HStem: 1300 100<900 1100>
VStem: 100 800<699.531 1100.6> 600 300<-400 400> 1100 300<-400 1300>
LayerCount: 2
Fore
SplineSet
600 1400 m 2xb0
 1400 1400 l 1
 1400 -400 l 1
 1100 -400 l 1
 1100 1300 l 1
 900 1300 l 1
 900 -400 l 1
 600 -400 l 1
 600 400 l 1xb0
 340 400 100 610 100 900 c 0xd0
 100 1190 338.096679688 1400.89941406 600 1400 c 2xb0
EndSplineSet
EndChar

StartChar: cedilla
Encoding: 184 184 133
Width: 700
VWidth: 1200
Flags: W
HStem: -400 100<100.044 300> -20 20G<216 304>
VStem: 220 80<-70 0>
LayerCount: 2
Fore
SplineSet
320 -100 m 1
 460 -100 600 -150 600 -250 c 0
 600 -350 440 -400 300 -400 c 0
 160 -400 100 -370 100 -370 c 1
 100 -300 l 1
 300 -300 l 1
 300 -300 400 -300 400 -250 c 0
 400 -200 180 -200 180 -200 c 1
 220 0 l 1
 300 0 l 1
 320 -100 l 1
EndSplineSet
EndChar

StartChar: uni00B9
Encoding: 185 185 134
Width: 700
VWidth: 1200
Flags: W
HStem: 700 100<150 300 450 600> 1200 100<150 298.37> 1380 20G<350 450>
VStem: 300 150<800 1200>
LayerCount: 2
Fore
SplineSet
600 800 m 1
 600 700 l 1
 150 700 l 1
 150 800 l 1
 300 800 l 1
 300 1200 l 1
 150 1200 l 1
 150 1300 l 1
 250 1300 325 1350 375 1400 c 1
 450 1400 l 1
 450 800 l 1
 600 800 l 1
EndSplineSet
EndChar

StartChar: ordmasculine
Encoding: 186 186 135
Width: 1000
VWidth: 1200
Flags: W
HStem: 700 100<377.336 622.664> 1300 100<376.456 623.544>
VStem: 100 200<881.5 1218.67> 700 200<881.5 1218.67>
LayerCount: 2
Fore
SplineSet
500 1400 m 0
 790.909179688 1400 900 1260 900 1050 c 0
 900 840 785.638671875 701.78125 500 700 c 0
 214.361328125 701.78125 100 840 100 1050 c 0
 100 1260 209.090820312 1400 500 1400 c 0
500 1300 m 0
 380 1300 300 1216.04199219 300 1050 c 0
 300 883.958007812 380 800 500 800 c 0
 620 800 700 883.958007812 700 1050 c 0
 700 1216.04199219 620 1300 500 1300 c 0
EndSplineSet
EndChar

StartChar: guillemotright
Encoding: 187 187 136
Width: 1100
VWidth: 1200
Flags: W
LayerCount: 2
Fore
SplineSet
550 900 m 1
 650 900 l 1
 1000 550 l 1
 1000 450 l 1
 650 100 l 1
 550 100 l 1
 550 200 l 1
 850 500 l 1
 550 800 l 1
 550 900 l 1
100 900 m 1
 200 900 l 1
 550 550 l 1
 550 450 l 1
 200 100 l 1
 100 100 l 1
 100 200 l 1
 400 500 l 1
 100 800 l 1
 100 900 l 1
EndSplineSet
EndChar

StartChar: questiondown
Encoding: 191 191 140
Width: 1400
VWidth: 1200
Flags: W
HStem: -410 110<512.898 971.916> -125 250<925.044 1104.98> 790 220<709.714 989.673>
VStem: 90 310<-183.261 67.9412> 670 360<828.319 968.867> 800 100<541.181 700> 1125 175<-177.367 -52.9071>
LayerCount: 2
Fore
SplineSet
800 700 m 1xf6
 900 700 l 1
 900 150 400 240.479492188 400 -50 c 0
 400 -175 475 -300 700 -300 c 0
 1030 -300 1125 -175 1125 -50 c 1
 1100 -100 1075 -125 1000 -125 c 0
 925 -125 875 -50 875 0 c 0
 875 50 950 125 1050 125 c 0
 1150 125 1300 52.173828125 1300 -100 c 0
 1300 -250 1060 -410 700 -410 c 0
 350 -410 90 -250 90 -50 c 0
 90 350 800 250 800 700 c 1xf6
EndSplineSet
Refer: 83 46 S 1 0 0 1 600 800 2
EndChar

StartChar: AE
Encoding: 198 198 147
Width: 2850
VWidth: 1200
Flags: W
HStem: 0 100<100 350 500 800 1300 1550 1900 2383.59> 500 100<750 1300> 700 100<1600 2121.88> 980 20G<2250 2350> 1000 21G<2600 2750> 1300 100<1300 2383.59>
LayerCount: 2
Fore
SplineSet
1000 1400 m 1xf4
 2750 1400 l 1
 2750 1000 l 1
 2700 1000 l 1xec
 2500 1200 2350 1300 2250 1300 c 2
 1300 1300 l 1
 1550 800 l 1
 2000 800 l 2
 2100 800 2200 900 2300 1000 c 1
 2350 1000 l 1
 2350 500 l 1
 2300 500 l 1
 2200 600 2100 700 2000 700 c 2
 1600 700 l 1
 1900 100 l 1
 2100 100 l 1
 2250 100 l 2
 2350 100 2500 200 2700 400 c 1
 2750 400 l 1
 2750 0 l 1
 2100 0 l 1
 1550 0 l 1
 1300 0 l 1
 1300 100 l 1
 1550 100 l 1
 1350 500 l 1
 700 500 l 1
 500 100 l 1
 800 100 l 1
 800 0 l 1
 100 0 l 1
 100 100 l 1
 350 100 l 1
 1000 1400 l 1xf4
1025 1150 m 1
 750 600 l 1
 1300 600 l 1
 1025 1150 l 1
EndSplineSet
EndChar

StartChar: multiply
Encoding: 215 215 164
Width: 1100
VWidth: 1200
Flags: W
LayerCount: 2
Fore
SplineSet
797.487304688 888.909179688 m 1
 938.909179688 747.487304688 l 1
 691.420898438 500 l 1
 938.909179688 252.512695312 l 1
 797.487304688 111.090820312 l 1
 550 358.578125 l 1
 302.512695312 111.090820312 l 1
 161.090820312 252.512695312 l 1
 408.579101562 500 l 1
 161.090820312 747.487304688 l 1
 302.512695312 888.909179688 l 1
 550 641.420898438 l 1
 797.487304688 888.909179688 l 1
EndSplineSet
EndChar

StartChar: Oslash
Encoding: 216 216 165
Width: 1800
VWidth: 1200
Flags: W
HStem: -10 110<729.361 1066.72> 1300 110<736.534 1069.07>
VStem: 100 400<483.863 909.169> 1300 400<490.754 916.036>
LayerCount: 2
Fore
SplineSet
900 1410 m 0
 1096.05859375 1410.68652344 1273.21972656 1342.29589844 1410.71484375 1235.953125 c 1
 1600 1400 l 1
 1700 1400 l 1
 1700 1300 l 1
 1515.06835938 1139.7265625 l 1
 1630.98339844 1012.63964844 1700 855.216796875 1700 700 c 0
 1700 350.000976562 1349.99902344 -10 900 -10 c 0
 704.006835938 -10 527.018554688 58.32421875 389.619140625 164.3359375 c 1
 200 0 l 1
 100 0 l 1
 100 100 l 1
 285.130859375 260.447265625 l 1
 169.073242188 387.38671875 100 544.641601562 100 700 c 0
 100 1049.99902344 450.375976562 1408.42578125 900 1410 c 0
900 1300 m 0
 600.000976562 1300 500 999.999023438 500 700 c 0
 500 620.286132812 507.223632812 540.755859375 523.080078125 466.669921875 c 1
 1229.4375 1078.84570312 l 1
 1168.71289062 1209.74023438 1064.46289062 1300 900 1300 c 0
1276.70507812 933.14453125 m 1
 570.16796875 320.8125 l 1
 630.653320312 190.103515625 734.77734375 100 900 100 c 0
 1201.6484375 100 1300 400.000976562 1300 700 c 0
 1300 779.646484375 1292.67285156 859.112304688 1276.70507812 933.14453125 c 1
EndSplineSet
EndChar

StartChar: Thorn
Encoding: 222 222 171
Width: 1600
VWidth: 1200
Flags: W
HStem: 0 100<100 300 600 900> 300 100<600 1103.79> 1000 100<600 1103.79> 1300 100<100 300 600 800>
VStem: 300 300<100 300 400 1000 1100 1300> 1200 300<528.914 863.44>
LayerCount: 2
Fore
SplineSet
300 100 m 1
 300 1300 l 1
 100 1300 l 1
 100 1400 l 1
 800 1400 l 1
 800 1300 l 1
 600 1300 l 1
 600 1100 l 1
 1000 1100 l 2
 1250 1100 1504.49804688 949.264648438 1500 690 c 0
 1495.50195312 430.735351562 1250 300 1000 300 c 2
 600 300 l 1
 600 100 l 1
 900 100 l 1
 900 0 l 1
 100 0 l 1
 100 100 l 1
 300 100 l 1
600 1000 m 1
 600 400 l 1
 1000 400 l 2
 1120 400 1200 540 1200 700 c 0
 1200 860 1120 1000 1000 1000 c 2
 600 1000 l 1
EndSplineSet
EndChar

StartChar: germandbls
Encoding: 223 223 172
Width: 1600
VWidth: 1200
Flags: W
HStem: 0 100<100 300 882.535 1101.76> 700 100<900 1005.6> 1300 100<726.193 1006.36>
VStem: 300 300<100 1172.33> 700 300<137.682 295.475> 1100 300<905.233 1176.92> 1200 300<228.911 573.317>
LayerCount: 2
Fore
SplineSet
880 120 m 1xfa
 880 120 899.860351562 99.1005859375 1000 100 c 0
 1120 100 1200 230 1200 400 c 0xfa
 1200 570 1120 700 1000 700 c 2
 900 700 l 1
 900 800 l 1
 1020 800 1100 940 1100 1050 c 0
 1100 1160 1020 1300 900 1300 c 0
 690 1300 600 1160 600 1050 c 2
 600 0 l 1
 100 0 l 1
 100 100 l 1
 300 100 l 1
 300 1040 l 2
 300 1230 545.68359375 1399.36425781 900 1400 c 0
 1150 1400 1400 1230 1400 1040 c 0xfc
 1400 850 1170 750 1170 750 c 1
 1170 750 1500 720 1500 400 c 0
 1500 80 1149.77441406 0 1000 0 c 0
 798.576171875 4.87109375 700 103.569335938 700 200 c 0
 700 297.829101562 775 325 850 325 c 0
 967.784179688 325 1000 275 1000 225 c 0
 1000 110 880 120 880 120 c 1xfa
EndSplineSet
EndChar

StartChar: ae
Encoding: 230 230 176
Width: 2200
VWidth: 1200
Flags: W
HStem: 0 100<493.658 795.339 1347.64 1815.45> 500 100<494.346 897.385 1204.54 1800> 900 100<382.768 834.503 1338.64 1686.61>
VStem: 100 300<181.399 410.54> 200 295<699.413 854.878> 900 304.543<241.602 493.812 600 761.618>
LayerCount: 2
Fore
SplineSet
600 1000 m 0xec
 785.096679688 1003.08496094 970.091796875 962.295898438 1084.7265625 855.51171875 c 1
 1204.20605469 947.267578125 1370.46191406 1000 1550 1000 c 0
 1999.99902344 1000 2100 700 2100 500 c 1
 1200 500 l 1
 1200 200 1300 100 1550 100 c 0
 1900 100 2075 300 2075 300 c 1
 2075 200 l 1
 2075 200 1932.48632812 -3.5986328125 1550 0 c 0
 1176.24902344 1.123046875 1015.83105469 84.67578125 948.04296875 189.880859375 c 1
 906.861328125 112.870117188 825.317382812 0 700 0 c 0
 307.244140625 -0 100 120 100 300 c 0xf4
 100 480 403.448242188 596.401367188 700 600 c 0
 772.325195312 600.877929688 844.486328125 586.9453125 900 572.294921875 c 1
 900 725 l 2
 900 875 775 900 600 900 c 0
 502.028320312 900 434.125 889.73828125 375 875 c 1
 375 875 495 885 495 770 c 0
 495 720 462.784179688 670 345 670 c 0
 270 670 199.357421875 700.001953125 200 800 c 0
 200.635742188 898.944335938 375.03125 996.250976562 600 1000 c 0xec
1550 900 m 0
 1330.20019531 900 1226.42578125 822.560546875 1204.54296875 600 c 1
 1800 600 l 1
 1800 600 1800 900 1550 900 c 0
700 500 m 0
 550 500 400 459.400390625 400 300 c 0
 400 140.599609375 550 100 700 100 c 0
 820 100 900 280 900 380 c 1
 900.2265625 379.662109375 l 1
 900.18359375 383.094726562 900 386.59375 900 390 c 2
 900 490.50390625 l 1
 844.4609375 495.326171875 772.418945312 500 700 500 c 0
EndSplineSet
EndChar

StartChar: eth
Encoding: 240 240 183
Width: 1300
VWidth: 1200
Flags: W
HStem: 0 100<524.869 775.131> 900 100<523.926 742.004> 1000 21G<200 393.334> 1380 20G<200 200 806.667 1000>
VStem: 100 300<263.473 736.764> 900 300<264.602 748.766>
LayerCount: 2
Fore
SplineSet
200 1400 m 1xbc
 200 1400 403.893554688 1387.6875 627.501953125 1297.30859375 c 1
 850 1400 l 1
 1000 1400 l 1
 1000 1300 l 1
 803.587890625 1209.34765625 l 1
 1009.50976562 1082.94433594 1190.79296875 873.717773438 1199.53125 528.34765625 c 0
 1199.83886719 519 1200 509.553710938 1200 500 c 0
 1200 200.000976562 1042.75195312 2.5439453125 650 0 c 1
 257.248046875 2.5439453125 100 200.000976562 100 500 c 0
 100 799.999023438 250.000976562 1000 650 1000 c 0xdc
 683.256835938 1000 714.625976562 998.491210938 744.484375 995.783203125 c 1
 705.564453125 1045.88183594 661.975585938 1087.93457031 616.810546875 1123.14257812 c 1
 350 1000 l 1
 200 1000 l 1
 200 1100 l 1
 459.23828125 1219.6484375 l 1
 319.232421875 1286.22949219 200 1300 200 1300 c 1
 200 1400 l 1xbc
650 900 m 0
 500 900 400 765.666992188 400 500 c 0
 400 234.333007812 500 100 650 100 c 0
 800 100 900 234.333007812 900 500 c 0
 900 515.94921875 899.594726562 531.3671875 898.884765625 546.369140625 c 0
 898.8359375 547.486328125 898.782226562 548.598632812 898.73046875 549.712890625 c 0
 886.858398438 782.387695312 790.326171875 900 650 900 c 0
EndSplineSet
EndChar

StartChar: divide
Encoding: 247 247 187
Width: 1100
VWidth: 1200
Flags: W
HStem: 50 200<427.674 672.326> 400 200<100 1000> 750 200<427.674 672.326>
VStem: 400 300<79.2893 220.711 779.289 920.711>
CounterMasks: 1 e0
LayerCount: 2
Fore
SplineSet
100 600 m 1
 1000 600 l 1
 1000 400 l 1
 100 400 l 1
 100 600 l 1
400 850 m 0
 400 905.228515625 467.157226562 950 550 950 c 0
 632.842773438 950 700 905.228515625 700 850 c 0
 700 794.771484375 632.842773438 750 550 750 c 0
 467.157226562 750 400 794.771484375 400 850 c 0
400 150 m 0
 400 205.228515625 467.157226562 250 550 250 c 0
 632.842773438 250 700 205.228515625 700 150 c 0
 700 94.771484375 632.842773438 50 550 50 c 0
 467.157226562 50 400 94.771484375 400 150 c 0
EndSplineSet
EndChar

StartChar: oslash
Encoding: 248 248 188
Width: 1300
VWidth: 1200
Flags: W
HStem: 0 100<522.333 775.131> 900 100<523.926 778.386>
VStem: 100 300<380.317 736.764> 900 300<263.473 619.913>
LayerCount: 2
Fore
SplineSet
650 1000 m 0
 804.356445312 1000 921.345703125 970.111328125 1006.9921875 916.29296875 c 1
 1100 1000 l 1
 1200 1000 l 1
 1200 900 l 1
 1111.22265625 820.1015625 l 1
 1172.86132812 736.458984375 1200 627.280273438 1200 500 c 0
 1200 200.000976562 1042.75195312 2.5439453125 650 0 c 0
 497.771484375 0.986328125 381.06640625 31.3662109375 295.041015625 85.537109375 c 1
 200 0 l 1
 100 0 l 1
 100 100 l 1
 190.4765625 181.4296875 l 1
 128.276367188 264.643554688 100 373.095703125 100 500 c 0
 100 799.999023438 250.000976562 1000 650 1000 c 0
650 900 m 0
 500 900 400 765.666992188 400 500 c 0
 400 455.383789062 403.05078125 414.802734375 408.455078125 377.609375 c 1
 847.08203125 772.373046875 l 1
 803.260742188 857.266601562 734.584960938 900 650 900 c 0
891.544921875 622.390625 m 1
 452.91796875 227.626953125 l 1
 496.739257812 142.733398438 565.415039062 100 650 100 c 0
 800 100 900 234.333007812 900 500 c 0
 900 544.616210938 896.94921875 585.197265625 891.544921875 622.390625 c 1
EndSplineSet
EndChar

StartChar: thorn
Encoding: 254 254 190
Width: 1600
VWidth: 1200
Flags: W
HStem: -400 100<100 300 600 800> 0 100<710.05 1038.54> 900 100<710.049 1041.49> 1300 100<100 300>
VStem: 300 300<-300 100 200 800 900 1300> 1200 300<286.94 717.505>
LayerCount: 2
Fore
SplineSet
100 1400 m 1
 600 1400 l 1
 600 900 l 1
 600 900 750 1000 900 1000 c 0
 1300 1000 1500 800 1500 500 c 0
 1500 200 1292.75292969 2.5439453125 900 0 c 0
 750.002929688 -0.9716796875 600 100 600 100 c 1
 600 -300 l 1
 800 -300 l 1
 800 -400 l 1
 100 -400 l 1
 100 -300 l 1
 300 -300 l 1
 300 1300 l 1
 100 1300 l 1
 100 1400 l 1
900 900 m 0
 750 900 600 800 600 800 c 1
 600 200 l 1
 600 200 750 100 900 100 c 0
 1050 100 1200 234.333007812 1200 500 c 0
 1200 765.666992188 1050 900 900 900 c 0
EndSplineSet
EndChar

StartChar: uni1D00
Encoding: 7424 7424 192
Width: 2200
VWidth: 1200
Flags: W
HStem: 0 100<100 400 500 800 1300 1550 1850 2100> 400 100<700 1350> 1100 100<1000 1050>
LayerCount: 2
Fore
SplineSet
700 500 m 1
 1350 500 l 1
 1050 1100 l 1
 1000 1100 l 1
 700 500 l 1
950 1200 m 1
 1300 1200 l 1
 1850 100 l 1
 2100 100 l 1
 2100 0 l 1
 1300 0 l 1
 1300 100 l 1
 1550 100 l 1
 1400 400 l 1
 650 400 l 1
 500 100 l 1
 800 100 l 1
 800 0 l 1
 100 0 l 1
 100 100 l 1
 400 100 l 1
 950 1200 l 1
EndSplineSet
EndChar

StartChar: uni0000
Encoding: 0 0 193
Width: 1600
VWidth: 1200
Flags: W
HStem: -400 100<100 1500> -210 220<509.714 789.673> 675 250<395.022 574.956> 1100 110<528.084 987.102> 1300 100<100 1500>
VStem: 0 100<-300 1300> 200 175<852.907 977.367> 470 360<-171.681 -31.1326> 600 100<100 258.819> 1100 310<732.059 983.261> 1500 100<-300 1300>
LayerCount: 2
Fore
SplineSet
100 1300 m 1xfe60
 100 -300 l 1
 1500 -300 l 1
 1500 1300 l 1
 100 1300 l 1xfe60
0 1400 m 1
 1600 1400 l 1
 1600 -400 l 1
 0 -400 l 1
 0 1400 l 1
EndSplineSet
Refer: 100 63 N 1 0 0 1 100 -200 2
EndChar

StartChar: uni1D04
Encoding: 7428 7428 196
Width: 1600
VWidth: 1200
Flags: W
HStem: -10 110<699.378 1203.21> 1100 100<698.298 1147.42>
VStem: 100 400<389.615 810.621> 1400 100<1020 1200>
LayerCount: 2
Fore
SplineSet
1500 230 m 1
 1450 170 1300 -10 900 -10 c 0
 600 -10 100 150 100 600 c 0
 100 1050 600 1210 900 1210 c 0
 1200 1210 1400 1020 1400 1020 c 1
 1400 1200 l 1
 1500 1200 l 1
 1500 800 l 1
 1450 800 l 1
 1300 950 1202.00878906 1097.30175781 950 1100 c 0
 600.020507812 1103.74804688 500 950 500 600 c 0
 500 250 600 100 950 100 c 0
 1300 100 1450 280 1500 330 c 1
 1500 230 l 1
EndSplineSet
EndChar

StartChar: uni1D05
Encoding: 7429 7429 197
Width: 1900
VWidth: 1200
Flags: W
HStem: 0 100<100 300 600 1198.79> 1100 100<100 300 600 1198.6>
VStem: 300 300<100 1100> 1400 400<385.108 814.892>
LayerCount: 2
Fore
SplineSet
100 0 m 1
 100 100 l 1
 300 100 l 1
 300 1100 l 1
 100 1100 l 1
 100 1200 l 1
 1000 1200 l 2
 1500 1200 1800 950 1800 600 c 0
 1800 250 1500 0 1000 0 c 2
 100 0 l 1
1000 100 m 2
 1301.64941406 100 1400 300 1400 600 c 0
 1400 900 1300 1100 1000 1100 c 2
 600 1100 l 1
 600 100 l 1
 1000 100 l 2
EndSplineSet
EndChar

StartChar: uni1D07
Encoding: 7431 7431 198
Width: 1600
VWidth: 1200
Flags: W
HStem: 0 100<100 300 600 1133.59> 600 100<600 871.875> 1100 100<100 300 600 1133.59>
VStem: 300 300<100 600 700 1100>
LayerCount: 2
Fore
SplineSet
1100 900 m 1
 1100 400 l 1
 1050 400 l 1
 950 500 850 600 750 600 c 2
 600 600 l 1
 600 100 l 1
 1000 100 l 2
 1100 100 1250 200 1450 400 c 1
 1500 400 l 1
 1500 0 l 1
 100 0 l 1
 100 100 l 1
 300 100 l 1
 300 1100 l 1
 100 1100 l 1
 100 1200 l 1
 1500 1200 l 1
 1500 800 l 1
 1450 800 l 1
 1250 1000 1100 1100 1000 1100 c 2
 600 1100 l 1
 600 700 l 1
 750 700 l 2
 850 700 950 800 1050 900 c 1
 1100 900 l 1
EndSplineSet
EndChar

StartChar: uni0302
Encoding: 770 770 228
Width: 1100
VWidth: 1200
Flags: W
HStem: 1300 300
LayerCount: 2
Fore
SplineSet
100 1350 m 1
 450 1600 l 1
 650 1600 l 1
 1000 1350 l 1
 1000 1300 l 1
 850 1300 l 1
 550 1500 l 1
 250 1300 l 1
 100 1300 l 1
 100 1350 l 1
EndSplineSet
EndChar

StartChar: uni0306
Encoding: 774 774 232
Width: 1100
VWidth: 1200
Flags: W
HStem: 1275 125<351.256 748.702>
LayerCount: 2
Fore
SplineSet
100 1600 m 1
 175 1600 l 1
 175 1600 275 1400 550 1400 c 0
 825 1400 925 1600 925 1600 c 1
 1000 1600 l 1
 999.392578125 1453.35644531 850 1275 550 1275 c 0
 250 1275 100 1451.01953125 100 1600 c 1
EndSplineSet
EndChar

StartChar: uni026A
Encoding: 618 618 234
Width: 1100
VWidth: 1200
Flags: W
HStem: 0 100<100 400 700 1000> 1100 100<100 400 700 1000>
VStem: 400 300<100 1100>
LayerCount: 2
Fore
SplineSet
100 1200 m 1
 1000 1200 l 1
 1000 1100 l 1
 700 1100 l 1
 700 100 l 1
 1000 100 l 1
 1000 0 l 1
 100 0 l 1
 100 100 l 1
 400 100 l 1
 400 1100 l 1
 100 1100 l 1
 100 1200 l 1
EndSplineSet
EndChar

StartChar: uni1D1C
Encoding: 7452 7452 239
Width: 1900
VWidth: 1200
Flags: W
HStem: 0 100<741.602 1250.07> 1100 100<100 300 600 800 1200 1400 1600 1800>
VStem: 300 300<218.662 1100> 1400 200<219.143 1100>
LayerCount: 2
Fore
SplineSet
100 1200 m 1
 800 1200 l 1
 800 1100 l 1
 600 1100 l 1
 600 350 l 2
 600 210 700 100 1000 100 c 0
 1300 100 1400 210 1400 350 c 2
 1400 1100 l 1
 1200 1100 l 1
 1200 1200 l 1
 1800 1200 l 1
 1800 1100 l 1
 1600 1100 l 1
 1600 350 l 2
 1600 150 1350.88574219 1.908203125 950 0 c 0
 550.004882812 -1.904296875 300 150 300 350 c 2
 300 1100 l 1
 100 1100 l 1
 100 1200 l 1
EndSplineSet
EndChar

StartChar: uni0274
Encoding: 628 628 245
Width: 2000
VWidth: 1200
Flags: W
HStem: 0 100<100 300 500 700> 1100 100<100 300 1300 1500 1700 1900>
VStem: 300 200<100 950> 1500 200<350 1100>
LayerCount: 2
Fore
SplineSet
100 1200 m 1
 650 1200 l 1
 1500 350 l 1
 1500 1100 l 1
 1300 1100 l 1
 1300 1200 l 1
 1900 1200 l 1
 1900 1100 l 1
 1700 1100 l 1
 1700 0 l 1
 1450 0 l 1
 500 950 l 1
 500 100 l 1
 700 100 l 1
 700 0 l 1
 100 0 l 1
 100 100 l 1
 300 100 l 1
 300 1100 l 1
 100 1100 l 1
 100 1200 l 1
EndSplineSet
EndChar

StartChar: uni028F
Encoding: 655 655 246
Width: 1600
VWidth: 1200
Flags: W
HStem: 0 100<400 600 900 1100> 1100 100<100 300 600 700 1000 1100 1275 1500>
VStem: 600 300<100 400>
LayerCount: 2
Fore
SplineSet
100 1200 m 1
 700 1200 l 1
 700 1100 l 1
 600 1100 l 1
 850 600 l 1
 1100 1100 l 1
 1000 1100 l 1
 1000 1200 l 1
 1500 1200 l 1
 1500 1100 l 1
 1275 1100 l 1
 900 400 l 1
 900 100 l 1
 1100 100 l 1
 1100 0 l 1
 400 0 l 1
 400 100 l 1
 600 100 l 1
 600 500 l 1
 300 1100 l 1
 100 1100 l 1
 100 1200 l 1
EndSplineSet
EndChar

StartChar: uni030C
Encoding: 780 780 247
Width: 1100
VWidth: 1200
Flags: W
HStem: 1300 300
LayerCount: 2
Fore
SplineSet
100 1550 m 1
 100 1600 l 1
 250 1600 l 1
 550 1400 l 1
 850 1600 l 1
 1000 1600 l 1
 1000 1550 l 1
 650 1300 l 1
 450 1300 l 1
 100 1550 l 1
EndSplineSet
EndChar

StartChar: uni1D0F
Encoding: 7439 7439 252
Width: 1800
VWidth: 1200
Flags: W
HStem: -10 110<713.513 1086.49> 1100 110<718.022 1081.98>
VStem: 100 400<415.749 778.507> 1300 400<415.749 784.442>
LayerCount: 2
Fore
SplineSet
900 1210 m 0
 1346.02636719 1213.86425781 1700 900.704101562 1700 600 c 0
 1700 299.295898438 1350 -10 900 -10 c 0
 450 -10 100 299.295898438 100 600 c 0
 100 900.704101562 453.973632812 1206.13574219 900 1210 c 0
900 1100 m 0
 600 1100 500 857.74609375 500 600 c 0
 500 342.25390625 598.3515625 100 900 100 c 0
 1201.6484375 100 1300 342.25390625 1300 600 c 0
 1300 857.74609375 1200 1100 900 1100 c 0
EndSplineSet
EndChar

StartChar: uni030A
Encoding: 778 778 253
Width: 800
VWidth: 1200
Flags: W
HStem: 1200 100<255.219 544.781> 1500 100<255.219 544.781>
VStem: 100 125<1331.12 1468.88> 575 125<1331.12 1468.88>
LayerCount: 2
Fore
SplineSet
575 1400 m 0
 575 1455.22851562 510.45703125 1500 400 1500 c 0
 289.54296875 1500 225 1455.22851562 225 1400 c 0
 225 1344.77148438 289.54296875 1300 400 1300 c 0
 510.45703125 1300 575 1344.77148438 575 1400 c 0
700 1400 m 0
 700 1289.54296875 565.685546875 1200 400 1200 c 0
 234.314453125 1200 100 1289.54296875 100 1400 c 0
 100 1510.45703125 234.314453125 1600 400 1600 c 0
 565.685546875 1600 700 1510.45703125 700 1400 c 0
EndSplineSet
EndChar

StartChar: Dcroat
Encoding: 272 272 254
Width: 1900
VWidth: 1200
Flags: W
HStem: 0 100<100 300 600 1156.75> 700 100<100 300 600 1000> 1300 100<100 300 600 1156.75>
VStem: 300 300<100 700 800 1300> 1400 400<476.832 923.168>
LayerCount: 2
Fore
SplineSet
100 1400 m 1
 1000 1400 l 2
 1499.99902344 1400 1800 1050 1800 700 c 0
 1800 350 1499.99902344 0 1000 0 c 2
 100 0 l 1
 100 100 l 1
 300 100 l 1
 300 700 l 1
 100 700 l 1
 100 800 l 1
 300 800 l 1
 300 1300 l 1
 100 1300 l 1
 100 1400 l 1
600 1300 m 1
 600 800 l 1
 1000 800 l 1
 1000 700 l 1
 600 700 l 1
 600 100 l 1
 1000 100 l 2
 1301.6484375 100 1400 400 1400 700 c 0
 1400 1000 1300 1300 1000 1300 c 2
 600 1300 l 1
EndSplineSet
EndChar

StartChar: dcroat
Encoding: 273 273 263
Width: 1600
VWidth: 1200
Flags: W
HStem: 0 100<561.456 889.95 1300 1500> 900 100<558.509 889.951> 1100 100<400 1000 1300 1500> 1300 100<800 1000>
VStem: 100 300<286.94 717.505> 1000 300<200 800 900 1100 1200 1300>
LayerCount: 2
Fore
SplineSet
800 1400 m 1
 1300 1400 l 1
 1300 1200 l 1
 1500 1200 l 1
 1500 1100 l 1
 1300 1100 l 1
 1300 100 l 1
 1500 100 l 1
 1500 0 l 1
 1200 0 l 1
 1000 100 l 1
 1000 100 849.997070312 -0.9716796875 700 0 c 0
 307.247070312 2.5439453125 100 200 100 500 c 0
 100 800 300 1000 700 1000 c 0
 850 1000 1000 900 1000 900 c 1
 1000 1100 l 1
 400 1100 l 1
 400 1200 l 1
 1000 1200 l 1
 1000 1300 l 1
 800 1300 l 1
 800 1400 l 1
700 900 m 0
 550 900 400 765.666992188 400 500 c 0
 400 234.333007812 550 100 700 100 c 0
 850 100 1000 200 1000 200 c 1
 1000 800 l 1
 1000 800 850 900 700 900 c 0
EndSplineSet
EndChar

StartChar: fraction
Encoding: 8260 8260 264
Width: 1200
VWidth: 1200
Flags: W
LayerCount: 2
Fore
SplineSet
100 200 m 1
 100 250 l 1
 1050 1200 l 1
 1100 1200 l 1
 1100 1100 l 1
 200 200 l 1
 100 200 l 1
EndSplineSet
EndChar

StartChar: uni2070
Encoding: 8304 8304 265
Width: 900
VWidth: 1200
Flags: W
HStem: 700 100<280.908 619.092> 1300 100<283.124 616.876>
VStem: 100 150<854.688 1245.25> 650 150<854.688 1245.37>
LayerCount: 2
Fore
SplineSet
650 1175 m 2
 650 1275 574.708007812 1300 450 1300 c 0
 325.291992188 1300 250 1275 250 1175 c 2
 250 925 l 2
 250 825 325 800 450 800 c 0
 575 800 650 825 650 925 c 2
 650 1175 l 2
450 1400 m 0
 626.783203125 1400.31835938 800 1325 800 1050 c 0
 800 775 625 700 450 700 c 0
 275 700 100 775 100 1050 c 0
 100 1325 273.216796875 1399.68164062 450 1400 c 0
EndSplineSet
EndChar

StartChar: uni2074
Encoding: 8308 8308 270
Width: 900
VWidth: 1200
Flags: W
HStem: 700 100<350 500 650 750> 900 100<250 500 650 800> 1380 20G<530 650>
VStem: 500 150<800 900 1000 1250>
LayerCount: 2
Fore
SplineSet
500 1000 m 1
 500 1250 l 1
 250 1000 l 1
 500 1000 l 1
750 700 m 1
 350 700 l 1
 350 800 l 1
 500 800 l 1
 500 900 l 1
 100 900 l 1
 100 950 l 1
 550 1400 l 1
 650 1400 l 1
 650 1000 l 1
 800 1000 l 1
 800 900 l 1
 650 900 l 1
 650 800 l 1
 750 800 l 1
 750 700 l 1
EndSplineSet
EndChar

StartChar: OE
Encoding: 338 338 279
Width: 2500
VWidth: 1200
Flags: W
HStem: 0 100<736.426 1200 1500 2033.59> 700 100<1500 1771.88> 980 20G<1900 2000> 1000 21G<2250 2400> 1300 100<736.426 1200 1500 2033.59>
VStem: 100 400<491.288 908.712> 1200 300<100 700 800 1300>
LayerCount: 2
Fore
SplineSet
900 100 m 2xce
 1000 100 l 1
 1200 100 l 1
 1200 1300 l 1
 1000 1300 l 1
 900 1300 l 2
 600 1300 500 1000 500 700 c 0
 500 400 598.3515625 100 900 100 c 2xce
1000 0 m 1
 900 0 l 2
 450 0 100 350 100 700 c 0
 100 1050 450 1400 900 1400 c 2
 1000 1400 l 1
 2400 1400 l 1
 2400 1000 l 1
 2350 1000 l 1xde
 2150 1200 2000 1300 1900 1300 c 2
 1500 1300 l 1
 1500 800 l 1
 1650 800 l 2
 1750 800 1850 900 1950 1000 c 1
 2000 1000 l 1xee
 2000 500 l 1
 1950 500 l 1
 1850 600 1750 700 1650 700 c 2
 1500 700 l 1
 1500 100 l 1
 1900 100 l 2
 2000 100 2150 200 2350 400 c 1
 2400 400 l 1
 2400 0 l 1
 1000 0 l 1
EndSplineSet
EndChar

StartChar: oe
Encoding: 339 339 280
Width: 2200
VWidth: 1200
Flags: W
HStem: 0 100<524.869 777.146 1338.23 1815.45> 500 100<1204.54 1800> 900 100<523.926 777.834 1338.13 1686.61>
VStem: 100 300<263.473 736.764> 900 300<249.411 500 600 747.904>
LayerCount: 2
Fore
SplineSet
650 1000 m 4
 856.23828125 1000 995.87109375 946.723632812 1082.89648438 854.09375 c 5
 1202.50488281 946.723632812 1369.54101562 1000 1550 1000 c 4
 1999.99902344 1000 2100 700 2100 500 c 5
 1200 500 l 5
 1200 200 1300 100 1550 100 c 4
 1900 100 2075 300 2075 300 c 5
 2075 200 l 5
 2075 200 1932.48632812 -3.5986328125 1550 0 c 4
 1368.86035156 1.7041015625 1201.23535156 55.3251953125 1081.53320312 148.15625 c 5
 993.595703125 55.0556640625 853.471679688 1.318359375 650 0 c 4
 257.248046875 2.5439453125 100 200.000976562 100 500 c 4
 100 799.999023438 250.000976562 1000 650 1000 c 4
650 900 m 4
 500 900 400 765.666992188 400 500 c 4
 400 234.333007812 500 100 650 100 c 4
 800 100 900 234.333007812 900 500 c 4
 900 765.666992188 800 900 650 900 c 4
1550 900 m 4
 1330.20019531 900 1226.42578125 822.560546875 1204.54296875 600 c 5
 1800 600 l 5
 1800 600 1800 900 1550 900 c 4
EndSplineSet
EndChar

StartChar: Eng
Encoding: 330 330 281
Width: 2000
VWidth: 1200
Flags: W
HStem: -400 100<1082.54 1301.76> 0 100<100 300 500 700> 1300 100<100 300 1300 1500 1700 1900>
VStem: 300 200<100 1050> 900 300<-262.318 -104.525> 1400 300<-166.634 150> 1500 200<450 1300>
LayerCount: 2
Fore
SplineSet
1700 1300 m 1xfa
 1700 0 l 2
 1700 -320 1349.77441406 -400 1200 -400 c 0
 998.576171875 -395.12890625 900 -296.430664062 900 -200 c 0
 900 -102.170898438 975 -75 1050 -75 c 0
 1167.78417969 -75 1200 -125 1200 -175 c 0
 1200 -290 1080 -280 1080 -280 c 1
 1080 -280 1099.86035156 -300.899414062 1200 -300 c 0
 1320 -300 1400 -170 1400 0 c 2
 1400 150 l 1xfc
 500 1050 l 1
 500 100 l 1
 700 100 l 1
 700 0 l 1
 100 0 l 1
 100 100 l 1
 300 100 l 1
 300 1300 l 1
 100 1300 l 1
 100 1400 l 1
 550 1400 l 1
 1500 450 l 1
 1500 1300 l 1
 1300 1300 l 1
 1300 1400 l 1
 1900 1400 l 1
 1900 1300 l 1
 1700 1300 l 1xfa
EndSplineSet
EndChar

StartChar: eng
Encoding: 331 331 282
Width: 1500
VWidth: 1200
Flags: W
HStem: -400 100<782.535 1001.76> 0 100<100 300 600 800> 900 100<100 300 811.716 1063.16>
VStem: 300 300<100 600 730 900> 600 300<-262.318 -104.525> 1100 300<-166.634 832.134>
LayerCount: 2
Fore
SplineSet
100 1000 m 1xf4
 600 1000 l 1xec
 600 730 l 1xf4
 600 730 700 1000 960 1000 c 0
 1300 1000 1400.89941406 800.209960938 1400 720 c 2
 1400 0 l 2
 1400 -320 1049.77441406 -400 900 -400 c 0
 698.576171875 -395.12890625 600 -296.430664062 600 -200 c 0
 600 -102.170898438 675 -75 750 -75 c 0
 867.784179688 -75 900 -125 900 -175 c 0
 900 -290 780 -280 780 -280 c 1
 780 -280 799.860351562 -300.899414062 900 -300 c 0xec
 1020 -300 1100 -170 1100 0 c 2
 1100 700 l 2
 1100 800 1099.99804688 899.267578125 960 900 c 0
 716.747070312 901.272460938 600 600 600 600 c 1
 600 100 l 1
 800 100 l 1
 800 0 l 1
 100 0 l 1
 100 100 l 1
 300 100 l 1
 300 900 l 1
 100 900 l 1
 100 1000 l 1xf4
EndSplineSet
EndChar

StartChar: kgreenlandic
Encoding: 312 312 283
Width: 1700
VWidth: 1200
Flags: W
HStem: 0 100<100 300 600 800 1000 1150 1450 1600> 900 100<100 300 800 1050 1250 1500>
VStem: 300 300<100 350 450 900>
LayerCount: 2
Fore
SplineSet
100 1000 m 1
 600 1000 l 1
 600 450 l 1
 1050 900 l 1
 800 900 l 1
 800 1000 l 1
 1500 1000 l 1
 1500 900 l 1
 1250 900 l 1
 950 600 l 1
 1450 100 l 1
 1600 100 l 1
 1600 0 l 1
 1000 0 l 1
 1000 100 l 1
 1150 100 l 1
 750 500 l 1
 600 350 l 1
 600 100 l 1
 800 100 l 1
 800 0 l 1
 100 0 l 1
 100 100 l 1
 300 100 l 1
 300 900 l 1
 100 900 l 1
 100 1000 l 1
EndSplineSet
EndChar

StartChar: Lslash
Encoding: 321 321 284
Width: 1600
VWidth: 1200
Flags: W
HStem: 0 100<100 300 600 1133.59> 1300 100<100 300 600 900>
VStem: 300 300<100 625 950 1300>
LayerCount: 2
Fore
SplineSet
100 1400 m 1
 900 1400 l 1
 900 1300 l 1
 600 1300 l 1
 600 950 l 1
 900 1100 l 1
 1050 1100 l 1
 1050 1000 l 1
 600 775 l 1
 600 100 l 1
 1000 100 l 2
 1100 100 1250.00097656 200.000976562 1450 400 c 1
 1500 400 l 1
 1500 0 l 1
 100 0 l 1
 100 100 l 1
 300 100 l 1
 300 625 l 1
 250 600 l 1
 100 600 l 1
 100 700 l 1
 300 800 l 1
 300 1300 l 1
 100 1300 l 1
 100 1400 l 1
EndSplineSet
EndChar

StartChar: lslash
Encoding: 322 322 285
Width: 1350
VWidth: 1200
Flags: W
HStem: 0 100<300 500 800 1000> 1300 100<300 500>
VStem: 500 300<100 625 950 1300>
LayerCount: 2
Fore
SplineSet
300 1400 m 1
 800 1400 l 1
 800 950 l 1
 1100 1100 l 1
 1250 1100 l 1
 1250 1000 l 1
 800 775 l 1
 800 100 l 1
 1000 100 l 1
 1000 0 l 1
 300 0 l 1
 300 100 l 1
 500 100 l 1
 500 625 l 1
 250 500 l 1
 100 500 l 1
 100 600 l 1
 500 800 l 1
 500 1300 l 1
 300 1300 l 1
 300 1400 l 1
EndSplineSet
EndChar

StartChar: ij
Encoding: 307 307 286
Width: 1630
VWidth: 1200
Flags: W
HStem: -400 100<570.85 1094.25> 0 100<100 300 600 800> 900 100<100 300 1000 1200> 1090 220<309.714 589.673 1209.71 1489.67>
VStem: 270 360<1128.32 1268.87> 300 300<-254.989 -129.525 100 900> 1170 360<1128.32 1268.87> 1200 300<-169.211 900>
LayerCount: 2
Fore
SplineSet
600 1000 m 1xf4
 600 100 l 1
 800 100 l 1
 800 0 l 1
 100 0 l 1
 100 100 l 1
 300 100 l 1
 300 900 l 1
 100 900 l 1
 100 1000 l 1
 600 1000 l 1xf4
1000 1000 m 1
 1500 1000 l 1
 1500 0 l 2
 1500 -300 1201.27441406 -400 900 -400 c 0
 500 -400 300 -321.430664062 300 -225 c 0
 300 -127.170898438 375 -100 450 -100 c 0
 567.784179688 -100 600 -135 600 -185 c 0
 600 -240 560 -255 560 -255 c 1
 560 -255 597.587890625 -297.083007812 900 -300 c 0
 1079.99121094 -301.736328125 1200 -250 1200 0 c 2
 1200 900 l 1xf5
 1000 900 l 1
 1000 1000 l 1
EndSplineSet
Refer: 83 46 S 1 0 0 1 1100 1100 2
Refer: 83 46 N 1 0 0 1 200 1100 2
EndChar

StartChar: IJ
Encoding: 306 306 288
Width: 2200
VWidth: 1200
Flags: W
HStem: -410 110<686.494 1381.71> 0 100<100 400 700 1000> 1300 100<100 400 700 1000 1200 1500 1800 2100>
VStem: 400 300<100 1300> 1500 300<-178.257 1300>
LayerCount: 2
Fore
SplineSet
100 1400 m 1
 1000 1400 l 1
 1000 1300 l 1
 700 1300 l 1
 700 100 l 1
 1000 100 l 1
 1000 0 l 1
 100 0 l 1
 100 100 l 1
 400 100 l 1
 400 1300 l 1
 100 1300 l 1
 100 1400 l 1
1100 -300 m 0
 1480 -300 1500 -175 1500 -50 c 2
 1500 1300 l 1
 1200 1300 l 1
 1200 1400 l 1
 2100 1400 l 1
 2100 1300 l 1
 1800 1300 l 1
 1800 -50 l 2
 1800 -260 1498.34179688 -410 1100 -410 c 0
 700 -410 400 -400 400 -225 c 0
 400 -175 427.7734375 -76.8515625 550 -80 c 0
 669.959960938 -83.08984375 725 -200 675 -250 c 1
 740 -300 785.462890625 -300 1100 -300 c 0
EndSplineSet
EndChar

StartChar: longs
Encoding: 383 383 289
Width: 1200
VWidth: 1200
Flags: W
HStem: 0 100<100 300 600 800> 1300 100<654.232 916.895>
VStem: 300 300<100 1198.6> 800 300<1104.53 1258.72>
LayerCount: 2
Fore
SplineSet
600 1000 m 2
 600 100 l 1
 800 100 l 1
 800 0 l 1
 100 0 l 1
 100 100 l 1
 300 100 l 1
 300 1000 l 2
 300 1300 498.725585938 1400 800 1400 c 0
 1000 1400 1100 1296.43066406 1100 1200 c 0
 1100 1102.17089844 1025 1075 950 1075 c 0
 832.215820312 1075 800 1125 800 1175 c 0
 800 1290 920 1280 920 1280 c 1
 920 1280 900.139648438 1300.89941406 800 1300 c 0
 620.0078125 1298.3828125 600 1250 600 1000 c 2
EndSplineSet
EndChar

StartChar: lacute
Encoding: 314 314 290
Width: 900
VWidth: 1200
Flags: W
HStem: 0 100<100 300 600 800> 1100 100<100 300> 1300 300
VStem: 300 300<100 1100> 400 500
LayerCount: 2
Fore
SplineSet
600 1200 m 1xf0
 600 100 l 1
 800 100 l 1
 800 0 l 1
 100 0 l 1
 100 100 l 1
 300 100 l 1
 300 1100 l 1
 100 1100 l 1
 100 1200 l 1
 600 1200 l 1xf0
EndSplineSet
Refer: 129 180 N 1 0 0 1 300 0 2
EndChar

StartChar: jcircumflex
Encoding: 309 309 291
Width: 1400
VWidth: 1200
Flags: HW
HStem: -400 100<305.874 594.21> -20 20G<212.5 308.892> 900 100<500 700> 1100 300
VStem: 100 300<-185.769 -29.5252> 700 300<-170.028 900>
LayerCount: 2
Fore
SplineSet
500 1000 m 1
 1000 1000 l 1
 1000 0 l 2
 1000 -300 701.186523438 -407.283203125 400 -400 c 0
 198.576171875 -395.12890625 100 -221.430664062 100 -125 c 0
 100 -27.1708984375 175 0 250 0 c 0
 367.784179688 0 400 -50 400 -100 c 0
 400 -215 280 -205 280 -205 c 1
 280 -205 299.860351562 -300.899414062 400 -300 c 0
 579.9921875 -298.3828125 700 -250 700 0 c 2
 700 900 l 1
 500 900 l 1
 500 1000 l 1
EndSplineSet
Refer: 420 710 S 1 0 0 1 300 -200 2
EndChar

StartChar: Hbar
Encoding: 294 294 292
Width: 1900
VWidth: 1200
Flags: W
HStem: 0 100<100 300 600 800 1100 1300 1600 1800> 700 100<600 1300> 1000 100<100 300 600 1300 1600 1800> 1300 100<100 300 600 800 1100 1300 1600 1800>
VStem: 300 300<100 700 800 1000 1100 1300> 1300 300<100 700 800 1000 1100 1300>
LayerCount: 2
Fore
SplineSet
100 1400 m 1
 800 1400 l 1
 800 1300 l 1
 600 1300 l 1
 600 1100 l 1
 1300 1100 l 1
 1300 1300 l 1
 1100 1300 l 1
 1100 1400 l 1
 1800 1400 l 1
 1800 1300 l 1
 1600 1300 l 1
 1600 1100 l 1
 1800 1100 l 1
 1800 1000 l 1
 1600 1000 l 1
 1600 100 l 1
 1800 100 l 1
 1800 0 l 1
 1100 0 l 1
 1100 100 l 1
 1300 100 l 1
 1300 700 l 1
 600 700 l 1
 600 100 l 1
 800 100 l 1
 800 0 l 1
 100 0 l 1
 100 100 l 1
 300 100 l 1
 300 1000 l 1
 100 1000 l 1
 100 1100 l 1
 300 1100 l 1
 300 1300 l 1
 100 1300 l 1
 100 1400 l 1
600 1000 m 1
 600 800 l 1
 1300 800 l 1
 1300 1000 l 1
 600 1000 l 1
EndSplineSet
EndChar

StartChar: hbar
Encoding: 295 295 293
Width: 1600
VWidth: 1200
Flags: W
HStem: 0 100<100 300 600 800 1400 1600> 900 100<710.049 1015.94> 1100 100<100 300 600 1000> 1300 100<100 300>
VStem: 300 300<100 800 900 1100 1200 1300> 1100 300<100 718.989>
LayerCount: 2
Fore
SplineSet
100 1400 m 1
 600 1400 l 1
 600 1200 l 1
 1000 1200 l 1
 1000 1100 l 1
 600 1100 l 1
 600 900 l 1
 600 900 609.375 906.3046875 625.78125 915.748046875 c 0
 642.1875 925.19140625 665.625976562 937.775390625 693.75 950.330078125 c 0
 707.8125 956.607421875 723.049804688 962.877929688 739.162109375 968.74609375 c 0
 787.501953125 986.349609375 843.750976562 1000.33007812 900 1000 c 0
 976.611328125 999.549804688 1046.16699219 986.82421875 1107.40625 963.302734375 c 1
 1107.40820312 963.302734375 l 1
 1138.02734375 951.541992188 1166.56738281 937.08203125 1192.87109375 920.107421875 c 1
 1192.87304688 920.107421875 l 1
 1324.39355469 835.234375 1400 687.499023438 1400 500 c 2
 1400 100 l 1
 1600 100 l 1
 1600 0 l 1
 1100 0 l 1
 1100 500 l 2
 1100 765.666992188 1050 900 900 900 c 0
 750 900 600 800 600 800 c 1
 600 100 l 1
 800 100 l 1
 800 0 l 1
 100 0 l 1
 100 100 l 1
 300 100 l 1
 300 1100 l 1
 100 1100 l 1
 100 1200 l 1
 300 1200 l 1
 300 1300 l 1
 100 1300 l 1
 100 1400 l 1
EndSplineSet
EndChar

StartChar: Tbar
Encoding: 358 358 294
Width: 1500
VWidth: 1200
Flags: W
HStem: 0 100<300 600 900 1200> 600 100<200 600 900 1300> 1000 21G<100 250 1250 1400> 1300 100<466.406 600 900 1033.59>
VStem: 600 300<100 600 700 1300>
LayerCount: 2
Fore
SplineSet
100 1400 m 1
 1400 1400 l 1
 1400 1000 l 1
 1350 1000 l 1
 1150.00097656 1199.99902344 1000 1300 900 1300 c 1
 900 700 l 1
 1300 700 l 1
 1300 600 l 1
 900 600 l 1
 900 100 l 1
 1200 100 l 1
 1200 0 l 1
 300 0 l 1
 300 100 l 1
 600 100 l 1
 600 600 l 1
 200 600 l 1
 200 700 l 1
 600 700 l 1
 600 1300 l 1
 500 1300 349.999023438 1199.99902344 150 1000 c 1
 100 1000 l 1
 100 1400 l 1
EndSplineSet
EndChar

StartChar: tbar
Encoding: 359 359 295
Width: 1000
VWidth: 1200
Flags: W
HStem: 0 100<620.816 822.863> 600 100<100 300 600 900> 900.15 99.8496<100 300 600 900>
VStem: 300 300<118.816 600 700 900 1000 1050>
LayerCount: 2
Fore
SplineSet
550 1300 m 1
 600 1300 l 1
 600 1000 l 1
 900 1000 l 1
 900 900 l 1
 600 900.150390625 l 1
 600 700 l 1
 900 700 l 1
 900 600 l 1
 600 600 l 1
 600 300 l 2
 600 200 598.978515625 97.4560546875 700 100 c 0
 799.967773438 102.517578125 900 200 900 200 c 1
 900 100 l 1
 900 100 800 0 700 0 c 0
 400 0 300 0 300 300 c 2
 300 600 l 1
 100 600 l 1
 100 700 l 1
 300 700 l 1
 300 900 l 1
 100 900 l 1
 100 1000 l 1
 300 1000 l 1
 300 1050 l 1
 550 1300 l 1
EndSplineSet
EndChar

StartChar: uni0326
Encoding: 806 806 300
Width: 500
VWidth: 1200
Flags: W
HStem: -240 150<111.914 190>
LayerCount: 2
Fore
SplineSet
100 -330 m 1
 100 -330 190 -330 190 -240 c 1
 120 -240 100 -218.626953125 100 -170 c 0
 100 -121.372070312 150 -90 250 -90 c 0
 350 -90 400 -128.823242188 400 -220 c 0
 400 -362.352539062 190 -400 100 -400 c 1
 100 -330 l 1
EndSplineSet
EndChar

StartChar: uni1D21
Encoding: 7457 7457 333
Width: 2700
VWidth: 1200
Flags: W
HStem: 0 21G<840 1110 1640 1910> 1100 100<100 300 650 700 900 1100 1450 1600 2100 2300 2450 2600>
LayerCount: 2
Fore
SplineSet
100 1200 m 1
 700 1200 l 1
 700 1100 l 1
 650 1100 l 1
 1075 250 l 1
 1300 700 l 1
 1100 1100 l 1
 900 1100 l 1
 900 1200 l 1
 1600 1200 l 1
 1600 1100 l 1
 1450 1100 l 1
 1875 250 l 1
 2300 1100 l 1
 2100 1100 l 1
 2100 1200 l 1
 2600 1200 l 1
 2600 1100 l 1
 2450 1100 l 1
 1900 0 l 1
 1650 0 l 1
 1375 550 l 1
 1100 0 l 1
 850 0 l 1
 300 1100 l 1
 100 1100 l 1
 100 1200 l 1
EndSplineSet
EndChar

StartChar: uni1D22
Encoding: 7458 7458 334
Width: 1600
VWidth: 1200
Flags: W
HStem: 0 100<450 1133.59> 1100 100<466.406 1050>
LayerCount: 2
Fore
SplineSet
100 1200 m 1
 1500 1200 l 1
 1500 1150 l 1
 450 100 l 1
 1000 100 l 2
 1100 100 1250 200 1450 400 c 1
 1500 400 l 1
 1500 0 l 1
 100 0 l 1
 100 150 l 1
 1050 1100 l 1
 600 1100 l 2
 500 1100 350 1000 150 800 c 1
 100 800 l 1
 100 1200 l 1
EndSplineSet
EndChar

StartChar: uni1D1B
Encoding: 7451 7451 339
Width: 1500
VWidth: 1200
Flags: W
HStem: 0 100<300 600 900 1200> 1100 100<466.406 600 900 1033.59>
VStem: 600 300<100 1100>
LayerCount: 2
Fore
SplineSet
100 1200 m 1
 1400 1200 l 1
 1400 800 l 1
 1350 800 l 1
 1150 1000 1000 1100 900 1100 c 1
 900 100 l 1
 1200 100 l 1
 1200 0 l 1
 300 0 l 1
 300 100 l 1
 600 100 l 1
 600 1100 l 1
 500 1100 350 1000 150 800 c 1
 100 800 l 1
 100 1200 l 1
EndSplineSet
EndChar

StartChar: uniA731
Encoding: 42801 42801 343
Width: 1500
VWidth: 1200
Flags: HW
HStem: 0 100<229.74 367.742> 600 100<232.258 370.26>
VStem: 0 200<127.262 200 435.264 570.845> 400 200<129.223 264.736 500 572.738>
LayerCount: 2
Fore
SplineSet
200 500 m 1
 200 299.293945312 l 1
 260 256.3359375 500 100 750 100 c 0
 1000 100 1200 187.603515625 1200 273.51953125 c 0
 1200 393.80078125 1030 459.717773438 560 580 c 0
 287.161132812 649.82421875 100 711.689453125 100 900.703125 c 0
 100 1072.53515625 320 1210 700 1210 c 0
 1020 1210 1200 1072.53515625 1200 1072.53515625 c 1
 1200 1201.40820312 l 1
 1300 1201.40820312 l 1
 1300 800 l 1
 1250 800 l 1
 1200 842.958007812 1090 1100 700 1100 c 0
 400 1100 300 1053.07617188 300 986.619140625 c 0
 300 917.88671875 440.029296875 858.555664062 750 790 c 0
 1087.0390625 715.458007812 1400 617.181640625 1400 385.209960938 c 0
 1400 179.01171875 1099.98828125 -7.50390625 750 -10.0029296875 c 0
 479.310546875 -11.9345703125 200 170.419921875 200 170.419921875 c 1
 200 -1.4111328125 l 1
 100 -1.4111328125 l 1
 100 500 l 1
 200 500 l 1
EndSplineSet
EndChar

StartChar: uniA731
Encoding: 42801 42801 344
Width: 1500
VWidth: 1200
Flags: W
HStem: -10.0029 110.003<514.171 1027.88> 1100 110<375.319 945.187>
VStem: 100 200<818.029 1023> 100 100<-1.41113 170.42 271.882 500> 1200 200<251.911 490.853> 1200 100<1072.54 1201.41>
LayerCount: 2
Fore
SplineSet
200 500 m 1xd8
 200 299.293945312 l 1
 260 256.3359375 500 100 750 100 c 0
 1000 100 1200 187.603515625 1200 273.51953125 c 0xd8
 1200 393.80078125 1030 459.717773438 560 580 c 0
 287.161132812 649.82421875 100 711.689453125 100 900.703125 c 0
 100 1072.53515625 320 1210 700 1210 c 0
 1020 1210 1200 1072.53515625 1200 1072.53515625 c 1
 1200 1201.40820312 l 1
 1300 1201.40820312 l 1
 1300 800 l 1
 1250 800 l 1
 1200 842.958007812 1090 1100 700 1100 c 0
 400 1100 300 1053.07617188 300 986.619140625 c 0xe4
 300 917.88671875 440.029296875 858.555664062 750 790 c 0
 1087.0390625 715.458007812 1400 617.181640625 1400 385.209960938 c 0
 1400 179.01171875 1099.98828125 -7.50390625 750 -10.0029296875 c 0
 479.310546875 -11.9345703125 200 170.419921875 200 170.419921875 c 1
 200 -1.4111328125 l 1
 100 -1.4111328125 l 1
 100 500 l 1
 200 500 l 1xd8
EndSplineSet
EndChar

StartChar: uni0280
Encoding: 640 640 348
Width: 1800
VWidth: 1200
Flags: W
HStem: 0 100<100 300 600 900 1542.81 1700> 500 100<600 1121.48> 1100 100<100 300 600 1116.51>
VStem: 300 300<100 500 600 1100> 1200 300<141.864 457.246 681.943 1005.63>
LayerCount: 2
Fore
SplineSet
100 1200 m 1
 1000 1200 l 2
 1250 1200 1504.49804688 1099.26464844 1500 840 c 0
 1497.68066406 706.301757812 1431.18359375 620.172851562 1333.1171875 568.015625 c 1
 1426.82519531 531.27734375 1500 455.389648438 1500 300 c 0
 1500 100 1600 100 1700 100 c 1
 1700 0 l 1
 1400 0 l 2
 1310 0 1198.84667969 100.00390625 1200 300 c 0
 1200.89941406 455.921875 1150 500 1000 500 c 2
 600 500 l 1
 600 100 l 1
 900 100 l 1
 900 0 l 1
 100 0 l 1
 100 100 l 1
 300 100 l 1
 300 1100 l 1
 100 1100 l 1
 100 1200 l 1
600 1100 m 1
 600 600 l 1
 1000 600 l 2
 1120 600 1200 690 1200 850 c 0
 1200 1010 1120 1100 1000 1100 c 2
 600 1100 l 1
EndSplineSet
EndChar

StartChar: uni0262
Encoding: 610 610 352
Width: 2000
VWidth: 1200
Flags: W
HStem: -10 110<699.378 1178.94> 0 21G<1540 1600> 400 100<1000 1300 1600 1900> 1100 100<698.298 1212.87>
VStem: 100 400<389.616 810.613> 1300 300<172.556 400> 1500 100<1020 1200>
LayerCount: 2
Fore
SplineSet
900 1210 m 0xbc
 1300 1210 1500 1020 1500 1020 c 1
 1500 1200 l 1
 1600 1200 l 1
 1600 800 l 1xba
 1550 800 l 1
 1400 950 1297.36132812 1096.40136719 950 1100 c 0
 600.01953125 1103.625 500 950 500 600 c 0
 500 250 600 100 950 100 c 0
 1170 100 1270.45898438 181.272460938 1300 200 c 1
 1300 400 l 1
 1000 400 l 1
 1000 500 l 1
 1900 500 l 1
 1900 400 l 1
 1600 400 l 1xbc
 1600 0 l 1x7a
 1300 100 l 1
 1270 80 1170 -10 900 -10 c 0
 600 -10 100 150.000976562 100 600 c 0
 100 1050 600 1210 900 1210 c 0xbc
EndSplineSet
EndChar

StartChar: uni029C
Encoding: 668 668 357
Width: 1900
VWidth: 1200
Flags: W
HStem: 0 100<100 300 600 800 1100 1300 1600 1800> 600 100<600 1300> 1100 100<100 300 600 800 1100 1300 1600 1800>
VStem: 300 300<100 600 700 1100> 1300 300<100 600 700 1100>
LayerCount: 2
Fore
SplineSet
100 1200 m 1
 800 1200 l 1
 800 1100 l 1
 600 1100 l 1
 600 700 l 1
 1300 700 l 1
 1300 1100 l 1
 1100 1100 l 1
 1100 1200 l 1
 1800 1200 l 1
 1800 1100 l 1
 1600 1100 l 1
 1600 100 l 1
 1800 100 l 1
 1800 0 l 1
 1100 0 l 1
 1100 100 l 1
 1300 100 l 1
 1300 600 l 1
 600 600 l 1
 600 100 l 1
 800 100 l 1
 800 0 l 1
 100 0 l 1
 100 100 l 1
 300 100 l 1
 300 1100 l 1
 100 1100 l 1
 100 1200 l 1
EndSplineSet
EndChar

StartChar: uni1D0A
Encoding: 7434 7434 359
Width: 1500
VWidth: 1200
Flags: W
HStem: -10 110<312.266 721.5> 280 240<292.477 488.024> 1100 100<500 800 1100 1400>
VStem: 800 300<221.743 1100>
LayerCount: 2
Fore
SplineSet
1100 350 m 2
 1100 140 800 -10 550 -10 c 0
 300 -10 97.22265625 110.020507812 100 300 c 0
 101.908203125 430.546875 270 520 350 520 c 0
 450 520 520 480 520 400 c 0
 520 350 475 280 400 280 c 0
 325 280 290 310 275 350 c 1
 210 280 180 100 550 100 c 0
 780 100 800 225 800 350 c 2
 800 1100 l 1
 500 1100 l 1
 500 1200 l 1
 1400 1200 l 1
 1400 1100 l 1
 1100 1100 l 1
 1100 350 l 2
EndSplineSet
EndChar

StartChar: uni029F
Encoding: 671 671 360
Width: 1600
VWidth: 1200
Flags: W
HStem: 0 100<100 300 600 1133.59> 1100 100<100 300 600 900>
VStem: 300 300<100 1100>
LayerCount: 2
Fore
SplineSet
600 100 m 1
 1000 100 l 2
 1100 100 1250 200 1450 400 c 1
 1500 400 l 1
 1500 0 l 1
 100 0 l 1
 100 100 l 1
 300 100 l 1
 300 1100 l 1
 100 1100 l 1
 100 1200 l 1
 900 1200 l 1
 900 1100 l 1
 600 1100 l 1
 600 100 l 1
EndSplineSet
EndChar

StartChar: uni1D18
Encoding: 7448 7448 362
Width: 1600
VWidth: 1100
Flags: W
HStem: 0 100<100 300 600 900> 500 100<600 1115.96> 1100 100<100 300 600 1116.51>
VStem: 300 300<100 500 600 1100> 1200 300<685.866 1005.63>
LayerCount: 2
Fore
SplineSet
1000 500 m 2
 600 500 l 1
 600 100 l 1
 900 100 l 1
 900 0 l 1
 100 0 l 1
 100 100 l 1
 300 100 l 1
 300 1100 l 1
 100 1100 l 1
 100 1200 l 1
 1000 1200 l 2
 1250 1200 1504.49804688 1099.265625 1500 840 c 0
 1495.50195312 580.734375 1250 500 1000 500 c 2
600 1100 m 1
 600 600 l 1
 1000 600 l 2
 1120 600 1200 690 1200 850 c 0
 1200 1010 1120 1100 1000 1100 c 2
 600 1100 l 1
EndSplineSet
EndChar

StartChar: colonmonetary
Encoding: 8353 8353 363
Width: 1600
VWidth: 1200
Flags: W
HStem: -9.8418 109.842<925.07 1199.27> 1000 21G<1388.61 1500> 1284.96 100.256<1085.65 1178.48> 1296.28 113.725<888.713 974.852>
VStem: 100 400<484.898 914.096> 1400 100<1220 1400>
LayerCount: 2
Fore
SplineSet
800 1500 m 1xec
 900 1500 l 1
 888.712890625 1409.70117188 l 1
 892.459960938 1409.77929688 896.311523438 1410 900 1410 c 0xdc
 930.505859375 1410 959.677734375 1407.61523438 988.009765625 1404.0859375 c 1
 1000 1500 l 1
 1100 1500 l 1
 1085.65234375 1385.21875 l 1
 1279.45703125 1333.88769531 1400 1220 1400 1220 c 1
 1400 1400 l 1
 1500 1400 l 1
 1500 1000 l 1
 1450 1000 l 1
 1327.22851562 1122.77148438 1239.17578125 1243.61328125 1073.12109375 1284.96289062 c 1
 925.0703125 100.56640625 l 1
 933.276367188 100.2734375 941.500976562 100 950 100 c 0
 1300 100 1450 280 1500 330 c 1
 1500 230 l 1
 1450.47851562 170.57421875 1302.70898438 -6.4541015625 911.26953125 -9.841796875 c 1
 900 -100 l 1
 800 -100 l 1
 812.08203125 -3.345703125 l 1
 780.61328125 1.173828125 747.936523438 7.962890625 714.625 17.00390625 c 1
 700 -100 l 1
 600 -100 l 1
 618.599609375 48.794921875 l 1
 360.729492188 149.235351562 100 375.043945312 100 700 c 0
 100 1097.29101562 489.662109375 1346.34570312 787.408203125 1399.27148438 c 1
 800 1500 l 1xec
950 1300 m 0
 923.361328125 1300.28515625 898.34375 1298.90234375 874.53515625 1296.27539062 c 1
 730.658203125 145.267578125 l 1
 759.315429688 130.973632812 791.2109375 119.91796875 826.537109375 112.29296875 c 1
 974.8515625 1298.81640625 l 1
 966.599609375 1299.24023438 958.603515625 1299.90820312 950 1300 c 0
771.685546875 1273.48828125 m 1
 564.716796875 1200.20898438 500 981.247070312 500 700 c 0
 500 490.984375 535.71875 317.685546875 638.9921875 211.943359375 c 1
 771.685546875 1273.48828125 l 1
EndSplineSet
EndChar

StartChar: uni20A2
Encoding: 8354 8354 364
Width: 1600
VWidth: 1200
Flags: W
HStem: -10 21G<750 1100> 700 100<715.162 800 1225.46 1416.67> 1000 21G<1375 1500> 1300 100<732.04 1147.42>
VStem: 100 400<484.146 914.51> 797.984 302.016<119.467 551.21 696.453 700> 1330 232.258<541.896 674.206> 1400 100<1220 1400>
LayerCount: 2
Fore
SplineSet
900 1410 m 0xfd
 1200 1410 1400 1220 1400 1220 c 1
 1400 1400 l 1
 1500 1400 l 1
 1500 1000 l 1xfd
 1450 1000 l 1
 1300 1150 1202.00878906 1297.30175781 950 1300 c 0
 600.020507812 1303.74804688 500 1050 500 700 c 0
 500 407.161132812 570.120117188 184.44140625 797.984375 119.466796875 c 1
 800 700 l 1
 715.162109375 700 l 1
 712.90234375 800 l 1
 1100 800 l 1
 1100 696.453125 l 1
 1151.65625 754.616210938 1226.72949219 800.154296875 1330 800 c 0
 1523.54785156 799.7109375 1562.2578125 697.236328125 1562.2578125 622.580078125 c 0
 1562.2578125 546.841796875 1504.19335938 525.806640625 1446.12890625 525.806640625 c 0
 1354.94140625 525.806640625 1330 564.516601562 1330 603.2265625 c 0
 1330 692.258789062 1422.90234375 684.515625 1422.90234375 684.515625 c 1
 1422.90234375 684.515625 1407.52734375 700.696289062 1330 700 c 0xfe
 1204.12695312 698.869140625 1115.03320312 535.154296875 1100 412.560546875 c 1
 1100 112.51171875 l 1
 1344.12402344 153.734375 1457.85546875 287.85546875 1500 330 c 1
 1500 230 l 1
 1450 170 1300 -10 900 -10 c 0
 600 -10 100 250.000976562 100 700 c 0
 100 1149.99902344 600 1410 900 1410 c 0xfd
EndSplineSet
EndChar

StartChar: franc
Encoding: 8355 8355 365
Width: 1600
VWidth: 1200
Flags: W
HStem: 0 100<100 300 600 900> 300 100<100 300 600 1000> 700 100<600 871.875> 980 20G<1000 1100> 1000 21G<1350 1500> 1300 100<100 300 600 1133.59>
VStem: 300 300<100 300 400 700 800 1300>
LayerCount: 2
Fore
SplineSet
100 1400 m 1xf6
 1500 1400 l 1
 1500 1000 l 1
 1450 1000 l 1xee
 1250 1200 1100 1300 1000 1300 c 2
 600 1300 l 1
 600 800 l 1
 750 800 l 2
 850 800 950 900 1050 1000 c 1
 1100 1000 l 1
 1100 500 l 1
 1050 500 l 1
 950 600 850 700 750 700 c 2
 600 700 l 1
 600 400 l 1
 1000 400 l 1
 1000 300 l 1
 600 300 l 1
 600 100 l 1
 900 100 l 1
 900 0 l 1
 100 0 l 1
 100 100 l 1
 300 100 l 1
 300 300 l 1
 100 300 l 1
 100 400 l 1
 300 400 l 1
 300 1300 l 1
 100 1300 l 1
 100 1400 l 1xf6
EndSplineSet
EndChar

StartChar: lira
Encoding: 8356 8356 366
Width: 1300
VWidth: 1200
Flags: W
HStem: 0 100<100 200 500 1200> 400 100<100 295.027 600 900> 700 100<100 300.723 600 900> 1000 21G<971.109 1110> 1290 110<681.678 950.525>
VStem: 300.723 299.277<213.845 400 500 700 800 1049.92 1050 1193.28>
LayerCount: 2
Fore
SplineSet
800 1400 m 0
 1050 1400 1200 1325 1200 1150 c 0
 1200 1100 1170 1000 1050 1000 c 0
 892.21875 1000 920 1180 1000 1180 c 1
 1000 1220 930 1290 800 1290 c 0
 670 1290 600 1175 600 1050 c 2
 600 800 l 1
 900 800 l 1
 900 700 l 1
 600 700 l 1
 600 500 l 1
 900 500 l 1
 900 400 l 1
 595.916015625 400 l 1
 577.240234375 177.439453125 500 100 500 100 c 1
 1200 100 l 1
 1200 0 l 1
 100 0 l 1
 100 100 l 1
 200 100 l 1
 200 100 274.767578125 179.037109375 295.02734375 400 c 1
 100 400 l 1
 100 500 l 1
 299.927734375 500 l 2
 299.936523438 500.880859375 299.9921875 501.661132812 300 502.544921875 c 0
 300.514648438 563.188476562 300.709960938 631.662109375 300.771484375 700 c 1
 100 700 l 1
 100 800 l 1
 300.72265625 800 l 1
 300.5625 936.1328125 300 1050 300 1050 c 2
 300 1260 550 1400 800 1400 c 0
EndSplineSet
EndChar

StartChar: uni20A6
Encoding: 8358 8358 367
Width: 2000
VWidth: 1200
Flags: W
HStem: 0 100<100 300 500 700> 500 100<100 300 500 950 1450 1500 1700 1900> 800 100<100 300 500 650 1150 1500 1700 1900> 1300 100<100 300 1300 1500 1700 1900>
VStem: 300 200<100 500 600 800 900 1050> 1500 200<450 500 600 800 900 1300>
LayerCount: 2
Fore
SplineSet
100 1400 m 1
 550 1400 l 1
 1050 900 l 1
 1500 900 l 1
 1500 1300 l 1
 1300 1300 l 1
 1300 1400 l 1
 1900 1400 l 1
 1900 1300 l 1
 1700 1300 l 1
 1700 900 l 1
 1900 900 l 1
 1900 800 l 1
 1700 800 l 1
 1700 600 l 1
 1900 600 l 1
 1900 500 l 1
 1700 500 l 1
 1700 0 l 1
 1550 0 l 1
 1050 500 l 1
 500 500 l 1
 500 100 l 1
 700 100 l 1
 700 0 l 1
 100 0 l 1
 100 100 l 1
 300 100 l 1
 300 500 l 1
 100 500 l 1
 100 600 l 1
 300 600 l 1
 300 800 l 1
 100 800 l 1
 100 900 l 1
 300 900 l 1
 300 1300 l 1
 100 1300 l 1
 100 1400 l 1
500 1050 m 1
 500 900 l 1
 650 900 l 1
 500 1050 l 1
500 800 m 1
 500 600 l 1
 950 600 l 1
 750 800 l 1
 500 800 l 1
1150 800 m 1
 1350 600 l 1
 1500 600 l 1
 1500 800 l 1
 1150 800 l 1
1450 500 m 1
 1500 450 l 1
 1500 500 l 1
 1450 500 l 1
EndSplineSet
EndChar

StartChar: uni20A5
Encoding: 8357 8357 368
Width: 2500
VWidth: 1200
Flags: W
HStem: 0 100<100 300 600 746.666 1400 1600 2200 2400> 900 100<100 300 807.528 1069.9 1637.07 1869.9>
VStem: 300 300<100 600 730 900> 1100 300<100 245.455 481.818 600> 1900 300<100 833.682>
CounterMasks: 1 38
LayerCount: 2
Fore
SplineSet
1700 1300 m 1
 1800 1300 l 1
 1800 1200 l 1
 1636.86914062 977.548828125 l 1
 1641.08789062 979.1640625 1645.27050781 980.822265625 1649.61523438 982.28515625 c 0
 1669.43945312 988.958984375 1690.58789062 994.001953125 1713.109375 996.96875 c 0
 1720.61621094 997.95703125 1728.27832031 998.713867188 1736.09179688 999.224609375 c 0
 1743.90625 999.735351562 1751.875 1000 1760 1000 c 0
 1972.5 1000 2091.60058594 921.956054688 2150.82421875 843.841796875 c 0
 2186.35839844 796.97265625 2200.33691406 750.079101562 2200 720 c 2
 2200 100 l 1
 2400 100 l 1
 2400 0 l 1
 1900 0 l 1
 1900 700 l 2
 1900 800 1899.99804688 899.267578125 1760 900 c 0
 1721.9921875 900.19921875 1687.07128906 893.010742188 1655.203125 880.740234375 c 0
 1648.82910156 878.286132812 1642.57714844 875.629882812 1636.44726562 872.787109375 c 0
 1477.07128906 798.88671875 1400 600 1400 600 c 1
 1400 100 l 1
 1600 100 l 1
 1600 0 l 1
 1100 0 l 1
 1100 245.455078125 l 1
 700 -300 l 1
 600 -300 l 1
 600 -200 l 1
 746.666015625 0 l 1
 100 0 l 1
 100 100 l 1
 300 100 l 1
 300 900 l 1
 100 900 l 1
 100 1000 l 1
 600 1000 l 1
 600 730 l 1
 600 730 606.25 746.875 619.6875 772.1875 c 0
 626.40625 784.84375 634.921875 799.609375 645.3515625 815.4296875 c 0
 655.78125 831.25 668.125 848.125 682.5 865 c 0
 689.6875 873.4375 697.383789062 881.874023438 705.6015625 890.1796875 c 0
 738.47265625 923.40234375 779.703125 954.515625 830.23046875 975.08203125 c 0
 855.493164062 985.365234375 883.081054688 993.013671875 913.109375 996.96875 c 0
 920.616210938 997.95703125 928.278320312 998.713867188 936.091796875 999.224609375 c 0
 943.90625 999.735351562 951.875 1000 960 1000 c 0
 1172.5 1000 1291.60058594 921.956054688 1350.82421875 843.841796875 c 0
 1353.44433594 840.385742188 1355.51757812 836.95703125 1357.90625 833.5078125 c 1
 1700 1300 l 1
960 900 m 0
 921.9921875 900.19921875 887.071289062 893.010742188 855.203125 880.740234375 c 0
 848.829101562 878.286132812 842.577148438 875.629882812 836.447265625 872.787109375 c 0
 677.071289062 798.88671875 600 600 600 600 c 1
 600 100 l 1
 800 100 l 1
 800 72.7265625 l 1
 1100 481.818359375 l 1
 1100 700 l 2
 1100 800 1099.99804688 899.267578125 960 900 c 0
EndSplineSet
EndChar

StartChar: peseta
Encoding: 8359 8359 369
Width: 1800
VWidth: 1200
Flags: W
HStem: 0 100<100 300 600 900> 600 100<600 1103.79> 1000 100<100 300 600 1188.89 1499.86 1700> 1300 100<100 300 600 1099.08>
VStem: 300 300<100 600 700 1000 1100 1300> 1200 300<828.914 1000>
LayerCount: 2
Fore
SplineSet
100 1400 m 1
 1000 1400 l 2
 1212.1875 1400 1427.53027344 1291.36816406 1485.09179688 1100 c 1
 1700 1100 l 1
 1700 1000 l 1
 1499.86328125 1000 l 1
 1499.89160156 996.659179688 1500.05859375 993.377929688 1500 990 c 0
 1495.50195312 730.735351562 1249.99902344 600 1000 600 c 2
 600 600 l 1
 600 100 l 1
 900 100 l 1
 900 0 l 1
 100 0 l 1
 100 100 l 1
 300 100 l 1
 300 1000 l 1
 100 1000 l 1
 100 1100 l 1
 300 1100 l 1
 300 1300 l 1
 100 1300 l 1
 100 1400 l 1
600 1300 m 1
 600 1100 l 1
 1188.89257812 1100 l 1
 1163.17675781 1214.04589844 1093.95214844 1300 1000 1300 c 2
 600 1300 l 1
600 1000 m 1
 600 700 l 1
 1000 700 l 2
 1120 700 1200 840 1200 1000 c 1
 600 1000 l 1
EndSplineSet
EndChar

StartChar: uni20A8
Encoding: 8360 8360 370
Width: 2900
VWidth: 1200
Flags: W
HStem: 0 100<100 300 600 900 1542.81 1700 2127.11 2476.68> 600 100<600 1103.79> 900 100<2120.02 2485.17> 1300 100<100 300 600 1103.79>
VStem: 300 300<100 600 700 1300> 1200 300<141.864 481.086 825.507 1163.44> 1800 300<650.148 814.56> 1800 100<0 180 264.633 400> 2500 300<187.68 341.555> 2600 102.132<900 1000.35>
LayerCount: 2
Fore
SplineSet
100 1400 m 1xfc
 1000 1400 l 2
 1250 1400 1504.49804688 1249.26464844 1500 990 c 0
 1497.11816406 823.891601562 1395.1171875 710.828125 1256.578125 650.818359375 c 1
 1383.76953125 598.749023438 1500 495.912109375 1500 300 c 0
 1500 100 1600 100 1700 100 c 1
 1700 0 l 1
 1400 0 l 2
 1310 0 1198.84667969 100.00390625 1200 300 c 0
 1200.89941406 455.921875 1150 600 1000 600 c 2
 600 600 l 1
 600 100 l 1
 900 100 l 1
 900 0 l 1
 100 0 l 1
 100 100 l 1
 300 100 l 1
 300 1300 l 1
 100 1300 l 1
 100 1400 l 1xfc
600 1300 m 1
 600 700 l 1
 1000 700 l 2
 1120 700 1200 840 1200 1000 c 0
 1200 1160 1120 1300 1000 1300 c 2
 600 1300 l 1
1900 400 m 1xfd80
 1900 300 l 1
 1945.10644531 264.171875 2112.05859375 98.994140625 2300 100 c 0
 2468.15429688 100.899414062 2500 128.34375 2500 200 c 0xfd80
 2500 350 2503.33496094 349.681640625 2150 450 c 0
 1944.88671875 508.235351562 1800 542.356445312 1800 700 c 0
 1800 843.3125 2010 1000 2300 1000 c 0
 2520 1000 2600 900 2600 900 c 1
 2600 1000.35253906 l 1
 2702.13183594 1000.35253906 l 1
 2702.13183594 713.727539062 l 1
 2650 714.404296875 l 1
 2612.41113281 750.232421875 2520 900 2300 900 c 0
 2120 900 2100 855.426757812 2100 800 c 0xfe40
 2100 640 2102.30957031 641.465820312 2410 560 c 0
 2662.203125 493.225585938 2800 450 2800 300 c 0
 2800 150 2560 -10 2300 -10 c 0
 2100 -10 1900 180 1900 180 c 1
 1900 0 l 1
 1800 0 l 1
 1800 400 l 1
 1900 400 l 1xfd80
EndSplineSet
EndChar

StartChar: uni20A9
Encoding: 8361 8361 371
Width: 2700
VWidth: 1200
Flags: W
HStem: 0 21G<890 1060 1690 1860> 700 100<200 500 900 1250 1700 2050 2250 2500> 1300 100<100 250 600 700 900 1050 1400 1600 2100 2350 2500 2600>
LayerCount: 2
Fore
SplineSet
100 1400 m 1
 700 1400 l 1
 700 1300 l 1
 600 1300 l 1
 850 800 l 1
 1300 800 l 1
 1050 1300 l 1
 900 1300 l 1
 900 1400 l 1
 1600 1400 l 1
 1600 1300 l 1
 1400 1300 l 1
 1650 800 l 1
 2100 800 l 1
 2350 1300 l 1
 2100 1300 l 1
 2100 1400 l 1
 2600 1400 l 1
 2600 1300 l 1
 2500 1300 l 1
 2250 800 l 1
 2500 800 l 1
 2500 700 l 1
 2200 700 l 1
 1850 0 l 1
 1700 0 l 1
 1375 650 l 1
 1050 0 l 1
 900 0 l 1
 550 700 l 1
 200 700 l 1
 200 800 l 1
 500 800 l 1
 250 1300 l 1
 100 1300 l 1
 100 1400 l 1
900 700 m 1
 1075 350 l 1
 1250 700 l 1
 900 700 l 1
1700 700 m 1
 1875 350 l 1
 2050 700 l 1
 1700 700 l 1
EndSplineSet
EndChar

StartChar: uni20AA
Encoding: 8362 8362 372
Width: 1900
VWidth: 1200
Flags: W
HStem: 100 100<800 1339.48> 980 20G<600 800> 1200 100<400 839.481>
VStem: 100 300<100 1200> 600 200<200 1000> 1000 300<400 981.473> 1500 300<418.527 1300>
LayerCount: 2
Fore
SplineSet
600 1000 m 1
 800 1000 l 1
 800 200 l 1
 1200 200 l 2
 1400 200 1500 400 1500 600 c 2
 1500 1300 l 1
 1800 1300 l 1
 1800 600 l 2
 1800 300 1500 100 1200 100 c 2
 600 100 l 1
 600 1000 l 1
100 100 m 1
 100 1300 l 1
 700 1300 l 2
 1000 1300 1300 1100 1300 800 c 2
 1300 400 l 1
 1000 400 l 1
 1000 800 l 2
 1000 1000 900 1200 700 1200 c 2
 400 1200 l 1
 400 100 l 1
 100 100 l 1
EndSplineSet
EndChar

StartChar: dong
Encoding: 8363 8363 373
Width: 1600
VWidth: 1200
Flags: W
HStem: 0 100<100 1500> 200 100<514.037 889.95 1300 1500> 900 100<507.993 889.951> 1100 100<500 1000 1300 1500> 1300 100<800 1000>
VStem: 100 300<408.77 791.409> 1000 300<400 800 900 1100 1200 1300>
LayerCount: 2
Fore
SplineSet
800 1400 m 1
 1300 1400 l 1
 1300 1200 l 1
 1500 1200 l 1
 1500 1100 l 1
 1300 1100 l 1
 1300 300 l 1
 1500 300 l 1
 1500 200 l 1
 1200 200 l 1
 1000 300 l 1
 1000 300 849.997070312 199.028320312 700 200 c 0
 307.247070312 202.543945312 100 300 100 600 c 0
 100 900 300 1000 700 1000 c 0
 850 1000 1000 900 1000 900 c 1
 1000 1100 l 1
 500 1100 l 1
 500 1200 l 1
 1000 1200 l 1
 1000 1300 l 1
 800 1300 l 1
 800 1400 l 1
700 900 m 0
 550 900 400 865.666992188 400 600 c 0
 400 334.333007812 550 300 700 300 c 0
 850 300 1000 400 1000 400 c 1
 1000 800 l 1
 1000 800 850 900 700 900 c 0
100 100 m 1
 1500 100 l 1
 1500 0 l 1
 100 0 l 1
 100 100 l 1
EndSplineSet
EndChar

StartChar: Euro
Encoding: 8364 8364 374
Width: 1800
VWidth: 1200
Flags: W
HStem: -10 110<937.063 1403.21> 460 140<170 308.828 720.854 1030> 850 150<170 319.666 735.395 1200> 1000 21G<1575 1700> 1300 100<939.122 1347.42>
VStem: 300 400<600 847.773> 1600 100<1220 1400>
LayerCount: 2
Fore
SplineSet
1100 1410 m 0xde
 1400 1410 1600 1220 1600 1220 c 1
 1600 1400 l 1
 1700 1400 l 1
 1700 1000 l 1
 1650 1000 l 1xde
 1500 1150 1402.00878906 1297.30175781 1150 1300 c 0
 911.55078125 1302.55371094 789.202148438 1185.50878906 735.39453125 1000 c 1xee
 1270 1000 l 1xde
 1200 850 l 1
 707.58984375 850 l 1
 702.591796875 802.411132812 700 752.456054688 700 700 c 0
 700 665.540039062 701.296875 632.377929688 703.37890625 600 c 1
 1100 600 l 1
 1030 460 l 1
 720.853515625 460 l 1
 765.154296875 241.251953125 886.951171875 100 1150 100 c 0
 1500 100 1650 280 1700 330 c 1
 1700 230 l 1
 1650 170 1500 -10 1100 -10 c 0
 858.244140625 -10 486.784179688 158.944335938 351.59375 460 c 1
 100 460 l 1
 170 600 l 1
 308.828125 600 l 1
 303.262695312 632.2421875 300 665.491210938 300 700 c 0
 300 752.677734375 307.0859375 802.641601562 319.666015625 850 c 1
 100 850 l 1
 170 1000 l 1xee
 382.384765625 1000 l 1
 536.866210938 1263.45117188 874.78125 1410 1100 1410 c 0xde
EndSplineSet
EndChar

StartChar: uni20A0
Encoding: 8352 8352 375
Width: 1500
VWidth: 1200
Flags: W
HStem: 0 100<500 600 800 1197.56> 500 100<499.636 600 800 1097.2> 900 100<500 600 800 1197.56> 1300 100<485.086 827.713>
VStem: 97.8672 302.133<788.671 1123.13> 600 200<100 500 604.631 900> 1000 100<1260 1400>
LayerCount: 2
Fore
SplineSet
630 1400 m 0
 830.473632812 1400 1000 1260 1000 1260 c 1
 1000 1400 l 1
 1100 1400 l 1
 1100 1100 l 1
 1033.41210938 1100 l 1
 933.174804688 1195.77636719 828.404296875 1298.27734375 660 1300 c 0
 426.126953125 1302.39257812 400 1173.47753906 400 950 c 0
 400 751.071289062 428.747070312 629.056640625 600 604.630859375 c 1
 600 900 l 1
 500 900 l 1
 500 1000 l 1
 1400 1000 l 1
 1400 699.525390625 l 1
 1366.58789062 699.525390625 l 1
 1232.93847656 833.174804688 1168.24609375 900 1101.421875 900 c 2
 800 900 l 1
 800 600 l 1
 964.359375 600 l 2
 1031.18359375 600 1099.76367188 633.17578125 1166.58789062 700 c 1
 1200 700 l 1
 1200 400 l 1
 1166.58789062 400 l 1
 1099.76367188 466.82421875 1031.18359375 500 964.359375 500 c 2
 800 500 l 1
 800 100 l 1
 1101.421875 100 l 2
 1168.24609375 100 1232.93847656 166.825195312 1366.58789062 300.474609375 c 1
 1400 300.474609375 l 1
 1400 0 l 1
 500 0 l 1
 500 100 l 1
 600 100 l 1
 600 501.453125 l 1
 397.974609375 517.751953125 97.8671875 680.999023438 97.8671875 953.341796875 c 0
 97.8671875 1240.67089844 429.526367188 1400 630 1400 c 0
EndSplineSet
EndChar

StartChar: uni20AD
Encoding: 8365 8365 376
Width: 2000
VWidth: 1200
Flags: W
HStem: 0 100<100 300 600 800 1100 1350 1750 1900> 700 100<100 300 600 750 1150 1600> 1300 100<100 300 600 800 1200 1350 1550 1700>
VStem: 300 300<100 350 550 700 800 1300>
LayerCount: 2
Fore
SplineSet
100 1400 m 1
 800 1400 l 1
 800 1300 l 1
 600 1300 l 1
 600 800 l 1
 850 800 l 1
 1350 1300 l 1
 1200 1300 l 1
 1200 1400 l 1
 1700 1400 l 1
 1700 1300 l 1
 1550 1300 l 1
 1050 800 l 1
 1600 800 l 1
 1600 700 l 1
 1150 700 l 1
 1750 100 l 1
 1900 100 l 1
 1900 0 l 1
 1100 0 l 1
 1100 100 l 1
 1350 100 l 1
 850 600 l 1
 600 350 l 1
 600 100 l 1
 800 100 l 1
 800 0 l 1
 100 0 l 1
 100 100 l 1
 300 100 l 1
 300 700 l 1
 100 700 l 1
 100 800 l 1
 300 800 l 1
 300 1300 l 1
 100 1300 l 1
 100 1400 l 1
600 700 m 1
 600 550 l 1
 750 700 l 1
 600 700 l 1
EndSplineSet
EndChar

StartChar: uni20AE
Encoding: 8366 8366 377
Width: 1500
VWidth: 1200
Flags: W
HStem: 0 100<300 600 900 1200> 1000 21G<100 250 1250 1400> 1300 100<466.406 600 900 1033.59>
VStem: 600 300<100 350 450 500 600 650 750 800 900 1300>
LayerCount: 2
Fore
SplineSet
100 1400 m 1
 1400 1400 l 1
 1400 1000 l 1
 1350 1000 l 1
 1150.00097656 1199.99902344 1000 1300 900 1300 c 1
 900 900 l 1
 1200 1050 l 1
 1200 950 l 1
 900 800 l 1
 900 600 l 1
 1200 750 l 1
 1200 650 l 1
 900 500 l 1
 900 100 l 1
 1200 100 l 1
 1200 0 l 1
 300 0 l 1
 300 100 l 1
 600 100 l 1
 600 350 l 1
 300 200 l 1
 300 300 l 1
 600 450 l 1
 600 650 l 1
 300 500 l 1
 300 600 l 1
 600 750 l 1
 600 1300 l 1
 500 1300 349.999023438 1199.99902344 150 1000 c 1
 100 1000 l 1
 100 1400 l 1
EndSplineSet
EndChar

StartChar: uni20AF
Encoding: 8367 8367 378
Width: 3000
VWidth: 1200
Flags: W
HStem: 0 100<250 1300 2221.34 2475.13> 900 100<2223.93 2476.07> 1380 20G<740 1010>
VStem: 1800 300<-400 36.5059 248.97 735.398> 2600 300<263.473 736.764>
LayerCount: 2
Fore
SplineSet
750 1400 m 1
 1000 1400 l 1
 1650 100 l 1
 1650 0 l 1
 100 0 l 1
 100 100 l 1
 750 1400 l 1
775 1150 m 1
 250 100 l 1
 1300 100 l 1
 775 1150 l 1
2350 1000 m 0
 2749.99902344 1000 2900 799.999023438 2900 500 c 0
 2900 200.000976562 2742.75195312 2.5439453125 2350 0 c 0
 2252.55664062 0.630859375 2169.64550781 13.2900390625 2100 36.505859375 c 1
 2100 -400 l 1
 1800 -400 l 1
 1800 500 l 2
 1800 799.999023438 1950.00097656 1000 2350 1000 c 0
2350 900 m 0
 2200 900 2100 765.666992188 2100 500 c 0
 2100 234.333007812 2200 100 2350 100 c 0
 2500 100 2600 234.333007812 2600 500 c 0
 2600 765.666992188 2500 900 2350 900 c 0
EndSplineSet
EndChar

StartChar: uni20B0
Encoding: 8368 8368 379
Width: 1400
VWidth: 1200
Flags: W
HStem: -400 110<627.904 918.154> 0 21G<100 120 480 500> 1300 100<665.863 937.485>
VStem: 300 300<983.666 1201.27> 400 220<-273.438 -122.943> 1000 300<-190.35 73.382> 1000 200<875.396 1233.95>
LayerCount: 2
Fore
SplineSet
800 1400 m 0xf4
 1100 1400 1200 1300 1200 1100 c 0xf2
 1200 914.875 1103.96875 716.098632812 983.107421875 539.0859375 c 1
 1146.35546875 332.356445312 1300 113.90625 1300 -50 c 0
 1300 -260 1050 -400 800 -400 c 0
 550 -400 400 -300 400 -200 c 0
 400 -150 430 -100 550 -100 c 0
 630 -100 680 -210 620 -230 c 1xec
 620 -270 670 -290 800 -290 c 0
 930 -290 998.72265625 -174.993164062 1000 -50 c 0
 1000.91699219 39.6884765625 909.848632812 162.30859375 793.5390625 296.265625 c 1
 639.282226562 119.703125 500 0 500 0 c 1
 300 200 l 1
 100 0 l 1
 100 160 l 1
 300 360 l 1
 500 160 l 1
 500 160 592.01953125 259.6171875 697.01953125 404.53515625 c 1
 507.608398438 614.032226562 300 836.576171875 300 1000 c 0
 300 1300 500 1400 800 1400 c 0xf4
800 1300 m 0
 705.71875 1300 600 1250 600 1100 c 0
 600 1015.19140625 726.1953125 857.760742188 870.662109375 679.33984375 c 1
 944.533203125 818.37890625 1000 966.911132812 1000 1100 c 0
 1000 1250 900 1300 800 1300 c 0
EndSplineSet
EndChar

StartChar: uni20B1
Encoding: 8369 8369 380
Width: 1800
VWidth: 1200
Flags: W
HStem: 0 100<100 300 600 900> 600 100<600 1099.8> 800 100<100 300 600 1150.76 1487.76 1700> 1100 100<100 300 600 1150.76 1485.09 1700> 1300 100<100 300 600 1104.28>
VStem: 300 300<100 600 700 800 900 1100 1200 1300> 1200 300<901.484 1098.4>
LayerCount: 2
Fore
SplineSet
100 1400 m 1
 1000 1400 l 2
 1171.86425781 1400 1345.85449219 1328.76171875 1436.36328125 1200 c 1
 1700 1200 l 1
 1700 1100 l 1
 1485.09179688 1100 l 1
 1495.34960938 1065.8984375 1500.68066406 1029.21289062 1500 990 c 0
 1499.4453125 958.0390625 1495.19628906 928.05078125 1487.75976562 900 c 1
 1700 900 l 1
 1700 800 l 1
 1443.03125 800 l 1
 1355.38964844 666.958984375 1178.86914062 600 1000 600 c 2
 600 600 l 1
 600 100 l 1
 900 100 l 1
 900 0 l 1
 100 0 l 1
 100 100 l 1
 300 100 l 1
 300 800 l 1
 100 800 l 1
 100 900 l 1
 300 900 l 1
 300 1100 l 1
 100 1100 l 1
 100 1200 l 1
 300 1200 l 1
 300 1300 l 1
 100 1300 l 1
 100 1400 l 1
600 1300 m 1
 600 1200 l 1
 1150.76367188 1200 l 1
 1115.59277344 1260.59570312 1063.48242188 1300 1000 1300 c 2
 600 1300 l 1
600 1100 m 1
 600 900 l 1
 1188.89257812 900 l 1
 1196.02246094 931.618164062 1200 965.270507812 1200 1000 c 0
 1200 1034.72949219 1196.02246094 1068.38183594 1188.89257812 1100 c 1
 600 1100 l 1
600 800 m 1
 600 700 l 1
 1000 700 l 2
 1063.48242188 700 1115.59277344 739.404296875 1150.76367188 800 c 1
 600 800 l 1
EndSplineSet
EndChar

StartChar: uni20B2
Encoding: 8370 8370 381
Width: 2000
VWidth: 1200
Flags: W
HStem: -5.375 107.006<1000 1189.8> -1.37695 120.23<713.58 800> 0 21G<1540 1600> 500 100<1100 1300 1600 1900> 1000 21G<1478.76 1600> 1282.37 119.004<713.58 800> 1298.14 107.299<1000 1215.71>
VStem: 100 400<486.148 914.061> 800 200<-100 -1.37695 118.854 1282.37 1402.47 1500> 1300 300<173.606 500> 1500 100<1220 1400>
LayerCount: 2
Fore
SplineSet
800 1500 m 1x5dc0
 1000 1500 l 1
 1000 1405.44140625 l 1
 1332.95703125 1377.71875 1500 1220 1500 1220 c 1
 1500 1400 l 1
 1600 1400 l 1
 1600 1000 l 1x1ba0
 1550 1000 l 1
 1407.52050781 1142.47949219 1307.3359375 1281.45605469 1000 1298.14257812 c 1
 1000 101.630859375 l 1
 1185.26953125 112.697265625 1272.80957031 182.762695312 1300 200 c 1
 1300 500 l 1
 1100 500 l 1
 1100 600 l 1
 1900 600 l 1
 1900 500 l 1
 1600 500 l 1x9bc0
 1600 0 l 1x39a0
 1300 100 l 1
 1274.04785156 82.6982421875 1195.46582031 13.1142578125 1000 -5.375 c 1x99c0
 1000 -100 l 1
 800 -100 l 1
 800 -1.376953125 l 1
 500.776367188 46.6455078125 100 297.077148438 100 700 c 0
 100 1102.92285156 500.776367188 1353.35449219 800 1401.37695312 c 1
 800 1500 l 1x5dc0
800 1282.37304688 m 1x5d80
 570.517578125 1219.47167969 500 993.711914062 500 700 c 0
 500 406.28515625 570.505859375 183.07421875 800 118.853515625 c 1
 800 1282.37304688 l 1x5d80
EndSplineSet
EndChar

StartChar: uni20B3
Encoding: 8371 8371 382
Width: 2200
VWidth: 1200
Flags: W
HStem: 0 100<100 350 500 800 1300 1550 1900 2100> 500 100<300 550 750 1300 1700 1900> 800 100<300 700 900 1150 1550 1900> 1380 20G<990 1260>
LayerCount: 2
Fore
SplineSet
1000 1400 m 1
 1250 1400 l 1
 1500 900 l 1
 1900 900 l 1
 1900 800 l 1
 1550 800 l 1
 1650 600 l 1
 1900 600 l 1
 1900 500 l 1
 1700 500 l 1
 1900 100 l 1
 2100 100 l 1
 2100 0 l 1
 1300 0 l 1
 1300 100 l 1
 1550 100 l 1
 1350 500 l 1
 700 500 l 1
 500 100 l 1
 800 100 l 1
 800 0 l 1
 100 0 l 1
 100 100 l 1
 350 100 l 1
 550 500 l 1
 300 500 l 1
 300 600 l 1
 600 600 l 1
 700 800 l 1
 300 800 l 1
 300 900 l 1
 750 900 l 1
 1000 1400 l 1
1025 1150 m 1
 900 900 l 1
 1150 900 l 1
 1025 1150 l 1
850 800 m 1
 750 600 l 1
 1300 600 l 1
 1200 800 l 1
 850 800 l 1
EndSplineSet
EndChar

StartChar: uni20B4
Encoding: 8372 8372 383
Width: 1700
VWidth: 1200
Flags: W
HStem: -110 110<600.787 1062.13> 500 100<100 239.885 1040 1600> 700 100<100 520.17 1457.48 1600> 1200 100<654.813 1207.04>
VStem: 200 200<194.627 368.716> 300 100<1150 1300> 1300 200<930.252 1093.3> 1400 100<-100 100 216.911 400>
LayerCount: 2
Fore
SplineSet
900 1310 m 0xf6
 1280 1310 1500 1150 1500 950 c 0xf6
 1500 887.864257812 1485.05371094 839.403320312 1457.48046875 800 c 1
 1600 800 l 1
 1600 700 l 1
 1329.77148438 700 l 1
 1253.0390625 662.44921875 1154.1796875 634.010742188 1040 600 c 1
 1600 600 l 1
 1600 500 l 1
 738.57421875 500 l 1
 494.927734375 406.770507812 400 324.529296875 400 220 c 0
 400 120 600 0 850 0 c 0
 1100 0 1340 200 1400 250 c 1
 1400 400 l 1
 1500 400 l 1
 1500 -100 l 1
 1400 -100 l 1
 1400 100 l 1
 1400 100 1120.68945312 -112.249023438 850 -110 c 0
 500.012695312 -107.092773438 200 110 200 350 c 0xf9
 200 407.485351562 214.299804688 456.896484375 239.884765625 500 c 1
 100 500 l 1
 100 600 l 1
 331.826171875 600 l 1
 383.452148438 639.409179688 447.966796875 671.733398438 520.169921875 700 c 1
 100 700 l 1
 100 800 l 1
 850 800 l 1
 1159.96972656 879.793945312 1300 970 1300 1050 c 0
 1300 1127.3515625 1200 1200 900 1200 c 0
 510 1200 400 950 350 900 c 1
 300 900 l 1
 300 1300 l 1
 400 1300 l 1
 400 1150 l 1
 400 1150 580 1310 900 1310 c 0xf6
EndSplineSet
EndChar

StartChar: uni20B5
Encoding: 8373 8373 384
Width: 1600
VWidth: 1200
Flags: W
HStem: -5.93945 107.324<1000 1209.07> -1.37695 120.23<713.58 800> 1000 21G<1380.19 1500> 1282.41 118.963<713.58 800> 1297.26 105.447<1000 1155.99>
VStem: 100 400<486.148 914.068> 800 200<-100 -3.05801 118.854 1282.41 1397.15 1500> 1400 100<1220 1400>
LayerCount: 2
Fore
SplineSet
800 1500 m 1x77
 1000 1500 l 1
 1000 1402.7109375 l 1
 1243.52832031 1368.27734375 1400 1220 1400 1220 c 1
 1400 1400 l 1
 1500 1400 l 1
 1500 1000 l 1
 1450 1000 l 1
 1310.37597656 1139.62402344 1215.66210938 1276.76269531 1000 1297.26367188 c 1
 1000 101.384765625 l 1
 1314.35449219 117.48828125 1452.45605469 282.456054688 1500 330 c 1
 1500 230 l 1
 1454.41015625 175.291992188 1325.578125 20.8828125 1000 -5.939453125 c 1xaf
 1000 -100 l 1
 800 -100 l 1
 800 -1.376953125 l 1
 500.776367188 46.6455078125 100 297.076171875 100 700 c 0
 100 1102.92382812 500.776367188 1353.35449219 800 1401.37695312 c 1
 800 1500 l 1x77
800 1282.4140625 m 1x77
 570.518554688 1219.55664062 500 993.711914062 500 700 c 0
 500 406.28515625 570.505859375 183.07421875 800 118.853515625 c 1
 800 1282.4140625 l 1x77
EndSplineSet
EndChar

StartChar: uni20B6
Encoding: 8374 8374 385
Width: 1700
VWidth: 1200
Flags: W
HStem: 0 100<100 300 600 800 1320.82 1522.86> 900 100<100 300 600 1000 1300 1600> 1300 100<100 300>
VStem: 300 300<100 900 1000 1300> 1000 300<118.816 900 1000 1050>
LayerCount: 2
Fore
SplineSet
100 1400 m 1
 600 1400 l 1
 600 1000 l 1
 1000 1000 l 1
 1000 1050 l 1
 1250 1300 l 1
 1300 1300 l 1
 1300 1000 l 1
 1600 1000 l 1
 1600 900 l 1
 1300 900.150390625 l 1
 1300 300 l 2
 1300 200 1298.97851562 97.4560546875 1400 100 c 0
 1499.96777344 102.517578125 1600 200 1600 200 c 1
 1600 100 l 1
 1600 100 1500 0 1400 0 c 0
 1100 0 1000 0 1000 300 c 2
 1000 900 l 1
 600 900 l 1
 600 100 l 1
 800 100 l 1
 800 0 l 1
 100 0 l 1
 100 100 l 1
 300 100 l 1
 300 900 l 1
 100 900 l 1
 100 1000 l 1
 300 1000 l 1
 300 1300 l 1
 100 1300 l 1
 100 1400 l 1
EndSplineSet
EndChar

StartChar: uni20B7
Encoding: 8375 8375 386
Width: 1500
VWidth: 1200
Flags: W
HStem: -10 110<700 897.729> 300 100<202.225 300 472.944 596.545 772.944 896.545> 1000 21G<1225 1300> 1300 110<392.963 945.187>
VStem: 100 200<940 1193.3> 300 100<-100 28.8672 265 300> 600 100<-100 -9.36914 105.693 150 260 298.794> 900 100<-100 4.62695 142.494 298.794> 1200 200<294.24 575.206> 1200 100<1250 1400>
LayerCount: 2
Fore
SplineSet
700 1410 m 0xfb80
 1020 1410 1200 1250 1200 1250 c 1
 1200 1400 l 1
 1300 1400 l 1
 1300 1000 l 1
 1250 1000 l 1
 1200 1050 1090 1300 700 1300 c 0
 400 1300 300 1227.3515625 300 1150 c 0xfb40
 300 1070 440.030273438 979.793945312 750 900 c 0
 1087.03808594 813.237304688 1400 720 1400 450 c 0
 1400 270.206054688 1231.61914062 103.280273438 1000 29.6171875 c 1
 1000 -100 l 1
 900 -100 l 1
 900 4.626953125 l 1
 851.584960938 -4.4189453125 801.357421875 -9.5732421875 750 -10 c 0
 733.34375 -10.138671875 716.654296875 -9.9033203125 700 -9.369140625 c 1
 700 -100 l 1
 600 -100 l 1
 600 -2.638671875 l 1
 527.567382812 4.615234375 459.71875 16.46875 400 28.8671875 c 1
 400 -100 l 1
 300 -100 l 1
 300 51.640625 l 1
 238.418945312 67.3759765625 200 80 200 80 c 1
 20 150 60 400 300 400 c 2
 400 400 l 1
 400 265 l 1xf780
 400 265 466.666992188 400 553.333984375 400 c 0
 666.666992188 400 700.299804688 300.10546875 700 260 c 1
 700 265 l 1
 700 265 766.666992188 400 853.333984375 400 c 0
 966.666992188 400 1000.29980469 300.10546875 1000 260 c 2
 1000 142.494140625 l 1
 1120.85742188 186.3828125 1200 257.122070312 1200 320 c 0
 1200 460 1029.99902344 560 560 700 c 0
 287.161132812 781.271484375 100 830 100 1050 c 0
 100 1250 320 1410 700 1410 c 0xfb80
300 300 m 1xf7
 200 300 164.64453125 235.35546875 200 200 c 0
 217.047851562 182.952148438 252.25 166.913085938 300 152.8671875 c 1
 300 300 l 1xf7
553.333984375 300 m 0
 472.25 300.635742188 400 150 400 150 c 1
 400 129.67578125 l 1
 459.381835938 118.766601562 527.961914062 110.732421875 600 105.693359375 c 1
 600 200 l 2
 600 250 600 299.633789062 553.333984375 300 c 0
853.333984375 300 m 0
 772.25 300.635742188 700 150 700 150 c 1
 700 100.62109375 l 1
 716.611328125 100.231445312 733.286132812 100 750 100 c 0
 802.7734375 100 853.092773438 105.594726562 900 114.97265625 c 1
 900 200 l 2
 900 250 900 299.633789062 853.333984375 300 c 0
EndSplineSet
EndChar

StartChar: uni20B8
Encoding: 8376 8376 387
Width: 1500
VWidth: 1200
Flags: W
HStem: 0 100<300 600 900 1200> 1100 100<466.406 600 900 1033.59> 1300 100<100 1400>
VStem: 600 300<100 1100>
LayerCount: 2
Fore
SplineSet
100 1200 m 1
 1400 1200 l 1
 1400 800 l 1
 1350 800 l 1
 1150 1000 1000 1100 900 1100 c 1
 900 100 l 1
 1200 100 l 1
 1200 0 l 1
 300 0 l 1
 300 100 l 1
 600 100 l 1
 600 1100 l 1
 500 1100 350 1000 150 800 c 1
 100 800 l 1
 100 1200 l 1
100 1300 m 1
 100 1400 l 1
 1400 1400 l 1
 1400 1300 l 1
 100 1300 l 1
EndSplineSet
EndChar

StartChar: uni20B9
Encoding: 8377 8377 388
Width: 1300
VWidth: 1200
Flags: W
HStem: 0 100<942.807 1100> 600 100<100 503.792> 1000 100<100 588.893 899.863 1200> 1300 100<100 504.295 734.441 1200>
VStem: 600 300<141.864 481.086 825.504 1000>
LayerCount: 2
Fore
SplineSet
100 1400 m 1
 400 1400 l 1
 1200 1400 l 1
 1200 1300 l 1
 734.44140625 1300 l 1
 805.5625 1250.26269531 860.1484375 1182.92578125 885.091796875 1100 c 1
 1200 1100 l 1
 1200 1000 l 1
 899.86328125 1000 l 1
 899.891601562 996.659179688 900.05859375 993.377929688 900 990 c 0
 897.119140625 823.958007812 795.323242188 710.729492188 656.869140625 650.701171875 c 1
 783.947265625 598.59375 900 495.762695312 900 300 c 0
 900 100 1000 100 1100 100 c 1
 1100 0 l 1
 800 0 l 2
 710 0 598.846679688 100.00390625 600 300 c 0
 600.899414062 455.921875 550 600 400 600 c 2
 100 600 l 1
 100 700 l 1
 400 700 l 2
 520 700 600 840 600 1000 c 1
 100 1000 l 1
 100 1100 l 1
 588.892578125 1100 l 1
 563.176757812 1214.04589844 493.952148438 1300 400 1300 c 2
 100 1300 l 1
 100 1400 l 1
EndSplineSet
EndChar

StartChar: uni20BA
Encoding: 8378 8378 389
Width: 1500
VWidth: 1200
Flags: W
HStem: 0 100<100 300 600 781.472> 980 20G<960 1000> 1300 100<100 300 600 800>
VStem: 300 300<100 550 650 700 800 850 950 1000 1100 1300> 1100 300<492.925 700>
LayerCount: 2
Fore
SplineSet
100 1400 m 1
 800 1400 l 1
 800 1300 l 1
 600 1300 l 1
 600 1100 l 1
 1000 1300 l 1
 1000 1200 l 1
 600 1000 l 1
 600 800 l 1
 1000 1000 l 1
 1000 900 l 1
 600 700 l 1
 600 100 l 1
 899.999023438 100 1100 400.000976562 1100 700 c 1
 1400 700 l 1
 1400 350.000976562 1049.62402344 -1.57421875 600 0 c 2
 100 0 l 1
 100 100 l 1
 300 100 l 1
 300 550 l 1
 100 450 l 1
 100 550 l 1
 300 650 l 1
 300 850 l 1
 100 750 l 1
 100 850 l 1
 300 950 l 1
 300 1300 l 1
 100 1300 l 1
 100 1400 l 1
EndSplineSet
EndChar

StartChar: uni20BF
Encoding: 8383 8383 390
Width: 1800
VWidth: 1200
Flags: W
HStem: 0 100<100 300 600 700 900 1000 1200 1301.76> 700 100<600 700 900 1000> 1300 100<100 300 600 700 900 1000>
VStem: 300 300<100 700 800 1300> 700 200<-100 0 100 700 800 1300 1400 1500> 1000 200<-100 0 100 700 836.209 1263.79 1400 1500> 1300 300<904.953 1175.24> 1400 300<228.911 573.317>
LayerCount: 2
Fore
SplineSet
700 1500 m 1xfd
 900 1500 l 1
 900 1400 l 1
 1000 1400 l 1
 1000 1500 l 1
 1200 1500 l 1
 1200 1390.95898438 l 1
 1412.54785156 1353.79101562 1600 1204.49902344 1600 1040 c 0xfe
 1600 850 1370 750 1370 750 c 1
 1370 750 1700 720 1700 400 c 0
 1700 80 1349.77441406 0 1200 0 c 1
 1200 -100 l 1
 1000 -100 l 1
 1000 0 l 1
 900 0 l 1
 900 -100 l 1
 700 -100 l 1
 700 0 l 1
 100 0 l 1
 100 100 l 1
 300 100 l 1
 300 1300 l 1
 100 1300 l 1
 100 1400 l 1
 700 1400 l 1
 700 1500 l 1xfd
600 1300 m 1
 600 800 l 1
 700 800 l 1
 700 1300 l 1
 600 1300 l 1
900 1300 m 1
 900 800 l 1
 1000 800 l 1
 1000 1300 l 1
 900 1300 l 1
1200 1263.79101562 m 1
 1200 836.208984375 l 1
 1262.35449219 885.032226562 1300 974.55859375 1300 1050 c 0
 1300 1125.44140625 1262.35449219 1214.96777344 1200 1263.79101562 c 1
600 700 m 1
 600 100 l 1
 700 100 l 1
 700 700 l 1
 600 700 l 1
900 700 m 1
 900 100 l 1
 1000 100 l 1
 1000 700 l 1
 900 700 l 1
1200 700 m 1
 1200 100 l 1
 1320 100 1400 230 1400 400 c 0xfd
 1400 570 1320 700 1200 700 c 1
EndSplineSet
EndChar

StartChar: uni20BD
Encoding: 8381 8381 391
Width: 1600
VWidth: 1200
Flags: W
HStem: 0 100<100 300 600 900> 300 100<100 300 600 1200> 600 100<100 300 600 1103.79> 1300 100<100 300 600 1103.79>
VStem: 300 300<100 300 400 600 700 1300> 1200 300<828.914 1163.44>
LayerCount: 2
Fore
SplineSet
100 1400 m 1
 1000 1400 l 2
 1250 1400 1504.49804688 1249.26464844 1500 990 c 0
 1495.50195312 730.735351562 1250 600 1000 600 c 2
 600 600 l 1
 600 400 l 1
 1200 400 l 1
 1200 300 l 1
 600 300 l 1
 600 100 l 1
 900 100 l 1
 900 0 l 1
 100 0 l 1
 100 100 l 1
 300 100 l 1
 300 300 l 1
 100 300 l 1
 100 400 l 1
 300 400 l 1
 300 600 l 1
 100 600 l 1
 100 700 l 1
 300 700 l 1
 300 1300 l 1
 100 1300 l 1
 100 1400 l 1
600 1300 m 1
 600 700 l 1
 1000 700 l 2
 1120 700 1200 840 1200 1000 c 0
 1200 1160 1120 1300 1000 1300 c 2
 600 1300 l 1
EndSplineSet
EndChar

StartChar: uni20BE
Encoding: 8382 8382 392
Width: 1800
VWidth: 1200
Flags: W
HStem: 0 100<100 499.891 730.129 1300> 1287.32 106.303<800 1000>
VStem: 100 400<492.929 908.593> 700 100<800 1240.91 1393.63 1500> 1000 100<800 1240.91 1394.23 1500>
LayerCount: 2
Fore
SplineSet
700 1500 m 1
 800 1500 l 1
 800 1393.62695312 l 1
 832.72265625 1397.55566406 866.036132812 1399.88085938 900 1400 c 0
 933.963867188 1400.11914062 967.27734375 1397.99121094 1000 1394.23242188 c 1
 1000 1500 l 1
 1100 1500 l 1
 1100 1376.77734375 l 1
 1449.33886719 1293.11621094 1700 996.021484375 1700 700 c 1
 1300 700 l 1
 1300 919.552734375 1246.31640625 1138.94824219 1100 1240.91015625 c 1
 1100 800 l 1
 1000 800 l 1
 1000 1287.32421875 l 1
 969.44140625 1295.53808594 936.209960938 1300 900 1300 c 0
 863.790039062 1300 830.55859375 1295.53808594 800 1287.32421875 c 1
 800 800 l 1
 700 800 l 1
 700 1240.91015625 l 1
 553.68359375 1138.94824219 500 919.552734375 500 700 c 0
 500 400.000976562 598.3515625 100 900 100 c 2
 1300 100 l 1
 1300 0 l 1
 900 0 l 1
 100 0 l 1
 100 100 l 1
 499.890625 100 l 1
 258.828125 228.817382812 100 464.32421875 100 700 c 0
 100 996.021484375 350.661132812 1290.86523438 700 1375.73632812 c 1
 700 1500 l 1
EndSplineSet
EndChar

StartChar: uni20BC
Encoding: 8380 8380 393
Width: 2200
VWidth: 1200
Flags: W
HStem: 0 100<100 300 700 800 900 1000 1200 1300 1400 1500 1900 2100> 887.324 116.133<908.082 1000 1200 1291.92> 1380 20G<1000 1200>
VStem: 300 400<100 510.321> 1000 200<100 887.324 998.801 1400> 1500 400<100 510.629>
CounterMasks: 1 1c
LayerCount: 2
Fore
SplineSet
1000 1400 m 1
 1200 1400 l 1
 1200 1004.0625 l 1
 1600.47363281 956.775390625 1900 623.560546875 1900 300 c 2
 1900 100 l 1
 2100 100 l 1
 2100 0 l 1
 1400 0 l 1
 1400 100 l 1
 1500 100 l 1
 1500 300 l 2
 1500 563.7890625 1422.6171875 827.48828125 1200 887.32421875 c 1
 1200 100 l 1
 1300 100 l 1
 1300 0 l 1
 900 0 l 1
 900 100 l 1
 1000 100 l 1
 1000 887.32421875 l 1
 777.3828125 827.48828125 700 563.7890625 700 300 c 2
 700 100 l 1
 800 100 l 1
 800 0 l 1
 100 0 l 1
 100 100 l 1
 300 100 l 1
 300 300 l 2
 300 623.560546875 599.526367188 954.088867188 1000 1003.45703125 c 1
 1000 1400 l 1
EndSplineSet
EndChar

StartChar: uni20BB
Encoding: 8379 8379 394
Width: 1800
VWidth: 1200
Flags: W
HStem: 90 110<859.755 1436.05> 400 130<800.061 921.448 974.893 1121.45 1178.55 1356.85> 900 100<313.574 500 800 1333.47> 1200 110<317.652 600>
VStem: 100 200<1013.74 1182.97> 500 300<527.078 900 1000 1179.83> 1400 300<573.939 834.375>
LayerCount: 2
Fore
SplineSet
500 1310 m 0
 700 1310 800 1200 800 1000 c 1
 1200 1000 l 2
 1501.6484375 1000 1700 900 1700 700 c 0
 1700 500 1450 400 1250 400 c 0
 1180 400 1150 460 1150 460 c 1
 1150 460 1120 400 1050 400 c 0
 980 400 950 460 950 460 c 1
 950 460 920 400 850 400 c 0
 833.541015625 400 816.853515625 399.034179688 800.060546875 397.4140625 c 1
 800.662109375 249.502929688 851.499023438 200 1100 200 c 0
 1400 200 1600 300 1600 300 c 1
 1600 200 l 1
 1600 200 1460 90 1100 90 c 0
 678.645507812 90 541.8125 168.359375 509.033203125 312.5703125 c 1
 388.459960938 258.743164062 300 200 300 200 c 1
 300 300 l 1
 300 300 384.103515625 364.18359375 500 424.755859375 c 1
 500 900 l 1
 400 900 l 2
 200 900 100 950 100 1100 c 0
 100 1250 200 1310 500 1310 c 0
400 1200 m 0
 340 1200 300 1160 300 1100 c 0
 300 1030 340 1000 400 1000 c 2
 500 1000 l 1
 500 1100 500 1200 400 1200 c 0
800 900 m 1
 800 527.078125 l 1
 816.815429688 528.9453125 833.51953125 530 850 530 c 0
 920 530 950 630 950 630 c 1
 950 630 970 530 1050 530 c 0
 1120 530 1150 630 1150 630 c 1
 1150 630 1180 530 1250 530 c 0
 1350 530 1400 600 1400 700 c 0
 1400 800 1350 900 1200 900 c 2
 800 900 l 1
EndSplineSet
EndChar

StartChar: uni2116
Encoding: 8470 8470 395
Width: 3000
VWidth: 1200
Flags: W
HStem: 0 100<360.246 486.426> 100 100<2100 2900> 300 100<2377.34 2622.66> 900 100<2376.46 2623.54> 1300 100<300 500 1913.57 2039.75>
VStem: 100 300<145.011 270.475> 500 200<141.602 1050> 1700 200<450 1258.4> 2000 300<1129.53 1254.99> 2100 200<481.5 818.665> 2700 200<481.5 818.665>
LayerCount: 2
Fore
SplineSet
300 1400 m 1xbfa0
 750 1400 l 1
 1700 450 l 1
 1700 1000 l 2
 1700 1299.99902344 1800 1400 2000 1400 c 0
 2140 1400 2300 1321.43066406 2300 1225 c 0
 2300 1127.17089844 2225 1100 2150 1100 c 0
 2032.21582031 1100 2000 1135 2000 1185 c 0
 2000 1240 2040 1255 2040 1255 c 1
 2040 1255 2040.20996094 1300.89941406 1960 1300 c 0
 1900 1299.32714844 1900 1249.99902344 1900 1000 c 2
 1900 0 l 1
 1750 0 l 1
 700 1050 l 1
 700 400 l 2
 700 100.000976562 600 0 400 0 c 0
 260 0 100 78.5693359375 100 175 c 0
 100 272.829101562 175 300 250 300 c 0
 367.784179688 300 400 265 400 215 c 0
 400 160 360 145 360 145 c 1
 360 145 359.790039062 99.1005859375 440 100 c 0
 499.99609375 100.672851562 500 150.000976562 500 400 c 2
 500 1300 l 1
 300 1300 l 1
 300 1400 l 1xbfa0
2500 1000 m 0
 2790.90820312 1000 2900 860 2900 650 c 0
 2900 440 2785.63769531 301.78125 2500 300 c 0
 2214.36230469 301.78125 2100 440 2100 650 c 0x3f60
 2100 860 2209.09179688 1000 2500 1000 c 0
2500 900 m 0
 2380 900 2300 816.041992188 2300 650 c 0
 2300 483.958007812 2380 400 2500 400 c 0
 2620 400 2700 483.958007812 2700 650 c 0
 2700 816.041992188 2620 900 2500 900 c 0
2100 200 m 1x7f60
 2900 200 l 1
 2900 100 l 1
 2100 100 l 1
 2100 200 l 1x7f60
EndSplineSet
EndChar

StartChar: uni2117
Encoding: 8471 8471 396
Width: 2000
VWidth: 1200
Flags: W
HStem: -410 110<731.275 1268.73> 0 100<500 600 800 1035> 400 100<800 1172.53> 900 100<500 600 800 1171.06> 1300 110<732.306 1267.69>
VStem: 100 200<227.269 772.76> 600 200<100 400 500 900> 1200 250<561.436 845.163> 1700 200<226.984 772.987>
LayerCount: 2
Fore
SplineSet
1000 1410 m 0
 1499.99902344 1410 1900 999.999023438 1900 500 c 0
 1900 0.0009765625 1499.99902344 -410 1000 -410 c 0
 500.000976562 -410 100 0.0009765625 100 500 c 0
 100 999.999023438 500.000976562 1410 1000 1410 c 0
1000 1300 m 0
 453.07421875 1298.20117188 300 899.999023438 300 500 c 0
 300 100.000976562 450.004882812 -297.741210938 1000 -300 c 0
 1549.99511719 -302.258789062 1700 100.000976562 1700 500 c 0
 1700 899.999023438 1546.92578125 1301.79882812 1000 1300 c 0
1101.875 400 m 2
 800 400 l 1
 800 100 l 1
 1035 100 l 1
 1035 0 l 1
 500 0 l 1
 500 100 l 1
 600 100 l 1
 600 900 l 1
 500 900 l 1
 500 1000 l 1
 1100 1000 l 2
 1267.1875 1000 1453.0078125 885.189453125 1450 700 c 0
 1446.9921875 514.810546875 1269.0625 400 1101.875 400 c 2
800 900 m 1
 800 500 l 1
 1101.875 500 l 2
 1182.125 500 1200 585.713867188 1200 700 c 0
 1200 814.286132812 1180.25 900 1100 900 c 2
 800 900 l 1
EndSplineSet
EndChar

StartChar: trademark
Encoding: 8482 8482 397
Width: 1900
VWidth: 1200
Flags: W
HStem: 700 100<200 375 525 700 900 1000 1100 1200 1400 1500 1700 1800> 1150 250<100 195.044 704.956 800> 1300 100<274.146 375 525 625.854 900 1000 1700 1800>
VStem: 375 150<800 1300> 1000 100<800 1200> 1500 200<800 1200>
LayerCount: 2
Fore
SplineSet
100 1400 m 1xdc
 800 1400 l 1
 800 1150 l 1
 750 1150 l 1xdc
 650 1250 575 1300 525 1300 c 1
 525 800 l 1
 700 800 l 1
 700 700 l 1
 200 700 l 1
 200 800 l 1
 375 800 l 1
 375 1300 l 1xbc
 325 1300 250 1250 150 1150 c 1
 100 1150 l 1
 100 1400 l 1xdc
900 1400 m 1xbc
 1150 1400 l 1
 1325 1050 l 1
 1500 1400 l 1
 1800 1400 l 1
 1800 1300 l 1
 1700 1300 l 1
 1700 800 l 1
 1800 800 l 1
 1800 700 l 1
 1400 700 l 1
 1400 800 l 1
 1500 800 l 1
 1500 1200 l 1
 1350 900 l 1
 1250 900 l 1
 1100 1200 l 1
 1100 800 l 1
 1200 800 l 1
 1200 700 l 1
 900 700 l 1
 900 800 l 1
 1000 800 l 1
 1000 1300 l 1
 900 1300 l 1
 900 1400 l 1xbc
EndSplineSet
EndChar

StartChar: endash
Encoding: 8211 8211 398
Width: 1100
VWidth: 1200
Flags: W
HStem: 400 200<100 1000>
LayerCount: 2
Fore
SplineSet
100 400 m 1
 100 600 l 1
 1000 600 l 1
 1000 400 l 1
 100 400 l 1
EndSplineSet
EndChar

StartChar: emdash
Encoding: 8212 8212 399
Width: 2000
VWidth: 1200
Flags: W
HStem: 400 200<100 1900>
LayerCount: 2
Fore
SplineSet
100 400 m 1
 100 600 l 1
 1900 600 l 1
 1900 400 l 1
 100 400 l 1
EndSplineSet
EndChar

StartChar: figuredash
Encoding: 8210 8210 403
Width: 1600
VWidth: 1200
Flags: W
HStem: 400 200<100 1500>
LayerCount: 2
Fore
SplineSet
100 400 m 1
 100 600 l 1
 1500 600 l 1
 1500 400 l 1
 100 400 l 1
EndSplineSet
EndChar

StartChar: quoteleft
Encoding: 8216 8216 405
Width: 500
VWidth: 1200
Flags: W
HStem: 890 510
VStem: 200 200<1120 1214.51>
LayerCount: 2
Fore
SplineSet
110 1320 m 1
 110 1400 l 1
 200 1400 400 1230 400 1100 c 0
 400 950 345.126953125 890 250 890 c 0
 154.873046875 890 80 930 80 1010 c 0
 80 1090 126.069335938 1116.40136719 200 1120 c 1
 200 1280 110 1320 110 1320 c 1
EndSplineSet
EndChar

StartChar: quotereversed
Encoding: 8219 8219 407
Width: 500
VWidth: 1200
Flags: W
HStem: 900 510
VStem: 100 200<1085.49 1180>
LayerCount: 2
Fore
SplineSet
390 980 m 1
 390 900 l 1
 300 900 100 1070 100 1200 c 0
 100 1350 154.873046875 1410 250 1410 c 0
 345.126953125 1410 420 1370 420 1290 c 0
 420 1210 373.930664062 1183.59863281 300 1180 c 1
 300 1020 390 980 390 980 c 1
EndSplineSet
EndChar

StartChar: guilsinglleft
Encoding: 8249 8249 413
Width: 650
VWidth: 1200
Flags: W
VStem: 100 450
LayerCount: 2
Fore
SplineSet
550 900 m 1
 550 800 l 1
 250 500 l 1
 550 200 l 1
 550 100 l 1
 450 100 l 1
 100 450 l 1
 100 550 l 1
 450 900 l 1
 550 900 l 1
EndSplineSet
EndChar

StartChar: guilsinglright
Encoding: 8250 8250 414
Width: 700
VWidth: 1200
Flags: W
VStem: 150 450
LayerCount: 2
Fore
SplineSet
150 900 m 1
 250 900 l 1
 600 550 l 1
 600 450 l 1
 250 100 l 1
 150 100 l 1
 150 200 l 1
 450 500 l 1
 150 800 l 1
 150 900 l 1
EndSplineSet
EndChar

StartChar: uni27E8
Encoding: 10216 10216 416
Width: 800
VWidth: 1200
Flags: W
HStem: 1380 20G<490 700>
VStem: 100 600
LayerCount: 2
Fore
SplineSet
700 1400 m 1
 700 1250 l 1
 325 500 l 1
 700 -250 l 1
 700 -400 l 1
 500 -400 l 1
 100 400 l 1
 100 600 l 1
 500 1400 l 1
 700 1400 l 1
EndSplineSet
EndChar

StartChar: uni27E9
Encoding: 10217 10217 417
Width: 800
VWidth: 1200
Flags: W
HStem: 1380 20G<100 310>
VStem: 100 600
LayerCount: 2
Fore
SplineSet
100 1400 m 1
 300 1400 l 1
 700 600 l 1
 700 400 l 1
 300 -400 l 1
 100 -400 l 1
 100 -250 l 1
 475 500 l 1
 100 1250 l 1
 100 1400 l 1
EndSplineSet
EndChar

StartChar: uni0E3F
Encoding: 3647 3647 418
Width: 1700
VWidth: 1200
Flags: W
HStem: 0 100<100 300 600 800 1000 1201.76> 700 100<600 800 1000 1105.6> 1300 100<100 300 600 800 1000 1104.77>
VStem: 300 300<100 700 800 1300> 800 200<-100 0 100 700 800 1300 1400 1500> 1200 300<905.233 1176.92> 1300 300<228.911 573.317>
LayerCount: 2
Fore
SplineSet
800 1500 m 1xfa
 1000 1500 l 1
 1000 1400 l 1
 1250 1400 1500 1230 1500 1040 c 0xfc
 1500 850 1270 750 1270 750 c 1
 1270 750 1600 720 1600 400 c 0
 1600 80 1249.77441406 0 1100 0 c 2
 1000 0 l 1
 1000 -100 l 1
 800 -100 l 1
 800 0 l 1
 100 0 l 1
 100 100 l 1
 300 100 l 1
 300 1300 l 1
 100 1300 l 1
 100 1400 l 1
 800 1400 l 1
 800 1500 l 1xfa
600 1300 m 1
 600 800 l 1
 800 800 l 1
 800 1300 l 1
 600 1300 l 1
1000 1300 m 1
 1000 800 l 1
 1120 800 1200 940 1200 1050 c 0
 1200 1160 1120 1300 1000 1300 c 1
600 700 m 1
 600 100 l 1
 800 100 l 1
 800 700 l 1
 600 700 l 1
1000 700 m 1
 1000 100 l 1
 1100 100 l 2
 1220 100 1300 230 1300 400 c 0xfa
 1300 570 1220 700 1100 700 c 2
 1000 700 l 1
EndSplineSet
EndChar

StartChar: uni058F
Encoding: 1423 1423 419
Width: 1900
VWidth: 1200
Flags: W
HStem: 0 100<1200 1400 1600 1800> 400 100<900 1400 1600 1800> 700 100<900 1400 1600 1800> 800 100<100 300 600 800> 1300 100<741.602 1250.07>
VStem: 300 300<900 1181.34> 1400 200<100 400 500 700 800 1180.86>
LayerCount: 2
Fore
SplineSet
950 1400 m 4xde
 1350.88476562 1398.09179688 1600 1249.99902344 1600 1050 c 6
 1600 800 l 5
 1800 800 l 5
 1800 700 l 5
 1600 700 l 5
 1600 500 l 5
 1800 500 l 5
 1800 400 l 5
 1600 400 l 5
 1600 100 l 5
 1800 100 l 5
 1800 0 l 5
 1200 0 l 5
 1200 100 l 5
 1400 100 l 5
 1400 400 l 5
 900 400 l 5
 900 500 l 5
 1400 500 l 5
 1400 700 l 5
 900 700 l 5
 900 800 l 5
 1400 800 l 5xee
 1400 1050 l 6
 1400 1190 1299.99902344 1300 1000 1300 c 4
 700.000976562 1300 600 1190 600 1050 c 6
 600 900 l 5
 800 900 l 5
 800 800 l 5
 100 800 l 5
 100 900 l 5
 300 900 l 5
 300 1050 l 6
 300 1249.99902344 550.005859375 1401.90429688 950 1400 c 4xde
EndSplineSet
EndChar

StartChar: circumflex
Encoding: 710 710 420
Width: 1100
VWidth: 1200
Flags: W
HStem: 1300 300
LayerCount: 2
Fore
SplineSet
100 1350 m 1
 450 1600 l 1
 650 1600 l 1
 1000 1350 l 1
 1000 1300 l 1
 850 1300 l 1
 550 1500 l 1
 250 1300 l 1
 100 1300 l 1
 100 1350 l 1
EndSplineSet
EndChar

StartChar: caron
Encoding: 711 711 421
Width: 1100
VWidth: 1200
Flags: W
HStem: 1300 300
LayerCount: 2
Fore
SplineSet
100 1550 m 1
 100 1600 l 1
 250 1600 l 1
 550 1400 l 1
 850 1600 l 1
 1000 1600 l 1
 1000 1550 l 1
 650 1300 l 1
 450 1300 l 1
 100 1550 l 1
EndSplineSet
EndChar

StartChar: ring
Encoding: 730 730 425
Width: 800
VWidth: 1200
Flags: W
HStem: 1200 100<255.219 544.781> 1500 100<255.219 544.781>
VStem: 100 125<1331.12 1468.88> 575 125<1331.12 1468.88>
LayerCount: 2
Fore
SplineSet
575 1400 m 0
 575 1455.22851562 510.45703125 1500 400 1500 c 0
 289.54296875 1500 225 1455.22851562 225 1400 c 0
 225 1344.77148438 289.54296875 1300 400 1300 c 0
 510.45703125 1300 575 1344.77148438 575 1400 c 0
700 1400 m 0
 700 1289.54296875 565.685546875 1200 400 1200 c 0
 234.314453125 1200 100 1289.54296875 100 1400 c 0
 100 1510.45703125 234.314453125 1600 400 1600 c 0
 565.685546875 1600 700 1510.45703125 700 1400 c 0
EndSplineSet
EndChar

StartChar: breve
Encoding: 728 728 426
Width: 1100
VWidth: 1200
Flags: W
HStem: 1275 125<351.256 748.702>
LayerCount: 2
Fore
SplineSet
100 1600 m 1
 175 1600 l 1
 175 1600 275 1400 550 1400 c 0
 825 1400 925 1600 925 1600 c 1
 1000 1600 l 1
 999.392578125 1453.35644531 850 1275 550 1275 c 0
 250 1275 100 1451.01953125 100 1600 c 1
EndSplineSet
EndChar

StartChar: uni0259
Encoding: 601 601 429
Width: 1400
VWidth: 1200
Flags: W
HStem: -0.046875 100<513.388 858.86> 399.953 100<400 995.457> 899.953 100<384.552 854.991>
VStem: 995.457 304.543<318.48 399.953 499.953 679.219>
LayerCount: 2
Fore
SplineSet
650 999.953125 m 0
 999.984375 996.661132812 1300 799.953125 1300 499.953125 c 0
 1300 199.953125 1000 -0.046875 650 -0.046875 c 0
 200 -0.046875 100 299.953125 100 499.953125 c 1
 1000 499.953125 l 1
 1000 799.953125 900 899.953125 650 899.953125 c 0
 300 899.953125 125 699.953125 125 699.953125 c 1
 125 799.953125 l 2
 125 799.953125 267.513671875 1003.55175781 650 999.953125 c 0
400 399.953125 m 1
 400 399.953125 400 99.953125 650 99.953125 c 0
 869.799804688 99.953125 973.57421875 177.392578125 995.45703125 399.953125 c 1
 400 399.953125 l 1
EndSplineSet
EndChar

StartChar: uni018F
Encoding: 399 399 434
Width: 1800
VWidth: 1200
Flags: W
HStem: -10 110<663.799 1056.52> 600 100<500 1296.62> 1000 21G<200 325> 1300 100<587.132 1067.96>
VStem: 200 100<1220 1400> 1296.62 403.379<485.163 600 700 914.168>
LayerCount: 2
Fore
SplineSet
900 1410 m 0
 1199.99902344 1410 1700 1149.99902344 1700 700 c 0
 1700 250.000976562 1199.99902344 -10 900 -10 c 0
 420 -10 100 360 100 700 c 1
 1300 700 l 1
 1300 1049.99902344 1199.98046875 1303.625 850 1300 c 0
 502.639648438 1296.40136719 400 1150 250 1000 c 1
 200 1000 l 1
 200 1400 l 1
 300 1400 l 1
 300 1220 l 1
 300 1220 500.000976562 1410 900 1410 c 0
500 600 m 1
 500 300 550 100 850 100 c 0
 1165.54003906 100 1277.55761719 303.5234375 1296.62109375 600 c 1
 500 600 l 1
EndSplineSet
EndChar

StartChar: uni01B5
Encoding: 437 437 435
Width: 1600
VWidth: 1200
Flags: W
HStem: 0 100<350 1133.59> 700 100<200 550 1050 1400> 1000 21G<100 250> 1300 100<466.406 1150>
LayerCount: 2
Fore
SplineSet
100 1400 m 1
 1500 1400 l 1
 1500 1250 l 1
 1050 800 l 1
 1400 800 l 1
 1400 700 l 1
 950 700 l 1
 350 100 l 1
 1000 100 l 2
 1100 100 1250.00097656 200.000976562 1450 400 c 1
 1500 400 l 1
 1500 0 l 1
 100 0 l 1
 100 250 l 1
 550 700 l 1
 200 700 l 1
 200 800 l 1
 650 800 l 1
 1150 1300 l 1
 600 1300 l 2
 500 1300 349.999023438 1199.99902344 150 1000 c 1
 100 1000 l 1
 100 1400 l 1
EndSplineSet
EndChar

StartChar: uni01B6
Encoding: 438 438 436
Width: 1400
VWidth: 1200
Flags: W
HStem: 0 100<450 1071.88> 500 100<200 550 950 1300> 900 100<428.125 950>
LayerCount: 2
Fore
SplineSet
200 1000 m 1
 1300 1000 l 1
 1300 950 l 1
 950 600 l 1
 1300 600 l 1
 1300 500 l 1
 850 500 l 1
 450 100 l 1
 950 100 l 2
 1050 100 1150 200 1250 300 c 1
 1300 300 l 1
 1300 0 l 1
 100 0 l 1
 100 50 l 1
 550 500 l 1
 200 500 l 1
 200 600 l 1
 650 600 l 1
 950 900 l 1
 550 900 l 2
 450 900 350 800 250 700 c 1
 200 700 l 1
 200 1000 l 1
EndSplineSet
EndChar

StartChar: uni0191
Encoding: 401 401 437
Width: 2100
VWidth: 1200
Flags: W
HStem: -410 110<312.266 721.5> -120 240<292.477 488.024> 700 100<1100 1371.88> 980 20G<1500 1600> 1000 21G<1850 2000> 1300 100<600 800 1100 1633.59>
VStem: 800 300<-178.257 700 800 1300>
LayerCount: 2
Fore
SplineSet
600 1400 m 1xf6
 2000 1400 l 1
 2000 1000 l 1
 1950 1000 l 1xee
 1750 1200 1600 1300 1500 1300 c 2
 1100 1300 l 1
 1100 800 l 1
 1250 800 l 2
 1350 800 1450 900 1550 1000 c 1
 1600 1000 l 1
 1600 500 l 1
 1550 500 l 1
 1450 600 1350 700 1250 700 c 2
 1100 700 l 1
 1100 100 l 1
 1100 -50 l 2
 1100 -260 800 -410 550 -410 c 0
 300 -410 97.22265625 -289.979492188 100 -100 c 0
 101.908203125 30.546875 270 120 350 120 c 0
 450 120 520 80 520 0 c 0
 520 -50 475 -120 400 -120 c 0
 325 -120 290 -90 275 -50 c 1
 210 -120 180 -300 550 -300 c 0
 780 -300 800 -175 800 -50 c 2
 800 100 l 1
 800 1300 l 1
 600 1300 l 1
 600 1400 l 1xf6
EndSplineSet
EndChar

StartChar: florin
Encoding: 402 402 438
Width: 1600
VWidth: 1200
Flags: W
HStem: -400 100<305.874 596.769> -205.205 205.205<280.001 361.371> 900 100<500 700 1000 1300> 1300 100<1054.23 1316.89>
VStem: 100 300<-183.045 -29.5107> 700 300<-173.399 900 1000 1198.6> 1200 300<1104.53 1258.72>
LayerCount: 2
Fore
SplineSet
1200 1400 m 0
 1400 1400 1500 1296.43066406 1500 1200 c 0
 1500 1102.17089844 1425 1075 1350 1075 c 0
 1232.21582031 1075 1200 1125 1200 1175 c 0
 1200 1290 1320 1280 1320 1280 c 1
 1320 1280 1300.13964844 1300.89941406 1200 1300 c 0
 1020.0078125 1298.3828125 1000 1249.99902344 1000 1000 c 1
 1300 1000 l 1
 1300 900 l 1
 1000 900 l 1
 1000 0 l 2
 1000 -187.5 883.276367188 -299.720703125 722.201171875 -355.740234375 c 0
 706.09375 -361.341796875 689.54296875 -366.381835938 672.62109375 -370.87890625 c 0
 655.69921875 -375.375976562 638.404296875 -379.329101562 620.8125 -382.759765625 c 0
 550.444335938 -396.48046875 475.296875 -401.821289062 400 -400 c 0
 349.64453125 -398.782226562 305.71484375 -387.012695312 268.1484375 -368.537109375 c 0
 155.448242188 -313.109375 100 -197.323242188 100 -125 c 0
 100 -88.314453125 110.546875 -61.5654296875 127.685546875 -42.458984375 c 0
 130.541992188 -39.2744140625 133.581054688 -36.3017578125 136.78515625 -33.53125 c 0
 159.215820312 -14.138671875 189.721679688 -4.62890625 222.021484375 -1.359375 c 0
 231.25 -0.42578125 240.625 0 250 0 c 0
 367.784179688 0 400 -50 400 -100 c 0
 400 -143.125 383.125 -168.671875 362.03125 -183.759765625 c 0
 347.96875 -193.818359375 332.03125 -199.228515625 317.96875 -202.099609375 c 0
 310.9375 -203.53515625 304.375 -204.3359375 298.75 -204.765625 c 0
 293.125 -205.1953125 288.4375 -205.25390625 285.15625 -205.205078125 c 0
 281.875 -205.15625 280 -205 280 -205 c 1
 280 -205 299.860351562 -300.899414062 400 -300 c 0
 579.9921875 -298.3828125 700 -249.999023438 700 0 c 2
 700 100 l 1
 700 900 l 1
 500 900 l 1
 500 1000 l 1
 700 1000 l 1
 700 1299.99902344 898.725585938 1400 1200 1400 c 0
EndSplineSet
EndChar

StartChar: ogonek
Encoding: 731 731 441
Width: 700
VWidth: 1200
Flags: W
HStem: -400 100<309.918 507.959> -20 20G<250 400>
VStem: 100 200<-290.337 -146.916>
LayerCount: 2
Fore
SplineSet
300 0 m 1
 400 0 l 1
 400 0 300 -150 300 -200 c 0
 300 -250 300 -300 400 -300 c 0
 500 -300 600 -200 600 -200 c 1
 600 -270 l 1
 600 -270 529.4453125 -399.100585938 350 -400 c 0
 170.5546875 -400.899414062 100 -350 100 -250 c 0
 100 -150 200 -100 300 0 c 1
EndSplineSet
EndChar

StartChar: Alpha
Encoding: 913 913 442
Width: 2200
Flags: W
HStem: 0 100<100 350 500 800 1300 1550 1900 2100> 500 100<750 1300> 1380 20G<990 1260>
LayerCount: 2
Fore
SplineSet
750 600 m 1
 1300 600 l 1
 1025 1150 l 1
 750 600 l 1
1000 1400 m 1
 1250 1400 l 1
 1900 100 l 1
 2100 100 l 1
 2100 0 l 1
 1300 0 l 1
 1300 100 l 1
 1550 100 l 1
 1350 500 l 1
 700 500 l 1
 500 100 l 1
 800 100 l 1
 800 0 l 1
 100 0 l 1
 100 100 l 1
 350 100 l 1
 1000 1400 l 1
EndSplineSet
EndChar

StartChar: Beta
Encoding: 914 914 443
Width: 1700
Flags: W
HStem: 0 100<100 300 600 1201.76> 700 100<600 1105.6> 1300 100<100 300 600 1104.77>
VStem: 300 300<100 700 800 1300> 1200 300<905.233 1176.92> 1300 300<228.911 573.317>
LayerCount: 2
Fore
SplineSet
100 1400 m 1xf4
 1000 1400 l 2
 1250 1400 1500 1230 1500 1040 c 0xf8
 1500 850 1270 750 1270 750 c 1
 1270 750 1600 720 1600 400 c 0
 1600 80 1249.77441406 0 1100 0 c 2
 100 0 l 1
 100 100 l 1
 300 100 l 1
 300 1300 l 1
 100 1300 l 1
 100 1400 l 1xf4
600 1300 m 1
 600 800 l 1
 1000 800 l 2
 1120 800 1200 940 1200 1050 c 0
 1200 1160 1120 1300 1000 1300 c 2
 600 1300 l 1
600 700 m 1
 600 100 l 1
 1100 100 l 2
 1220 100 1300 230 1300 400 c 0xf4
 1300 570 1220 700 1100 700 c 2
 600 700 l 1
EndSplineSet
EndChar

StartChar: Gamma
Encoding: 915 915 444
Width: 1600
Flags: W
HStem: 0 100<100 300 600 900> 1000 21G<1350 1500> 1300 100<100 300 600 1133.59>
VStem: 300 300<100 1300>
LayerCount: 2
Fore
SplineSet
600 1300 m 1
 600 100 l 1
 900 100 l 1
 900 0 l 1
 100 0 l 1
 100 100 l 1
 300 100 l 1
 300 1300 l 1
 100 1300 l 1
 100 1400 l 1
 1500 1400 l 1
 1500 1000 l 1
 1450 1000 l 1
 1250 1200 1100 1300 1000 1300 c 2
 600 1300 l 1
EndSplineSet
EndChar

StartChar: uni0394
Encoding: 916 916 445
Width: 1750
Flags: W
HStem: 0 100<250 1300> 1380 20G<740 1010>
LayerCount: 2
Fore
SplineSet
1650 0 m 1
 100 0 l 1
 100 100 l 1
 750 1400 l 1
 1000 1400 l 1
 1650 100 l 1
 1650 0 l 1
250 100 m 1
 1300 100 l 1
 775 1150 l 1
 250 100 l 1
EndSplineSet
EndChar

StartChar: Epsilon
Encoding: 917 917 446
Width: 1600
Flags: W
HStem: 0 100<100 300 600 1133.59> 700 100<600 871.875> 980 20G<1000 1100> 1000 21G<1350 1500> 1300 100<100 300 600 1133.59>
VStem: 300 300<100 700 800 1300>
LayerCount: 2
Fore
SplineSet
1100 1000 m 1xec
 1100 500 l 1
 1050 500 l 1
 950 600 850 700 750 700 c 2
 600 700 l 1
 600 100 l 1
 1000 100 l 2
 1100 100 1250 200 1450 400 c 1
 1500 400 l 1
 1500 0 l 1
 100 0 l 1
 100 100 l 1
 300 100 l 1
 300 1300 l 1
 100 1300 l 1
 100 1400 l 1
 1500 1400 l 1
 1500 1000 l 1
 1450 1000 l 1xdc
 1250 1200 1100 1300 1000 1300 c 2
 600 1300 l 1
 600 800 l 1
 750 800 l 2
 850 800 950 900 1050 1000 c 1
 1100 1000 l 1xec
EndSplineSet
EndChar

StartChar: Zeta
Encoding: 918 918 447
Width: 1600
Flags: W
HStem: 0 100<350 1133.59> 1000 21G<100 250> 1300 100<466.406 1150>
LayerCount: 2
Fore
SplineSet
100 1400 m 1
 1500 1400 l 1
 1500 1250 l 1
 350 100 l 1
 1000 100 l 2
 1100 100 1250 200 1450 400 c 1
 1500 400 l 1
 1500 0 l 1
 100 0 l 1
 100 250 l 1
 1150 1300 l 1
 600 1300 l 2
 500 1300 350 1200 150 1000 c 1
 100 1000 l 1
 100 1400 l 1
EndSplineSet
EndChar

StartChar: Eta
Encoding: 919 919 448
Width: 1900
Flags: W
HStem: 0 100<100 300 600 800 1100 1300 1600 1800> 700 100<600 1300> 1300 100<100 300 600 800 1100 1300 1600 1800>
VStem: 300 300<100 700 800 1300> 1300 300<100 700 800 1300>
LayerCount: 2
Fore
SplineSet
100 1400 m 1
 800 1400 l 1
 800 1300 l 1
 600 1300 l 1
 600 800 l 1
 1300 800 l 1
 1300 1300 l 1
 1100 1300 l 1
 1100 1400 l 1
 1800 1400 l 1
 1800 1300 l 1
 1600 1300 l 1
 1600 100 l 1
 1800 100 l 1
 1800 0 l 1
 1100 0 l 1
 1100 100 l 1
 1300 100 l 1
 1300 700 l 1
 600 700 l 1
 600 100 l 1
 800 100 l 1
 800 0 l 1
 100 0 l 1
 100 100 l 1
 300 100 l 1
 300 1300 l 1
 100 1300 l 1
 100 1400 l 1
EndSplineSet
EndChar

StartChar: Theta
Encoding: 920 920 449
Width: 1800
Flags: W
HStem: -10 110<733.277 1066.72> 525 350<600 693.716 1106.28 1200> 625 150<709.375 1090.62> 1300 110<736.534 1063.47>
VStem: 100 400<490.754 909.169> 1300 400<490.754 909.324>
LayerCount: 2
Fore
SplineSet
900 1410 m 0x9c
 1349.62402344 1411.57421875 1700 1049.99902344 1700 700 c 0
 1700 350.000976562 1349.99902344 -10 900 -10 c 0
 450 -10 100 350.000976562 100 700 c 0
 100 1049.99902344 450.375976562 1408.42578125 900 1410 c 0x9c
900 1300 m 0
 600.000976562 1300 500 999.999023438 500 700 c 0
 500 400.000976562 598.3515625 100 900 100 c 0
 1201.6484375 100 1300 400.000976562 1300 700 c 0
 1300 999.999023438 1199.99902344 1300 900 1300 c 0
600 875 m 1xdc
 650 875 l 1xdc
 750 775 750 775 850 775 c 2
 950 775 l 2xbc
 1050 775 1050 775 1150 875 c 1
 1200 875 l 1
 1200 525 l 1
 1150 525 l 1xdc
 1050 625 1050 625 950 625 c 2
 850 625 l 2xbc
 750 625 750 625 650 525 c 1
 600 525 l 1
 600 875 l 1xdc
EndSplineSet
EndChar

StartChar: Iota
Encoding: 921 921 450
Width: 1100
Flags: W
HStem: 0 100<100 400 700 1000> 1300 100<100 400 700 1000>
VStem: 400 300<100 1300>
LayerCount: 2
Fore
SplineSet
100 1400 m 1
 1000 1400 l 1
 1000 1300 l 1
 700 1300 l 1
 700 100 l 1
 1000 100 l 1
 1000 0 l 1
 100 0 l 1
 100 100 l 1
 400 100 l 1
 400 1300 l 1
 100 1300 l 1
 100 1400 l 1
EndSplineSet
EndChar

StartChar: Kappa
Encoding: 922 922 451
Width: 2000
HStem: 0 100<100 300 600 800 1100 1350 1750 1900> 1300 100<100 300 600 800 1200 1350 1550 1700>
VStem: 300 300<100 350 550 1300>
LayerCount: 2
Fore
SplineSet
100 1400 m 1
 800 1400 l 1
 800 1300 l 1
 600 1300 l 1
 600 550 l 1
 1350 1300 l 1
 1200 1300 l 1
 1200 1400 l 1
 1700 1400 l 1
 1700 1300 l 1
 1550 1300 l 1
 1050 800 l 1
 1750 100 l 1
 1900 100 l 1
 1900 0 l 1
 1100 0 l 1
 1100 100 l 1
 1350 100 l 1
 850 600 l 1
 600 350 l 1
 600 100 l 1
 800 100 l 1
 800 0 l 1
 100 0 l 1
 100 100 l 1
 300 100 l 1
 300 1300 l 1
 100 1300 l 1
 100 1400 l 1
EndSplineSet
EndChar

StartChar: Lambda
Encoding: 923 923 452
Width: 2200
Flags: W
HStem: 0 100<100 350 500 800 1300 1550 1900 2100> 1380 20G<990 1260>
LayerCount: 2
Fore
SplineSet
1550 100 m 1
 1025 1150 l 1
 500 100 l 1
 800 100 l 1
 800 0 l 1
 100 0 l 1
 100 100 l 1
 350 100 l 1
 1000 1400 l 1
 1250 1400 l 1
 1900 100 l 1
 2100 100 l 1
 2100 0 l 1
 1300 0 l 1
 1300 100 l 1
 1550 100 l 1
EndSplineSet
EndChar

StartChar: Mu
Encoding: 924 924 453
Width: 2100
Flags: W
HStem: 0 100<100 300 500 700 1300 1500 1800 2000> 1300 100<100 300 1800 2000>
VStem: 300 200<100 1000> 1500 300<100 1000>
LayerCount: 2
Fore
SplineSet
100 1400 m 1
 600 1400 l 1
 1075 450 l 1
 1550 1400 l 1
 2000 1400 l 1
 2000 1300 l 1
 1800 1300 l 1
 1800 100 l 1
 2000 100 l 1
 2000 0 l 1
 1300 0 l 1
 1300 100 l 1
 1500 100 l 1
 1500 1000 l 1
 1100 200 l 1
 900 200 l 1
 500 1000 l 1
 500 100 l 1
 700 100 l 1
 700 0 l 1
 100 0 l 1
 100 100 l 1
 300 100 l 1
 300 1300 l 1
 100 1300 l 1
 100 1400 l 1
EndSplineSet
EndChar

StartChar: Nu
Encoding: 925 925 454
Width: 2000
HStem: 0 100<100 300 500 700> 1300 100<100 300 1300 1500 1700 1900>
VStem: 300 200<100 1050> 1500 200<450 1300>
LayerCount: 2
Fore
SplineSet
100 1400 m 1
 550 1400 l 1
 1500 450 l 1
 1500 1300 l 1
 1300 1300 l 1
 1300 1400 l 1
 1900 1400 l 1
 1900 1300 l 1
 1700 1300 l 1
 1700 0 l 1
 1550 0 l 1
 500 1050 l 1
 500 100 l 1
 700 100 l 1
 700 0 l 1
 100 0 l 1
 100 100 l 1
 300 100 l 1
 300 1300 l 1
 100 1300 l 1
 100 1400 l 1
EndSplineSet
EndChar

StartChar: Xi
Encoding: 926 926 455
Width: 1600
Flags: W
HStem: 0 150<371.734 1228.27> 625 150<628.125 971.875> 1000 21G<100 250 1350 1500> 1250 150<371.734 1228.27>
LayerCount: 2
Fore
SplineSet
100 400 m 1
 150 400 l 1
 349.999023438 200.000976562 400 150 500 150 c 2
 1100 150 l 2
 1200 150 1250.00097656 200.000976562 1450 400 c 1
 1500 400 l 1
 1500 0 l 1
 100 0 l 1
 100 400 l 1
400 975 m 1
 450 975 l 1
 550 875 650 775 750 775 c 2
 850 775 l 2
 950 775 1050 875 1150 975 c 1
 1200 975 l 1
 1200 425 l 1
 1150 425 l 1
 1050 525 950 625 850 625 c 2
 750 625 l 2
 650 625 550 525 450 425 c 1
 400 425 l 1
 400 975 l 1
100 1400 m 1
 1500 1400 l 1
 1500 1000 l 1
 1450 1000 l 1
 1250.00097656 1199.99902344 1200 1250 1100 1250 c 2
 500 1250 l 2
 400 1250 349.999023438 1199.99902344 150 1000 c 1
 100 1000 l 1
 100 1400 l 1
EndSplineSet
EndChar

StartChar: Omicron
Encoding: 927 927 456
Width: 1800
Flags: W
HStem: -10 110<733.277 1066.72> 1300 110<736.533 1063.47>
VStem: 100 400<490.753 909.169> 1300 400<490.753 909.324>
LayerCount: 2
Fore
SplineSet
900 1410 m 0
 1349.625 1411.57421875 1700 1050 1700 700 c 0
 1700 350 1350 -10 900 -10 c 0
 450 -10 100 350 100 700 c 0
 100 1050 450.375 1408.42578125 900 1410 c 0
900 1300 m 0
 600 1300 500 1000 500 700 c 0
 500 400 598.3515625 100 900 100 c 0
 1201.6484375 100 1300 400 1300 700 c 0
 1300 1000 1200 1300 900 1300 c 0
EndSplineSet
EndChar

StartChar: Pi
Encoding: 928 928 457
Width: 2000
HStem: 0 100<100 300 600 800 1200 1400 1700 1900> 1300 100<100 300 600 1400 1700 1900>
VStem: 300 300<100 1300> 1400 300<100 1300>
LayerCount: 2
Fore
SplineSet
1400 1300 m 1
 600 1300 l 1
 600 100 l 1
 800 100 l 1
 800 0 l 1
 100 0 l 1
 100 100 l 1
 300 100 l 1
 300 1300 l 1
 100 1300 l 1
 100 1400 l 1
 1900 1400 l 1
 1900 1300 l 1
 1700 1300 l 1
 1700 100 l 1
 1900 100 l 1
 1900 0 l 1
 1200 0 l 1
 1200 100 l 1
 1400 100 l 1
 1400 1300 l 1
EndSplineSet
EndChar

StartChar: Rho
Encoding: 929 929 458
Width: 1600
Flags: W
HStem: 0 100<100 300 600 900> 600 100<600 1103.79> 1300 100<100 300 600 1103.79>
VStem: 300 300<100 600 700 1300> 1200 300<828.914 1163.44>
LayerCount: 2
Fore
SplineSet
1000 600 m 2
 600 600 l 1
 600 100 l 1
 900 100 l 1
 900 0 l 1
 100 0 l 1
 100 100 l 1
 300 100 l 1
 300 1300 l 1
 100 1300 l 1
 100 1400 l 1
 1000 1400 l 2
 1250 1400 1504.49804688 1249.265625 1500 990 c 0
 1495.50195312 730.734375 1250 600 1000 600 c 2
600 1300 m 1
 600 700 l 1
 1000 700 l 2
 1120 700 1200 840 1200 1000 c 0
 1200 1160 1120 1300 1000 1300 c 2
 600 1300 l 1
EndSplineSet
EndChar

StartChar: Sigma
Encoding: 931 931 459
Width: 1600
Flags: W
HStem: 0 100<350 1133.59> 1000 21G<1350 1500> 1300 100<550 1133.59>
LayerCount: 2
Fore
SplineSet
1000 100 m 2
 1100 100 1250 200 1450 400 c 1
 1500 400 l 1
 1500 0 l 1
 100 0 l 1
 100 50 l 1
 750 700 l 1
 100 1350 l 1
 100 1400 l 1
 1500 1400 l 1
 1500 1000 l 1
 1450 1000 l 1
 1250 1200 1100 1300 1000 1300 c 2
 550 1300 l 1
 1050 800 l 1
 350 100 l 1
 1000 100 l 2
EndSplineSet
EndChar

StartChar: Tau
Encoding: 932 932 460
Width: 1500
Flags: W
HStem: 0 100<300 600 900 1200> 1000 21G<100 250 1250 1400> 1300 100<466.406 600 900 1033.59>
VStem: 600 300<100 1300>
LayerCount: 2
Fore
SplineSet
100 1400 m 1
 1400 1400 l 1
 1400 1000 l 1
 1350 1000 l 1
 1150 1200 1000 1300 900 1300 c 1
 900 100 l 1
 1200 100 l 1
 1200 0 l 1
 300 0 l 1
 300 100 l 1
 600 100 l 1
 600 1300 l 1
 500 1300 350 1200 150 1000 c 1
 100 1000 l 1
 100 1400 l 1
EndSplineSet
EndChar

StartChar: Upsilon
Encoding: 933 933 461
Width: 1600
Flags: W
HStem: 0 100<400 600 900 1100> 1300 100<100 250 550 700 1000 1150 1300 1500>
VStem: 600 300<100 500>
LayerCount: 2
Fore
SplineSet
100 1400 m 1
 700 1400 l 1
 700 1300 l 1
 550 1300 l 1
 850 700 l 1
 1150 1300 l 1
 1000 1300 l 1
 1000 1400 l 1
 1500 1400 l 1
 1500 1300 l 1
 1300 1300 l 1
 900 500 l 1
 900 100 l 1
 1100 100 l 1
 1100 0 l 1
 400 0 l 1
 400 100 l 1
 600 100 l 1
 600 600 l 1
 250 1300 l 1
 100 1300 l 1
 100 1400 l 1
EndSplineSet
EndChar

StartChar: Phi
Encoding: 934 934 462
Width: 1900
Flags: W
HStem: 0 100<500 800 1100 1400> 190 79.0137<639.686 800 1100 1260.31> 1130.99 79.0137<639.789 800 1100 1260.21> 1300 100<500 800 1100 1400>
VStem: 100 350<534.541 860.681> 800 300<100 190 269.014 1130.99 1210 1300> 1450 350<534.541 860.681>
CounterMasks: 1 0e
LayerCount: 2
Fore
SplineSet
500 1400 m 1
 1400 1400 l 1
 1400 1300 l 1
 1100 1300 l 1
 1100 1210 l 1
 1493.42089844 1208.86914062 1800 951.407226562 1800 700 c 0
 1800 448.592773438 1493.74902344 190 1100 190 c 1
 1100 100 l 1
 1400 100 l 1
 1400 0 l 1
 500 0 l 1
 500 100 l 1
 800 100 l 1
 800 190 l 1
 406.250976562 190 100 448.592773438 100 700 c 0
 100 951.407226562 406.579101562 1208.86914062 800 1210 c 1
 800 1300 l 1
 500 1300 l 1
 500 1400 l 1
800 1130.98632812 m 1
 537.500976562 1130.98632812 450 915.4921875 450 700 c 0
 450 484.5078125 536.057617188 269.013671875 800 269.013671875 c 1
 800 1130.98632812 l 1
1100 1130.98632812 m 1
 1100 269.013671875 l 1
 1363.94238281 269.013671875 1450 484.5078125 1450 700 c 0
 1450 915.4921875 1362.49902344 1130.98632812 1100 1130.98632812 c 1
EndSplineSet
EndChar

StartChar: Chi
Encoding: 935 935 463
Width: 1900
Flags: W
HStem: 0 100<100 250 450 700 1200 1350 1750 1800> 1300 100<100 250 650 800 1300 1450 1650 1800>
LayerCount: 2
Fore
SplineSet
100 1400 m 1
 800 1400 l 1
 800 1300 l 1
 650 1300 l 1
 1050 900 l 1
 1450 1300 l 1
 1300 1300 l 1
 1300 1400 l 1
 1800 1400 l 1
 1800 1300 l 1
 1650 1300 l 1
 1100 750 l 1
 1750 100 l 1
 1800 100 l 1
 1800 0 l 1
 1200 0 l 1
 1200 100 l 1
 1350 100 l 1
 900 550 l 1
 450 100 l 1
 700 100 l 1
 700 0 l 1
 100 0 l 1
 100 100 l 1
 250 100 l 1
 850 700 l 1
 250 1300 l 1
 100 1300 l 1
 100 1400 l 1
EndSplineSet
EndChar

StartChar: Psi
Encoding: 936 936 464
Width: 2100
Flags: W
HStem: 0 100<600 900 1200 1500> 700 100<688.447 900 1200 1411.55> 1300 100<100 257.193 600 900 1200 1500 1842.81 2000>
VStem: 300 300<925.627 1258.14> 900 300<100 700 800 1300> 1500 300<925.627 1258.14>
CounterMasks: 1 1c
LayerCount: 2
Fore
SplineSet
100 1400 m 1
 400 1400 l 2
 490 1400 601.153320312 1299.99609375 600 1100 c 0
 599.100585938 944.078125 650 800 800 800 c 2
 900 800 l 1
 900 1300 l 1
 600 1300 l 1
 600 1400 l 1
 1500 1400 l 1
 1500 1300 l 1
 1200 1300 l 1
 1200 800 l 1
 1300 800 l 2
 1450 800 1500.89941406 944.078125 1500 1100 c 0
 1498.84667969 1299.99609375 1610 1400 1700 1400 c 2
 2000 1400 l 1
 2000 1300 l 1
 1900 1300 1800 1300 1800 1100 c 0
 1800 760 1450 700 1300 700 c 2
 1200 700 l 1
 1200 100 l 1
 1500 100 l 1
 1500 0 l 1
 600 0 l 1
 600 100 l 1
 900 100 l 1
 900 700 l 1
 800 700 l 2
 650 700 300 760 300 1100 c 0
 300 1300 200 1300 100 1300 c 1
 100 1400 l 1
EndSplineSet
EndChar

StartChar: uni03A9
Encoding: 937 937 465
Width: 2000
HStem: 0 100<466.406 600 1400 1533.59> 1311.62 98.3789<820.734 1179.27>
VStem: 200 400<587.005 962.074> 600 200<100 248.82> 1200 200<100 248.82> 1400 400<587.005 962.212>
LayerCount: 2
Fore
SplineSet
1000 1410 m 0xe0
 1449.62402344 1411.40820312 1800 1088.02734375 1800 775 c 0xe4
 1800 564.182617188 1641.13867188 349.453125 1400 231.62109375 c 1
 1400 100 l 1
 1500 100 1650.00097656 200.000976562 1850 400 c 1
 1900 400 l 1
 1900 0 l 1
 1200 0 l 1
 1200 161.78515625 l 1
 1200 290.791015625 l 1xc8
 1347.02636719 381.7890625 1400 578.32421875 1400 775 c 0
 1400 1043.30957031 1299.99902344 1311.62109375 1000 1311.62109375 c 0
 700.000976562 1311.62109375 600 1043.30957031 600 775 c 0xe4
 600 578.32421875 652.973632812 381.7890625 800 290.791015625 c 1
 800 250 l 1
 800 161.78515625 l 1
 800 0 l 1
 100 0 l 1
 100 400 l 1
 150 400 l 1
 349.999023438 200.000976562 500 100 600 100 c 1
 600 231.62109375 l 1xd0
 358.861328125 349.453125 200 564.182617188 200 775 c 0
 200 1088.02734375 550.375976562 1408.59179688 1000 1410 c 0xe0
EndSplineSet
EndChar

StartChar: tonos
Encoding: 900 900 468
Width: 500
Flags: W
HStem: 1300 300<200 250>
VStem: 100 300
LayerCount: 2
Fore
SplineSet
400 1600 m 1
 400 1550 l 1
 250 1300 l 1
 100 1300 l 1
 100 1350 l 1
 200 1600 l 1
 400 1600 l 1
EndSplineSet
EndChar

StartChar: alpha
Encoding: 945 945 479
Width: 1400
Flags: W
HStem: 0 100<529.476 772.418> 900 100<523.926 748.031 1256.04 1300>
VStem: 100 300<263.375 736.764>
LayerCount: 2
Fore
SplineSet
650 1000 m 0
 893.939453125 1000 1006.03710938 894.669921875 1068.75195312 763.318359375 c 1
 1105.14550781 869.82421875 1176.30566406 1000 1300 1000 c 1
 1300 900 l 1
 1268.31054688 901.805664062 1238.09863281 852.392578125 1200 700 c 2
 1150 500 l 1
 1175 400 l 2
 1213.09863281 247.607421875 1268.31054688 198.194335938 1300 200 c 1
 1300 0 l 1
 1163.41308594 0 1028.89648438 75.9658203125 985.40234375 171.431640625 c 1
 901.258789062 71.796875 788.958007812 -0.529296875 650 0 c 0
 257.2421875 1.49609375 100 200.000976562 100 500 c 0
 100 799.999023438 250.000976562 1000 650 1000 c 0
650 900 m 0
 500 900 400 765.666992188 400 500 c 0
 400 234.333984375 500 100 650 100 c 0
 760.04296875 100 868.98046875 204.000976562 939.73046875 341.07421875 c 1
 900 500 l 2
 853.245117188 687.021484375 800 900 650 900 c 0
EndSplineSet
EndChar

StartChar: beta
Encoding: 946 946 480
Width: 1300
Flags: W
HStem: 0 100<521.834 801.759> 700 100<500 705.596> 1300 100<457.404 706.359>
VStem: 100 300<-300 100 178.999 1199.89> 800 300<905.233 1176.92> 900 300<228.911 573.317>
LayerCount: 2
Fore
SplineSet
600 1400 m 0xf4
 849.999023438 1400 1100 1230 1100 1040 c 0xf8
 1100 850 870 750 870 750 c 1
 870 750 1200 719.999023438 1200 400 c 0
 1200 80.0009765625 849.774414062 0 700 0 c 1
 571.08984375 7.4150390625 500 50 400 100 c 1
 400 -300 l 1
 100 -300 l 1
 100 1040 l 2
 100 1230 245.68359375 1399.36425781 600 1400 c 0xf4
600 1300 m 0
 390 1300 400 1160 400 1050 c 2
 400 200 l 1
 500 150 599.860351562 99.1005859375 700 100 c 0
 820 100 900 230 900 400 c 0xf4
 900 570 820 700 700 700 c 2
 600 700 l 1
 500 700 l 1
 500 800 l 1
 600 800 l 2
 720 800 800 940 800 1050 c 0
 800 1160 720 1300 600 1300 c 0
EndSplineSet
EndChar

StartChar: gamma
Encoding: 947 947 481
Width: 1700
Flags: W
HStem: 900 100<100 300 600 700>
VStem: 1300 300<546.182 824.146>
LayerCount: 2
Fore
SplineSet
100 1000 m 1
 700 1000 l 1
 700 900 l 1
 600 900 l 1
 945.2109375 209.578125 l 1
 1108.11035156 348.815429688 1303.6171875 502.758789062 1300 700 c 0
 1296.38769531 896.955078125 1100 900 1100 900 c 1
 1100 1000 l 1
 1300 1000 l 2
 1400 1000 1600 900 1600 700 c 0
 1600 373.826171875 1165.8984375 221.333984375 1025.84179688 40.212890625 c 1
 1098.15234375 -154.6484375 1080.87207031 -400 900 -400 c 0
 700 -400 650 -200 750 0 c 1
 300 900 l 1
 100 900 l 1
 100 1000 l 1
EndSplineSet
EndChar

StartChar: delta
Encoding: 948 948 482
Width: 1300
Flags: W
HStem: 0 100<524.869 775.131> 900 100<592.512 755.99> 1300 100<530.227 1017.25>
VStem: 100 300<263.473 658.45> 150 300<1040.64 1235.37> 900 300<263.473 691.954 1099.41 1250.68>
LayerCount: 2
Fore
SplineSet
800 1400 m 0xec
 1024.99902344 1400 1199.36425781 1298.94433594 1200 1200 c 0
 1200.64257812 1100.00195312 1130 1070 1055 1070 c 0
 937.216796875 1070 905 1120 905 1170 c 0
 905 1285 1025 1275 1025 1275 c 1
 965.875 1289.73828125 897.970703125 1299.55273438 800 1300 c 0
 550.002929688 1301.14257812 450 1250 450 1150 c 0xec
 450 1050 500 1000 650 1000 c 0
 1049.99902344 1000 1200 700 1200 500 c 0
 1200 200.000976562 1042.75195312 2.5439453125 650 0 c 1
 257.248046875 2.5439453125 100 200.000976562 100 500 c 0xf4
 100 652.6953125 216.697265625 805.336914062 427.60546875 913.529296875 c 1
 253.796875 938.875976562 146.328125 1004.81835938 150 1150 c 0
 153.831054688 1301.47265625 400.000976562 1400 800 1400 c 0xec
650 900 m 1
 500 800 400 700 400 500 c 0xf4
 400 234.333007812 500 100 650 100 c 0
 800 100 900 234.333007812 900 500 c 0
 900 700 800 900 650 900 c 1
EndSplineSet
EndChar

StartChar: epsilon
Encoding: 949 949 483
Width: 1300
Flags: W
HStem: 0 100<521.809 1063.43> 500 100<443.75 900> 900 100<493.728 1017.25>
VStem: 100 300<191.538 417.123 638.755 829.319> 905 295<699.413 855.199>
LayerCount: 2
Fore
SplineSet
800 1000 m 0
 1024.99902344 1000 1199.36425781 898.944335938 1200 800 c 0
 1200.64257812 700.001953125 1130 670 1055 670 c 0
 937.216796875 670 905 720 905 770 c 0
 905 885 1025 875 1025 875 c 1
 965.875 889.73828125 897.970703125 899.552734375 800 900 c 0
 550.002929688 901.142578125 400 850 400 750 c 0
 400 650 450 600 600 600 c 2
 900 600 l 1
 900 500 l 1
 600 500 l 2
 450 500 400 450 400 300 c 0
 400 150 575 100 800 100 c 0
 1024.99902344 100 1200 200 1200 200 c 1
 1200 100 l 1
 1200 100 1025.06347656 -0.6728515625 800 0 c 0
 275.002929688 1.5703125 98.72265625 101.473632812 100 300 c 0
 100.563476562 387.541015625 168.681640625 475.028320312 284.87109375 532.75390625 c 1
 166.458007812 567.037109375 97.033203125 632.703125 100 750 c 0
 103.831054688 901.47265625 400.000976562 1000 800 1000 c 0
EndSplineSet
EndChar

StartChar: zeta
Encoding: 950 950 484
Width: 1300
Flags: W
HStem: -400 100<701.871 946.997> 0 100<564.87 968.543> 1300 100<100 1001.83>
VStem: 100 300<296.753 653.598> 1000 200<-241.734 -36.1107>
LayerCount: 2
Fore
SplineSet
100 1400 m 1
 1200 1400 l 1
 1200 1300 l 1
 806.759765625 1091.64160156 400 765.666992188 400 500 c 0
 400 234.333007812 550 100 700 100 c 2
 900 100 l 2
 1125 100 1200 50 1200 -100 c 0
 1200 -399.999023438 950 -400 850 -400 c 0
 750 -400 600 -300 600 -300 c 1
 600 -200 l 1
 600 -200 750 -300 850 -300 c 0
 950 -300 1000 -200 1000 -100 c 0
 1000 -25 875 0 800 0 c 2
 600 0 l 2
 350.000976562 0 100 200.000976562 100 500 c 0
 100 778.7421875 187.459960938 885.297851562 1001.83007812 1300 c 1
 100 1300 l 1
 100 1400 l 1
EndSplineSet
EndChar

StartChar: eta
Encoding: 951 951 485
Width: 1500
Flags: HW
HStem: 0 21G<300 600> 900 100<100 300 811.716 1063.16>
VStem: 300 300<0 600 730 900> 1100 300<-400 832.134>
LayerCount: 2
Fore
SplineSet
100 1000 m 1
 600 1000 l 1
 600 730 l 1
 600 730 700 1000 960 1000 c 0
 1300 1000 1400.89941406 800.209960938 1400 720 c 2
 1400 -400 l 1
 1100 -400 l 1
 1100 700 l 2
 1100 800 1099.99804688 899.267578125 960 900 c 0
 716.747070312 901.272460938 600 600 600 600 c 1
 600 0 l 1
 300 0 l 1
 300 900 l 1
 100 900 l 1
 100 1000 l 1
EndSplineSet
EndChar

StartChar: theta
Encoding: 952 952 486
Width: 1300
Flags: W
HStem: 0 100<547.187 752.813> 625 150<401.531 898.469> 1300 100<554.735 745.265>
VStem: 100 301.531<369.567 625 775 1030.43> 898.469 301.531<369.567 625 775 1030.43>
CounterMasks: 1 e0
LayerCount: 2
Fore
SplineSet
650 1400 m 0
 1049.99902344 1400 1200 1119.99902344 1200 700 c 0
 1200 280.000976562 1042.75195312 3.5615234375 650 0 c 1
 257.248046875 3.5615234375 100 280.000976562 100 700 c 0
 100 1119.99902344 250.000976562 1400 650 1400 c 0
650 1300 m 0
 510.387695312 1300 414.19921875 1102.25585938 401.53125 775 c 1
 898.46875 775 l 1
 885.80078125 1102.25585938 789.612304688 1300 650 1300 c 0
401.53125 625 m 1
 414.19921875 297.744140625 510.387695312 100 650 100 c 0
 789.612304688 100 885.80078125 297.744140625 898.46875 625 c 1
 401.53125 625 l 1
EndSplineSet
EndChar

StartChar: iota
Encoding: 953 953 487
Width: 1000
Flags: W
HStem: 0 100<620.816 822.863> 900 100<100 300>
VStem: 300 300<118.816 900>
LayerCount: 2
Fore
SplineSet
100 1000 m 1
 600 1000 l 1
 600 900.150390625 l 1
 600 900 l 1
 600 300 l 2
 600 200 598.978515625 97.4560546875 700 100 c 0
 799.967773438 102.517578125 900 200 900 200 c 1
 900 100 l 1
 900 100 800 0 700 0 c 0
 400 0 300 0 300 300 c 2
 300 900 l 1
 100 900 l 1
 100 1000 l 1
EndSplineSet
EndChar

StartChar: kappa
Encoding: 954 954 488
Width: 1700
Flags: W
HStem: 0 100<100 300 600 800 1000 1150 1450 1600> 900 100<100 300 800 1050 1250 1500>
VStem: 300 300<100 350 450 900>
LayerCount: 2
Fore
SplineSet
100 1000 m 1
 600 1000 l 1
 600 450 l 1
 1050 900 l 1
 800 900 l 1
 800 1000 l 1
 1500 1000 l 1
 1500 900 l 1
 1250 900 l 1
 950 600 l 1
 1450 100 l 1
 1600 100 l 1
 1600 0 l 1
 1000 0 l 1
 1000 100 l 1
 1150 100 l 1
 750 500 l 1
 600 350 l 1
 600 100 l 1
 800 100 l 1
 800 0 l 1
 100 0 l 1
 100 100 l 1
 300 100 l 1
 300 900 l 1
 100 900 l 1
 100 1000 l 1
EndSplineSet
EndChar

StartChar: lambda
Encoding: 955 955 489
Width: 1600
Flags: W
HStem: 0 100<100 300 600 700 1100 1200 1350 1500> 1300 100<378.312 595.915>
VStem: 200 295<1099.41 1255.2>
LayerCount: 2
Fore
SplineSet
500 1400 m 0
 725 1400 800 1200 900 1000 c 2
 1350 100 l 1
 1500 100 l 1
 1500 0 l 1
 1100 0 l 1
 1100 100 l 1
 1200 100 l 1
 900 700 l 1
 600 100 l 1
 700 100 l 1
 700 0 l 1
 100 0 l 1
 100 100 l 1
 300 100 l 1
 750 1000 l 1
 650 1200 600 1300 500 1300 c 0
 425 1300 390.32421875 1300 375 1275 c 1
 375 1275 495 1285 495 1170 c 0
 495 1120 462.784179688 1070 345 1070 c 0
 270 1070 199.357421875 1100.00195312 200 1200 c 0
 200.635742188 1298.94433594 275 1400 500 1400 c 0
EndSplineSet
EndChar

StartChar: uni03BC
Encoding: 956 956 490
Width: 1700
Flags: W
HStem: 0 100<682.877 989.95 1400 1600> 900 100<100 300 900 1100>
VStem: 300 300<-400 34.0605 200.375 900> 1100 300<200 900>
LayerCount: 2
Fore
SplineSet
100 1000 m 1
 600 1000 l 1
 600 500 l 2
 600 234.333007812 650 100 800 100 c 0
 950 100 1100 200 1100 200 c 1
 1100 900 l 1
 900 900 l 1
 900 1000 l 1
 1400 1000 l 1
 1400 100 l 1
 1600 100 l 1
 1600 0 l 1
 1300 0 l 1
 1100 100 l 1
 1100 100 949.997070312 -0.880859375 800 0 c 0
 726.42578125 0.431640625 659.442382812 12.2958984375 600 34.060546875 c 1
 600 -400 l 1
 300 -400 l 1
 300 500 l 1
 300 900 l 1
 100 900 l 1
 100 1000 l 1
EndSplineSet
EndChar

